{
copyright = "Copyright (c) 2011 by vernon adams. All rights reserved.";
customParameters = (
{
name = glyphOrder;
value = (
    space,
    exclam,
    quotedbl,
    numbersign,
    dollar,
    percent,
    ampersand,
    parenleft,
    parenright,
    asterisk,
    plus,
    comma,
    hyphen,
    period,
    slash,
    zero,
    one,
    two,
    three,
    four,
    five,
    six,
    seven,
    eight,
    nine,
    colon,
    semicolon,
    less,
    equal,
    greater,
    question,
    at,
    A,
    B,
    C,
    D,
    E,
    F,
    G,
    H,
    I,
    J,
    K,
    L,
    M,
    N,
    O,
    P,
    Q,
    R,
    S,
    T,
    U,
    V,
    W,
    X,
    Y,
    Z,
    bracketleft,
    backslash,
    bracketright,
    asciicircum,
    underscore,
    grave,
    a,
    b,
    c,
    d,
    e,
    f,
    g,
    h,
    i,
    j,
    k,
    l,
    m,
    n,
    o,
    p,
    q,
    r,
    s,
    t,
    u,
    v,
    w,
    x,
    y,
    z,
    braceleft,
    bar,
    braceright,
    asciitilde,
    exclamdown,
    cent,
    sterling,
    currency,
    yen,
    brokenbar,
    section,
    dieresis,
    copyright,
    ordfeminine,
    guillemotleft,
    logicalnot,
    registered,
    macron,
    degree,
    plusminus,
    twosuperior,
    threesuperior,
    acute,
    mu,
    paragraph,
    periodcentered,
    cedilla,
    onesuperior,
    ordmasculine,
    guillemotright,
    onequarter,
    onehalf,
    threequarters,
    questiondown,
    Agrave,
    Aacute,
    Acircumflex,
    Atilde,
    Adieresis,
    Aring,
    AE,
    Ccedilla,
    Egrave,
    Eacute,
    Ecircumflex,
    Edieresis,
    Igrave,
    Iacute,
    Icircumflex,
    Idieresis,
    Eth,
    Ntilde,
    Ograve,
    Oacute,
    Ocircumflex,
    Otilde,
    Odieresis,
    multiply,
    Oslash,
    Ugrave,
    Uacute,
    Ucircumflex,
    Udieresis,
    Yacute,
    Thorn,
    germandbls,
    agrave,
    aacute,
    acircumflex,
    atilde,
    adieresis,
    aring,
    ae,
    ccedilla,

glyphs = (
{
glyphname = exclam;
lastChange = "2013-12-10 18:24:04 -0800";
layers = (
{
layerId = "EBB1D39D-5A31-45B3-B44F-04CD128BFFB4";
name = Regular;
paths = (
{
closed = 1;
nodes = (
"318 1479 OFFCURVE",
"251 1443 OFFCURVE",
"251 1374 CURVE SMOOTH",
"251 1370 OFFCURVE",
"252 1367 OFFCURVE",
"252 1364 CURVE SMOOTH",
"283 491 LINE SMOOTH",
"286 415 OFFCURVE",
"335 375 OFFCURVE",
"383 375 CURVE SMOOTH",
"431 375 OFFCURVE",
"481 415 OFFCURVE",
"484 491 CURVE SMOOTH",
"516 1370 LINE",
"516 1445 OFFCURVE",
"453 1479 OFFCURVE",
"386 1479 CURVE SMOOTH"
);
},
{
closed = 1;
nodes = (
"297 216 OFFCURVE",
"249 161 OFFCURVE",
"249 109 CURVE SMOOTH",
"249 54 OFFCURVE",
"297 0 OFFCURVE",
"389 0 CURVE SMOOTH",
"480 0 OFFCURVE",
"528 54 OFFCURVE",
"528 109 CURVE SMOOTH",
"528 161 OFFCURVE",
"480 216 OFFCURVE",
"389 216 CURVE SMOOTH"
);
}
);
width = 785;
},
{
layerId = "F10CBA7B-FAF3-4DDE-A14D-E99DB7E222CB";
name = Light;
paths = (
{
closed = 1;
nodes = (
"384 358 CURVE SMOOTH",
"417 358 OFFCURVE",
"446 385 OFFCURVE",
"449 438 CURVE",
"477 1400 LINE",
"477 1455 OFFCURVE",
"434 1480 OFFCURVE",
"386 1480 CURVE SMOOTH",
"337 1480 OFFCURVE",
"293 1452 OFFCURVE",
"293 1400 CURVE",
"320 438 LINE SMOOTH",
"321 385 OFFCURVE",
"352 358 OFFCURVE"
);
},
{
closed = 1;
nodes = (
"392 0 CURVE SMOOTH",
"463 0 OFFCURVE",
"500 45 OFFCURVE",
"500 92 CURVE SMOOTH",
"500 136 OFFCURVE",
"463 181 OFFCURVE",
"392 181 CURVE SMOOTH",
"320 181 OFFCURVE",
"283 136 OFFCURVE",
"283 92 CURVE SMOOTH",
"283 45 OFFCURVE",
"320 0 OFFCURVE"
);
}
);
width = 793;
},
{
layerId = "FB5FCFFA-D9F2-48E1-8F42-8D172ED4E960";
name = Bold;
paths = (
{
closed = 1;
nodes = (
"386 394 CURVE SMOOTH",
"487 394 OFFCURVE",
"527 490 OFFCURVE",
"532 618 CURVE",
"565.148 1326.16 OFFCURVE",
"566 1332 OFFCURVE",
"566 1340 CURVE SMOOTH",
"566 1427 OFFCURVE",
"479 1479 OFFCURVE",
"385 1479 CURVE SMOOTH",
"291 1479 OFFCURVE",
"204 1427 OFFCURVE",
"204 1340 CURVE SMOOTH",
"204 1332 OFFCURVE",
"204.852 1326.16 OFFCURVE",
"238 618 CURVE",
"243 490 OFFCURVE",
"285 394 OFFCURVE"
);
},
{
closed = 1;
nodes = (
"386 0 CURVE SMOOTH",
"486 0 OFFCURVE",
"560 53 OFFCURVE",
"560 128 CURVE SMOOTH",
"560 197 OFFCURVE",
"487 255 OFFCURVE",
"386 255 CURVE SMOOTH",
"277 255 OFFCURVE",
"211 195 OFFCURVE",
"211 128 CURVE SMOOTH",
"211 56 OFFCURVE",
"280 0 OFFCURVE"
);
}
);
width = 776;
}
);
unicode = 0021;
},
{
glyphname = quotedbl;
lastChange = "2013-12-10 18:24:04 -0800";
layers = (
{
layerId = "EBB1D39D-5A31-45B3-B44F-04CD128BFFB4";
name = Regular;
paths = (
{
closed = 1;
nodes = (
"170 1478 OFFCURVE",
"118 1450 OFFCURVE",
"118 1396 CURVE SMOOTH",
"118 1393 OFFCURVE",
"119 1390 OFFCURVE",
"119 1387 CURVE SMOOTH",
"149 1042 LINE SMOOTH",
"153 989 OFFCURVE",
"187 962 OFFCURVE",
"219 962 CURVE SMOOTH",
"251 962 OFFCURVE",
"284 989 OFFCURVE",
"289 1042 CURVE SMOOTH",
"320 1396 LINE",
"320 1451 OFFCURVE",
"271 1478 OFFCURVE",
"220 1478 CURVE SMOOTH"
);
},
{
closed = 1;
nodes = (
"486 1478 OFFCURVE",
"435 1450 OFFCURVE",
"435 1396 CURVE SMOOTH",
"435 1393 OFFCURVE",
"436 1390 OFFCURVE",
"436 1387 CURVE SMOOTH",
"466 1042 LINE SMOOTH",
"471 989 OFFCURVE",
"503 962 OFFCURVE",
"535 962 CURVE SMOOTH",
"567 962 OFFCURVE",
"601 989 OFFCURVE",
"606 1042 CURVE SMOOTH",
"636 1396 LINE",
"636 1451 OFFCURVE",
"587 1478 OFFCURVE",
"537 1478 CURVE SMOOTH"
);
}
);
width = 762;
},
{
layerId = "F10CBA7B-FAF3-4DDE-A14D-E99DB7E222CB";
name = Light;
paths = (
{
closed = 1;
nodes = (
"179 994 CURVE SMOOTH",
"204 994 OFFCURVE",
"231 1016 OFFCURVE",
"234 1059 CURVE SMOOTH",
"261 1414 LINE",
"261 1458 OFFCURVE",
"221 1480 OFFCURVE",
"180 1480 CURVE SMOOTH",
"139 1480 OFFCURVE",
"98 1457 OFFCURVE",
"98 1414 CURVE SMOOTH",
"98 1408 LINE",
"125 1059 LINE SMOOTH",
"128 1016 OFFCURVE",
"154 994 OFFCURVE"
);
},
{
closed = 1;
nodes = (
"446 994 CURVE SMOOTH",
"471 994 OFFCURVE",
"498 1016 OFFCURVE",
"501 1059 CURVE SMOOTH",
"528 1414 LINE",
"528 1458 OFFCURVE",
"488 1480 OFFCURVE",
"447 1480 CURVE SMOOTH",
"406 1480 OFFCURVE",
"365 1457 OFFCURVE",
"365 1414 CURVE SMOOTH",
"365 1408 LINE",
"392 1059 LINE SMOOTH",
"395 1016 OFFCURVE",
"419 994 OFFCURVE"
);
}
);
width = 633;
},
{
layerId = "FB5FCFFA-D9F2-48E1-8F42-8D172ED4E960";
name = Bold;
paths = (
{
closed = 1;
nodes = (
"264 925 CURVE SMOOTH",
"313 925 OFFCURVE",
"346 965 OFFCURVE",
"354 1041 CURVE SMOOTH",
"383 1325 LINE",
"383 1332 OFFCURVE",
"384 1341 OFFCURVE",
"385 1348 CURVE SMOOTH",
"387 1370 LINE",
"387 1445 OFFCURVE",
"326 1476 OFFCURVE",
"265 1476 CURVE SMOOTH",
"198 1476 OFFCURVE",
"142 1437 OFFCURVE",
"142 1376 CURVE SMOOTH",
"142 1370 OFFCURVE",
"142 1366 OFFCURVE",
"143 1363 CURVE",
"176 1022 LINE SMOOTH",
"182 957 OFFCURVE",
"224 925 OFFCURVE"
);
},
{
closed = 1;
nodes = (
"637 925 CURVE SMOOTH",
"688 925 OFFCURVE",
"718 964 OFFCURVE",
"728 1041 CURVE",
"757 1325 LINE",
"757 1332 OFFCURVE",
"758 1341 OFFCURVE",
"758 1348 CURVE SMOOTH",
"760 1370 LINE",
"760 1442 OFFCURVE",
"699 1476 OFFCURVE",
"639 1476 CURVE SMOOTH",
"572 1476 OFFCURVE",
"516 1437 OFFCURVE",
"516 1376 CURVE SMOOTH",
"516 1370 OFFCURVE",
"516 1366 OFFCURVE",
"517 1363 CURVE",
"550 1022 LINE",
"557 957 OFFCURVE",
"597 925 OFFCURVE"
);
}
);
width = 908;
}
);
unicode = 0022;
},
{
glyphname = numbersign;
lastChange = "2013-12-10 18:24:04 -0800";
layers = (
{
layerId = "EBB1D39D-5A31-45B3-B44F-04CD128BFFB4";
name = Regular;
paths = (
{
closed = 1;
nodes = (
"880 1464 OFFCURVE",
"843 1441 OFFCURVE",
"836 1392 CURVE SMOOTH",
"781 1013 LINE",
"544 1013 LINE",
"597 1370 LINE SMOOTH",
"598 1375 OFFCURVE",
"598 1381 OFFCURVE",
"598 1386 CURVE SMOOTH",
"598 1437 OFFCURVE",
"558 1464 OFFCURVE",
"518 1464 CURVE SMOOTH",
"479 1464 OFFCURVE",
"442 1441 OFFCURVE",
"435 1392 CURVE SMOOTH",
"380 1013 LINE",
"236 1013 LINE SMOOTH",
"185 1013 OFFCURVE",
"159 975 OFFCURVE",
"159 936 CURVE SMOOTH",
"159 897 OFFCURVE",
"185 858 OFFCURVE",
"236 858 CURVE SMOOTH",
"358 858 LINE",
"321 600 LINE",
"179 600 LINE SMOOTH",
"128 600 OFFCURVE",
"102 562 OFFCURVE",
"102 523 CURVE SMOOTH",
"102 484 OFFCURVE",
"128 445 OFFCURVE",
"179 445 CURVE SMOOTH",
"299 445 LINE",
"242 52 LINE SMOOTH",
"241 49 OFFCURVE",
"241 44 OFFCURVE",
"241 39 CURVE SMOOTH",
"241 -13 OFFCURVE",
"282 -41 OFFCURVE",
"322 -41 CURVE SMOOTH",
"358 -41 OFFCURVE",
"395 -18 OFFCURVE",
"402 30 CURVE SMOOTH",
"463 445 LINE",
"700 445 LINE",
"644 52 LINE SMOOTH",
"643 49 OFFCURVE",
"643 44 OFFCURVE",
"643 37 CURVE SMOOTH",
"643 -14 OFFCURVE",
"683 -41 OFFCURVE",
"723 -41 CURVE SMOOTH",
"760 -41 OFFCURVE",
"796 -18 OFFCURVE",
"803 30 CURVE SMOOTH",
"864 445 LINE",
"993 445 LINE SMOOTH",
"1045 445 OFFCURVE",
"1070 483 OFFCURVE",
"1070 522 CURVE SMOOTH",
"1070 561 OFFCURVE",
"1044 600 OFFCURVE",
"993 600 CURVE SMOOTH",
"886 600 LINE",
"923 858 LINE",
"1050 858 LINE SMOOTH",
"1102 858 OFFCURVE",
"1127 896 OFFCURVE",
"1127 935 CURVE SMOOTH",
"1127 974 OFFCURVE",
"1101 1013 OFFCURVE",
"1050 1013 CURVE SMOOTH",
"945 1013 LINE",
"998 1370 LINE SMOOTH",
"999 1375 OFFCURVE",
"999 1381 OFFCURVE",
"999 1386 CURVE SMOOTH",
"999 1437 OFFCURVE",
"959 1464 OFFCURVE",
"919 1464 CURVE SMOOTH"
);
},
{
closed = 1;
nodes = (
"722 600 LINE",
"485 600 LINE",
"522 858 LINE",
"759 858 LINE"
);
}
);
width = 1230;
},
{
layerId = "F10CBA7B-FAF3-4DDE-A14D-E99DB7E222CB";
name = Light;
paths = (
{
closed = 1;
nodes = (
"286 -51 CURVE SMOOTH",
"316 -51 OFFCURVE",
"349 -31 OFFCURVE",
"355 10 CURVE SMOOTH",
"422 459 LINE",
"687 459 LINE",
"625 29 LINE SMOOTH",
"624 26 OFFCURVE",
"624 24 OFFCURVE",
"624 21 CURVE SMOOTH",
"624 15 LINE SMOOTH",
"624 -28 OFFCURVE",
"657 -51 OFFCURVE",
"690 -51 CURVE SMOOTH",
"721 -51 OFFCURVE",
"752 -31 OFFCURVE",
"759 10 CURVE",
"825 459 LINE",
"974 459 LINE SMOOTH",
"1018 459 OFFCURVE",
"1040 491 OFFCURVE",
"1040 523 CURVE SMOOTH",
"1040 556 OFFCURVE",
"1017 589 OFFCURVE",
"974 589 CURVE SMOOTH",
"845 589 LINE",
"885 863 LINE",
"1031 863 LINE SMOOTH",
"1075 863 OFFCURVE",
"1096 895 OFFCURVE",
"1096 928 CURVE SMOOTH",
"1096 961 OFFCURVE",
"1074 994 OFFCURVE",
"1031 994 CURVE SMOOTH",
"904 994 LINE",
"962 1381 LINE SMOOTH",
"963 1384 OFFCURVE",
"963 1386 OFFCURVE",
"963 1388 CURVE SMOOTH",
"963 1395 LINE SMOOTH",
"963 1438 OFFCURVE",
"931 1460 OFFCURVE",
"896 1460 CURVE SMOOTH",
"864 1460 OFFCURVE",
"831 1440 OFFCURVE",
"824 1399 CURVE",
"765 994 LINE",
"500 994 LINE",
"558 1381 LINE SMOOTH",
"559 1384 OFFCURVE",
"559 1386 OFFCURVE",
"559 1388 CURVE SMOOTH",
"559 1395 LINE SMOOTH",
"559 1438 OFFCURVE",
"527 1460 OFFCURVE",
"492 1460 CURVE SMOOTH",
"460 1460 OFFCURVE",
"427 1440 OFFCURVE",
"420 1399 CURVE",
"361 994 LINE",
"193 994 LINE SMOOTH",
"149 994 OFFCURVE",
"128 962 OFFCURVE",
"128 929 CURVE SMOOTH",
"128 896 OFFCURVE",
"150 863 OFFCURVE",
"193 863 CURVE SMOOTH",
"342 863 LINE",
"302 589 LINE",
"137 589 LINE SMOOTH",
"93 589 OFFCURVE",
"72 557 OFFCURVE",
"72 524 CURVE SMOOTH",
"72 492 OFFCURVE",
"94 459 OFFCURVE",
"137 459 CURVE SMOOTH",
"284 459 LINE",
"221 29 LINE SMOOTH",
"220 26 OFFCURVE",
"220 24 OFFCURVE",
"220 21 CURVE SMOOTH",
"220 15 LINE SMOOTH",
"220 -28 OFFCURVE",
"253 -51 OFFCURVE"
);
},
{
closed = 1;
nodes = (
"441 589 LINE",
"706 589 LINE",
"746 863 LINE",
"481 863 LINE"
);
}
);
width = 1169;
},
{
layerId = "FB5FCFFA-D9F2-48E1-8F42-8D172ED4E960";
name = Bold;
paths = (
{
closed = 1;
nodes = (
"354 -29 CURVE",
"430 -29 OFFCURVE",
"450 22 OFFCURVE",
"461 90 CURVE",
"509 429 LINE",
"715 429 LINE",
"673 129 LINE",
"670 118 OFFCURVE",
"670 109 OFFCURVE",
"669 100 CURVE SMOOTH",
"665 72 LINE",
"665 8 OFFCURVE",
"707 -29 OFFCURVE",
"762 -29 CURVE SMOOTH",
"826 -29 OFFCURVE",
"849 21 OFFCURVE",
"857 77 CURVE SMOOTH",
"908 429 LINE",
"988 429 LINE SMOOTH",
"1063 429 OFFCURVE",
"1104 456 OFFCURVE",
"1104 520 CURVE SMOOTH",
"1104 593 OFFCURVE",
"1045 612 OFFCURVE",
"988 612 CURVE SMOOTH",
"933 612 LINE",
"967 852 LINE",
"1046 852 LINE SMOOTH",
"1121 852 OFFCURVE",
"1162 879 OFFCURVE",
"1162 943 CURVE SMOOTH",
"1162 1014 OFFCURVE",
"1104 1035 OFFCURVE",
"1046 1035 CURVE SMOOTH",
"992 1035 LINE",
"1036 1333 LINE",
"1037 1346 OFFCURVE",
"1040 1361 OFFCURVE",
"1040 1376 CURVE SMOOTH",
"1040 1431 OFFCURVE",
"1000 1464 OFFCURVE",
"953 1468 CURVE",
"889 1468 OFFCURVE",
"857 1438 OFFCURVE",
"846 1359 CURVE SMOOTH",
"799 1035 LINE",
"594 1035 LINE",
"609 1127 OFFCURVE",
"620 1216 OFFCURVE",
"633 1308 CURVE SMOOTH",
"634 1317 OFFCURVE",
"637 1326 OFFCURVE",
"638 1337 CURVE SMOOTH",
"641 1372 LINE",
"641 1432 OFFCURVE",
"602 1464 OFFCURVE",
"555 1468 CURVE",
"484 1468 OFFCURVE",
"457 1424 OFFCURVE",
"448 1359 CURVE SMOOTH",
"402 1035 LINE",
"309 1035 LINE SMOOTH",
"233 1035 OFFCURVE",
"195 1003 OFFCURVE",
"195 944 CURVE SMOOTH",
"195 870 OFFCURVE",
"253 852 OFFCURVE",
"309 852 CURVE SMOOTH",
"376 852 LINE",
"342 612 LINE",
"239 612 LINE SMOOTH",
"175 612 OFFCURVE",
"141 580 OFFCURVE",
"138 529 CURVE",
"138 450 OFFCURVE",
"187 429 OFFCURVE",
"251 429 CURVE SMOOTH",
"317 429 LINE",
"274 129 LINE",
"271 118 OFFCURVE",
"271 109 OFFCURVE",
"270 100 CURVE SMOOTH",
"266 73 LINE",
"266 13 OFFCURVE",
"303 -26 OFFCURVE"
);
},
{
closed = 1;
nodes = (
"535 612 LINE",
"740 612 LINE",
"774 852 LINE",
"568 852 LINE"
);
}
);
width = 1299;
}
);
unicode = 0023;
},
{
glyphname = dollar;
lastChange = "2013-12-10 18:24:04 -0800";
layers = (
{
layerId = "EBB1D39D-5A31-45B3-B44F-04CD128BFFB4";
name = Regular;
paths = (
{
closed = 1;
nodes = (
"591 1572 OFFCURVE",
"561 1551 OFFCURVE",
"561 1511 CURVE SMOOTH",
"561 1434 LINE",
"286 1413 OFFCURVE",
"86 1265 OFFCURVE",
"86 1037 CURVE SMOOTH",
"86 831 OFFCURVE",
"214 729 OFFCURVE",
"402 664 CURVE SMOOTH",
"644 580 OFFCURVE",
"916 553 OFFCURVE",
"916 361 CURVE SMOOTH",
"916 223 OFFCURVE",
"769 155 OFFCURVE",
"615 155 CURVE SMOOTH",
"438 155 OFFCURVE",
"334 189 OFFCURVE",
"231 223 CURVE SMOOTH",
"219 227 OFFCURVE",
"208 229 OFFCURVE",
"198 229 CURVE SMOOTH",
"146 229 OFFCURVE",
"110 183 OFFCURVE",
"110 134 CURVE SMOOTH",
"110 97 OFFCURVE",
"132 58 OFFCURVE",
"183 39 CURVE SMOOTH",
"273 5 OFFCURVE",
"418 -35 OFFCURVE",
"561 -40 CURVE",
"561 -132 LINE SMOOTH",
"561 -173 OFFCURVE",
"589 -192 OFFCURVE",
"620 -192 CURVE SMOOTH",
"651 -192 OFFCURVE",
"682 -171 OFFCURVE",
"682 -132 CURVE SMOOTH",
"682 -39 LINE",
"969 -18 OFFCURVE",
"1182 139 OFFCURVE",
"1182 387 CURVE SMOOTH",
"1182 716 OFFCURVE",
"822 755 OFFCURVE",
"550 852 CURVE SMOOTH",
"440 891 OFFCURVE",
"347 948 OFFCURVE",
"347 1062 CURVE SMOOTH",
"347 1187 OFFCURVE",
"500 1241 OFFCURVE",
"634 1241 CURVE SMOOTH",
"744 1241 OFFCURVE",
"888 1214 OFFCURVE",
"977 1192 CURVE SMOOTH",
"988 1189 OFFCURVE",
"998 1187 OFFCURVE",
"1007 1187 CURVE SMOOTH",
"1067 1187 OFFCURVE",
"1101 1225 OFFCURVE",
"1101 1275 CURVE SMOOTH",
"1101 1313 OFFCURVE",
"1078 1354 OFFCURVE",
"1026 1373 CURVE SMOOTH",
"929 1408 OFFCURVE",
"796 1429 OFFCURVE",
"682 1434 CURVE",
"682 1511 LINE SMOOTH",
"682 1552 OFFCURVE",
"653 1572 OFFCURVE",
"622 1572 CURVE SMOOTH"
);
}
);
width = 1319;
},
{
layerId = "F10CBA7B-FAF3-4DDE-A14D-E99DB7E222CB";
name = Light;
paths = (
{
closed = 1;
nodes = (
"582 -231 CURVE SMOOTH",
"610 -231 OFFCURVE",
"639 -212 OFFCURVE",
"639 -176 CURVE SMOOTH",
"639 -40 LINE",
"891 -19 OFFCURVE",
"1109 122 OFFCURVE",
"1109 359 CURVE SMOOTH",
"1109 849 OFFCURVE",
"273 674 OFFCURVE",
"273 1057 CURVE SMOOTH",
"273 1205 OFFCURVE",
"451 1269 OFFCURVE",
"598 1269 CURVE SMOOTH",
"700 1269 OFFCURVE",
"831 1244 OFFCURVE",
"936 1220 CURVE",
"944 1217 OFFCURVE",
"952 1216 OFFCURVE",
"961 1216 CURVE SMOOTH",
"1000 1216 OFFCURVE",
"1024 1247 OFFCURVE",
"1024 1280 CURVE SMOOTH",
"1024 1309 OFFCURVE",
"1007 1339 OFFCURVE",
"968 1351 CURVE",
"871 1388 OFFCURVE",
"748 1406 OFFCURVE",
"639 1411 CURVE",
"639 1535 LINE SMOOTH",
"639 1572 OFFCURVE",
"612 1590 OFFCURVE",
"585 1590 CURVE SMOOTH",
"557 1590 OFFCURVE",
"530 1571 OFFCURVE",
"530 1535 CURVE SMOOTH",
"530 1411 LINE",
"294 1392 OFFCURVE",
"91 1259 OFFCURVE",
"91 1037 CURVE SMOOTH",
"91 693 OFFCURVE",
"456 678 OFFCURVE",
"732 565 CURVE SMOOTH",
"842 520 OFFCURVE",
"924 456 OFFCURVE",
"924 342 CURVE SMOOTH",
"924 182 OFFCURVE",
"753 99 OFFCURVE",
"580 99 CURVE SMOOTH",
"393 99 OFFCURVE",
"316 130 OFFCURVE",
"208 162 CURVE SMOOTH",
"200 165 OFFCURVE",
"192 166 OFFCURVE",
"183 166 CURVE SMOOTH",
"144 166 OFFCURVE",
"121 136 OFFCURVE",
"121 101 CURVE SMOOTH",
"121 73 OFFCURVE",
"138 44 OFFCURVE",
"179 29 CURVE SMOOTH",
"261 0 OFFCURVE",
"397 -38 OFFCURVE",
"530 -41 CURVE",
"530 -176 LINE SMOOTH",
"530 -215 OFFCURVE",
"555 -231 OFFCURVE"
);
}
);
width = 1274;
},
{
layerId = "FB5FCFFA-D9F2-48E1-8F42-8D172ED4E960";
name = Bold;
paths = (
{
closed = 1;
nodes = (
"663 -211 CURVE SMOOTH",
"718 -211 OFFCURVE",
"731 -165 OFFCURVE",
"731 -122 CURVE SMOOTH",
"731 -38 LINE",
"1055 -17 OFFCURVE",
"1263 152 OFFCURVE",
"1263 418 CURVE SMOOTH",
"1263 681 OFFCURVE",
"1065 760 OFFCURVE",
"791 845 CURVE",
"690 873 LINE SMOOTH",
"564 908 OFFCURVE",
"431 951 OFFCURVE",
"431 1068 CURVE SMOOTH",
"431 1166 OFFCURVE",
"557 1209 OFFCURVE",
"675 1209 CURVE SMOOTH",
"706 1209 OFFCURVE",
"737 1206 OFFCURVE",
"769 1203 CURVE SMOOTH",
"921 1187 OFFCURVE",
"974 1170 OFFCURVE",
"1049 1157 CURVE SMOOTH",
"1056 1156 OFFCURVE",
"1063 1156 OFFCURVE",
"1070 1156 CURVE SMOOTH",
"1141 1156 OFFCURVE",
"1188 1204 OFFCURVE",
"1188 1265 CURVE SMOOTH",
"1188 1417 OFFCURVE",
"939 1450 OFFCURVE",
"731 1461 CURVE",
"731 1547 LINE SMOOTH",
"731 1590 OFFCURVE",
"699 1614 OFFCURVE",
"664 1614 CURVE SMOOTH",
"625 1614 OFFCURVE",
"597 1588 OFFCURVE",
"597 1536 CURVE SMOOTH",
"597 1460 LINE",
"269 1436 OFFCURVE",
"81 1265 OFFCURVE",
"81 1037 CURVE SMOOTH",
"81 853 OFFCURVE",
"172 736 OFFCURVE",
"351 673 CURVE SMOOTH",
"376 664 OFFCURVE",
"420 647 OFFCURVE",
"467 633 CURVE SMOOTH",
"552 608 LINE",
"695 566 LINE",
"811 528 OFFCURVE",
"907 486 OFFCURVE",
"907 382 CURVE SMOOTH",
"907 265 OFFCURVE",
"774 219 OFFCURVE",
"656 219 CURVE SMOOTH",
"536 219 OFFCURVE",
"429 239 OFFCURVE",
"345 264 CURVE SMOOTH",
"294 279 OFFCURVE",
"255 298 OFFCURVE",
"215 298 CURVE SMOOTH",
"143 298 OFFCURVE",
"97 235 OFFCURVE",
"97 172 CURVE SMOOTH",
"97 152 OFFCURVE",
"102 133 OFFCURVE",
"113 113 CURVE SMOOTH",
"151 39 OFFCURVE",
"382 -31 OFFCURVE",
"597 -39 CURVE",
"597 -144 LINE SMOOTH",
"597 -189 OFFCURVE",
"628 -211 OFFCURVE"
);
}
);
width = 1371;
}
);
unicode = 0024;
},
{
glyphname = percent;
lastChange = "2013-12-10 18:24:04 -0800";
layers = (
{
layerId = "EBB1D39D-5A31-45B3-B44F-04CD128BFFB4";
name = Regular;
paths = (
{
closed = 1;
nodes = (
"1383 1458 OFFCURVE",
"1360 1447 OFFCURVE",
"1343 1416 CURVE SMOOTH",
"568 27 LINE",
"561 16 OFFCURVE",
"560 6 OFFCURVE",
"560 -3 CURVE SMOOTH",
"560 -39 OFFCURVE",
"594 -67 OFFCURVE",
"629 -67 CURVE SMOOTH",
"649 -67 OFFCURVE",
"669 -57 OFFCURVE",
"684 -33 CURVE",
"1459 1356 LINE SMOOTH",
"1466 1369 OFFCURVE",
"1469 1381 OFFCURVE",
"1469 1393 CURVE SMOOTH",
"1469 1430 OFFCURVE",
"1439 1458 OFFCURVE",
"1406 1458 CURVE SMOOTH"
);
},
{
closed = 1;
nodes = (
"664 1294 OFFCURVE",
"710 1178 OFFCURVE",
"710 1022 CURVE SMOOTH",
"710 866 OFFCURVE",
"664 750 OFFCURVE",
"538 750 CURVE SMOOTH",
"413 750 OFFCURVE",
"367 866 OFFCURVE",
"367 1022 CURVE SMOOTH",
"367 1178 OFFCURVE",
"413 1294 OFFCURVE",
"538 1294 CURVE SMOOTH"
);
},
{
closed = 1;
nodes = (
"322 1428 OFFCURVE",
"184 1254 OFFCURVE",
"184 1022 CURVE SMOOTH",
"184 780 OFFCURVE",
"314 616 OFFCURVE",
"538 616 CURVE SMOOTH",
"756 616 OFFCURVE",
"893 790 OFFCURVE",
"893 1022 CURVE SMOOTH",
"893 1212 OFFCURVE",
"800 1428 OFFCURVE",
"538 1428 CURVE SMOOTH"
);
},
{
closed = 1;
nodes = (
"1328 780 OFFCURVE",
"1190 606 OFFCURVE",
"1190 374 CURVE SMOOTH",
"1190 131 OFFCURVE",
"1320 -33 OFFCURVE",
"1544 -33 CURVE SMOOTH",
"1763 -33 OFFCURVE",
"1898 142 OFFCURVE",
"1898 374 CURVE SMOOTH",
"1898 564 OFFCURVE",
"1807 780 OFFCURVE",
"1544 780 CURVE SMOOTH"
);
},
{
closed = 1;
nodes = (
"1669 646 OFFCURVE",
"1715 530 OFFCURVE",
"1715 374 CURVE SMOOTH",
"1715 218 OFFCURVE",
"1669 102 OFFCURVE",
"1544 102 CURVE SMOOTH",
"1418 102 OFFCURVE",
"1373 218 OFFCURVE",
"1373 374 CURVE SMOOTH",
"1373 530 OFFCURVE",
"1418 646 OFFCURVE",
"1544 646 CURVE SMOOTH"
);
}
);
width = 2083;
},
{
layerId = "F10CBA7B-FAF3-4DDE-A14D-E99DB7E222CB";
name = Light;
paths = (
{
closed = 1;
nodes = (
"601 -71 CURVE SMOOTH",
"620 -71 OFFCURVE",
"637 -63 OFFCURVE",
"649 -42 CURVE SMOOTH",
"1440 1347 LINE SMOOTH",
"1446 1358 OFFCURVE",
"1449 1369 OFFCURVE",
"1449 1380 CURVE SMOOTH",
"1449 1412 OFFCURVE",
"1424 1437 OFFCURVE",
"1395 1437 CURVE SMOOTH",
"1376 1437 OFFCURVE",
"1354 1426 OFFCURVE",
"1339 1399 CURVE SMOOTH",
"549 9 LINE SMOOTH",
"544 0 OFFCURVE",
"541 -9 OFFCURVE",
"541 -17 CURVE SMOOTH",
"541 -48 OFFCURVE",
"570 -71 OFFCURVE"
);
},
{
closed = 1;
nodes = (
"557 740 CURVE SMOOTH",
"410 740 OFFCURVE",
"358 883 OFFCURVE",
"358 1020 CURVE SMOOTH",
"358 1156 OFFCURVE",
"410 1299 OFFCURVE",
"557 1299 CURVE SMOOTH",
"705 1299 OFFCURVE",
"757 1156 OFFCURVE",
"757 1020 CURVE SMOOTH",
"757 883 OFFCURVE",
"705 740 OFFCURVE"
);
},
{
closed = 1;
nodes = (
"557 637 CURVE SMOOTH",
"768 637 OFFCURVE",
"893 812 OFFCURVE",
"893 1020 CURVE SMOOTH",
"893 1213 OFFCURVE",
"784 1403 OFFCURVE",
"557 1403 CURVE SMOOTH",
"346 1403 OFFCURVE",
"223 1228 OFFCURVE",
"223 1020 CURVE SMOOTH",
"223 808 OFFCURVE",
"345 637 OFFCURVE"
);
},
{
closed = 1;
nodes = (
"1502 73 CURVE SMOOTH",
"1353 73 OFFCURVE",
"1303 216 OFFCURVE",
"1303 353 CURVE SMOOTH",
"1303 489 OFFCURVE",
"1353 632 OFFCURVE",
"1502 632 CURVE SMOOTH",
"1650 632 OFFCURVE",
"1701 489 OFFCURVE",
"1701 353 CURVE SMOOTH",
"1701 216 OFFCURVE",
"1650 73 OFFCURVE"
);
},
{
closed = 1;
nodes = (
"1502 -31 CURVE SMOOTH",
"1714 -31 OFFCURVE",
"1837 146 OFFCURVE",
"1837 353 CURVE SMOOTH",
"1837 546 OFFCURVE",
"1729 735 OFFCURVE",
"1502 735 CURVE SMOOTH",
"1292 735 OFFCURVE",
"1167 560 OFFCURVE",
"1167 353 CURVE SMOOTH",
"1167 143 OFFCURVE",
"1289 -31 OFFCURVE"
);
}
);
width = 2060;
},
{
layerId = "FB5FCFFA-D9F2-48E1-8F42-8D172ED4E960";
name = Bold;
paths = (
{
closed = 1;
nodes = (
"661 -62 CURVE SMOOTH",
"701 -62 OFFCURVE",
"728 -13 OFFCURVE",
"752 30 CURVE SMOOTH",
"1453 1313 LINE",
"1469 1345 OFFCURVE",
"1490 1381 OFFCURVE",
"1490 1409 CURVE SMOOTH",
"1490 1448 OFFCURVE",
"1455 1482 OFFCURVE",
"1417 1482 CURVE SMOOTH",
"1390 1482 OFFCURVE",
"1366 1469 OFFCURVE",
"1348 1436 CURVE SMOOTH",
"619 100 LINE",
"603 73 OFFCURVE",
"582 33 OFFCURVE",
"582 13 CURVE SMOOTH",
"582 -27 OFFCURVE",
"618 -62 OFFCURVE"
);
},
{
closed = 1;
nodes = (
"516 761 CURVE SMOOTH",
"415 761 OFFCURVE",
"377 846 OFFCURVE",
"377 1025 CURVE SMOOTH",
"377 1204 OFFCURVE",
"419 1288 OFFCURVE",
"516 1288 CURVE SMOOTH",
"616 1288 OFFCURVE",
"656 1204 OFFCURVE",
"656 1025 CURVE SMOOTH",
"656 845 OFFCURVE",
"616 761 OFFCURVE"
);
},
{
closed = 1;
nodes = (
"516 592 CURVE SMOOTH",
"740 592 OFFCURVE",
"893 764 OFFCURVE",
"893 1025 CURVE SMOOTH",
"893 1212 OFFCURVE",
"817 1457 OFFCURVE",
"516 1457 CURVE SMOOTH",
"285 1457 OFFCURVE",
"140 1278 OFFCURVE",
"140 1025 CURVE SMOOTH",
"140 741 OFFCURVE",
"283 592 OFFCURVE"
);
},
{
closed = 1;
nodes = (
"1592 135 CURVE SMOOTH",
"1489 135 OFFCURVE",
"1453 221 OFFCURVE",
"1453 398 CURVE SMOOTH",
"1453 577 OFFCURVE",
"1492 662 OFFCURVE",
"1592 662 CURVE SMOOTH",
"1695 662 OFFCURVE",
"1731 570 OFFCURVE",
"1731 398 CURVE SMOOTH",
"1731 210 OFFCURVE",
"1684 135 OFFCURVE"
);
},
{
closed = 1;
nodes = (
"1592 -35 CURVE SMOOTH",
"1824 -35 OFFCURVE",
"1968 145 OFFCURVE",
"1968 398 CURVE SMOOTH",
"1968 582 OFFCURVE",
"1895 831 OFFCURVE",
"1592 831 CURVE SMOOTH",
"1361 831 OFFCURVE",
"1216 653 OFFCURVE",
"1216 398 CURVE SMOOTH",
"1216 115 OFFCURVE",
"1358 -35 OFFCURVE"
);
}
);
width = 2109;
}
);
unicode = 0025;
},
{
glyphname = ampersand;
lastChange = "2013-12-10 18:24:04 -0800";
layers = (
{
layerId = "EBB1D39D-5A31-45B3-B44F-04CD128BFFB4";
name = Regular;
paths = (
{
closed = 1;
nodes = (
"454 1510 OFFCURVE",
"252 1415 OFFCURVE",
"252 1213 CURVE SMOOTH",
"252 1071 OFFCURVE",
"353 954 OFFCURVE",
"460 850 CURVE",
"261 739 OFFCURVE",
"89 618 OFFCURVE",
"89 407 CURVE SMOOTH",
"89 123 OFFCURVE",
"360 -25 OFFCURVE",
"665 -25 CURVE SMOOTH",
"860 -25 OFFCURVE",
"1011 44 OFFCURVE",
"1126 164 CURVE",
"1261 17 LINE",
"1284 -10 OFFCURVE",
"1313 -18 OFFCURVE",
"1338 -18 CURVE SMOOTH",
"1397 -18 OFFCURVE",
"1451 36 OFFCURVE",
"1451 95 CURVE SMOOTH",
"1451 119 OFFCURVE",
"1442 144 OFFCURVE",
"1421 167 CURVE SMOOTH",
"1289 309 LINE",
"1385 459 OFFCURVE",
"1421 665 OFFCURVE",
"1439 792 CURVE",
"1442 802 OFFCURVE",
"1443 812 OFFCURVE",
"1443 822 CURVE SMOOTH",
"1443 882 OFFCURVE",
"1390 915 OFFCURVE",
"1338 915 CURVE SMOOTH",
"1299 915 OFFCURVE",
"1265 897 OFFCURVE",
"1254 854 CURVE",
"1243 726 OFFCURVE",
"1205 566 OFFCURVE",
"1144 451 CURVE",
"785 830 LINE",
"937 937 OFFCURVE",
"1062 1062 OFFCURVE",
"1062 1224 CURVE SMOOTH",
"1062 1420 OFFCURVE",
"855 1510 OFFCURVE",
"655 1510 CURVE SMOOTH"
);
},
{
closed = 1;
nodes = (
"998 293 LINE",
"899 202 OFFCURVE",
"799 145 OFFCURVE",
"663 145 CURVE SMOOTH",
"492 145 OFFCURVE",
"337 245 OFFCURVE",
"337 424 CURVE SMOOTH",
"337 531 OFFCURVE",
"501 661 OFFCURVE",
"601 714 CURVE"
);
},
{
closed = 1;
nodes = (
"745 1346 OFFCURVE",
"828 1304 OFFCURVE",
"828 1213 CURVE SMOOTH",
"828 1111 OFFCURVE",
"728 1031 OFFCURVE",
"643 956 CURVE",
"568 1025 OFFCURVE",
"490 1127 OFFCURVE",
"490 1213 CURVE SMOOTH",
"490 1308 OFFCURVE",
"574 1346 OFFCURVE",
"661 1346 CURVE SMOOTH"
);
}
);
width = 1581;
},
{
layerId = "F10CBA7B-FAF3-4DDE-A14D-E99DB7E222CB";
name = Light;
paths = (
{
closed = 1;
nodes = (
"656 -29 CURVE SMOOTH",
"848 -29 OFFCURVE",
"990 49 OFFCURVE",
"1111 186 CURVE",
"1260 22 LINE",
"1278 1 OFFCURVE",
"1299 -6 OFFCURVE",
"1319 -6 CURVE SMOOTH",
"1363 -6 OFFCURVE",
"1403 35 OFFCURVE",
"1403 80 CURVE SMOOTH",
"1403 99 OFFCURVE",
"1397 117 OFFCURVE",
"1382 134 CURVE SMOOTH",
"1223 306 LINE",
"1330 486 OFFCURVE",
"1353 720 OFFCURVE",
"1367 861 CURVE",
"1368 863 OFFCURVE",
"1368 865 OFFCURVE",
"1368 867 CURVE SMOOTH",
"1368 874 LINE SMOOTH",
"1368 921 OFFCURVE",
"1327 948 OFFCURVE",
"1288 948 CURVE SMOOTH",
"1253 948 OFFCURVE",
"1219 928 OFFCURVE",
"1215 881 CURVE",
"1212 733 OFFCURVE",
"1176 546 OFFCURVE",
"1115 415 CURVE",
"707 849 LINE",
"844 951 OFFCURVE",
"979 1067 OFFCURVE",
"979 1239 CURVE SMOOTH",
"979 1426 OFFCURVE",
"797 1509 OFFCURVE",
"624 1509 CURVE SMOOTH",
"449 1509 OFFCURVE",
"274 1420 OFFCURVE",
"274 1232 CURVE SMOOTH",
"274 1088 OFFCURVE",
"377 969 OFFCURVE",
"473 865 CURVE",
"297 745 OFFCURVE",
"104 634 OFFCURVE",
"104 406 CURVE SMOOTH",
"104 131 OFFCURVE",
"355 -29 OFFCURVE"
);
},
{
closed = 1;
nodes = (
"647 110 CURVE SMOOTH",
"458 110 OFFCURVE",
"282 228 OFFCURVE",
"282 431 CURVE SMOOTH",
"282 553 OFFCURVE",
"478 697 OFFCURVE",
"576 758 CURVE",
"1017 286 LINE",
"911 177 OFFCURVE",
"802 110 OFFCURVE"
);
},
{
closed = 1;
nodes = (
"606 948 CURVE",
"536 1021 OFFCURVE",
"449 1131 OFFCURVE",
"449 1230 CURVE SMOOTH",
"449 1333 OFFCURVE",
"537 1373 OFFCURVE",
"630 1373 CURVE SMOOTH",
"718 1373 OFFCURVE",
"806 1327 OFFCURVE",
"806 1230 CURVE SMOOTH",
"806 1110 OFFCURVE",
"691 1027 OFFCURVE"
);
}
);
width = 1513;
},
{
layerId = "FB5FCFFA-D9F2-48E1-8F42-8D172ED4E960";
name = Bold;
paths = (
{
closed = 1;
nodes = (
"1369 -28 CURVE SMOOTH",
"1438 -28 OFFCURVE",
"1501 33 OFFCURVE",
"1501 102 CURVE SMOOTH",
"1501 155 OFFCURVE",
"1455 217 OFFCURVE",
"1409 266 CURVE SMOOTH",
"1365 312 LINE",
"1456 435 OFFCURVE",
"1526 645 OFFCURVE",
"1526 757 CURVE SMOOTH",
"1526 839 OFFCURVE",
"1465 878 OFFCURVE",
"1396 878 CURVE SMOOTH",
"1384 878 OFFCURVE",
"1372 877 OFFCURVE",
"1361 873 CURVE SMOOTH",
"1318 857 OFFCURVE",
"1280 668 OFFCURVE",
"1232 581 CURVE",
"1201 570 OFFCURVE",
"1168 555 OFFCURVE",
"1127 546 CURVE",
"1043 634 OFFCURVE",
"959 720 OFFCURVE",
"874 808 CURVE",
"1036 917 OFFCURVE",
"1154 1049 OFFCURVE",
"1154 1191 CURVE SMOOTH",
"1154 1415 OFFCURVE",
"911 1511 OFFCURVE",
"691 1511 CURVE SMOOTH",
"447 1511 OFFCURVE",
"229 1400 OFFCURVE",
"229 1182 CURVE SMOOTH",
"229 1052 OFFCURVE",
"329 929 OFFCURVE",
"446 833 CURVE",
"222 732 OFFCURVE",
"72 601 OFFCURVE",
"72 408 CURVE SMOOTH",
"72 107 OFFCURVE",
"376 -21 OFFCURVE",
"676 -21 CURVE SMOOTH",
"869 -21 OFFCURVE",
"1033 39 OFFCURVE",
"1142 139 CURVE",
"1216 62 LINE SMOOTH",
"1265 11 OFFCURVE",
"1325 -28 OFFCURVE"
);
},
{
closed = 1;
nodes = (
"681 185 CURVE SMOOTH",
"528 185 OFFCURVE",
"401 267 OFFCURVE",
"401 416 CURVE SMOOTH",
"401 506 OFFCURVE",
"525 616 OFFCURVE",
"629 664 CURVE",
"977 300 LINE",
"886 228 OFFCURVE",
"794 185 OFFCURVE"
);
},
{
closed = 1;
nodes = (
"684 965 CURVE",
"614 1024 OFFCURVE",
"537 1113 OFFCURVE",
"537 1193 CURVE SMOOTH",
"537 1281 OFFCURVE",
"619 1315 OFFCURVE",
"697 1315 CURVE SMOOTH",
"776 1315 OFFCURVE",
"853 1276 OFFCURVE",
"853 1193 CURVE SMOOTH",
"853 1109 OFFCURVE",
"769 1034 OFFCURVE"
);
}
);
width = 1659;
}
);
unicode = 0026;
},
{
glyphname = parenleft;
lastChange = "2013-12-10 18:24:04 -0800";
layers = (
{
layerId = "EBB1D39D-5A31-45B3-B44F-04CD128BFFB4";
name = Regular;
paths = (
{
closed = 1;
nodes = (
"405 1493 OFFCURVE",
"370 1473 OFFCURVE",
"351 1426 CURVE SMOOTH",
"242 1157 OFFCURVE",
"152 891 OFFCURVE",
"152 618 CURVE SMOOTH",
"152 353 OFFCURVE",
"238 88 OFFCURVE",
"350 -173 CURVE SMOOTH",
"370 -220 OFFCURVE",
"405 -240 OFFCURVE",
"440 -240 CURVE SMOOTH",
"488 -240 OFFCURVE",
"533 -203 OFFCURVE",
"533 -149 CURVE SMOOTH",
"533 -136 OFFCURVE",
"530 -124 OFFCURVE",
"526 -111 CURVE",
"436 136 OFFCURVE",
"386 384 OFFCURVE",
"386 620 CURVE SMOOTH",
"386 864 OFFCURVE",
"439 1115 OFFCURVE",
"528 1363 CURVE SMOOTH",
"533 1376 OFFCURVE",
"535 1389 OFFCURVE",
"535 1402 CURVE SMOOTH",
"535 1456 OFFCURVE",
"489 1493 OFFCURVE",
"441 1493 CURVE SMOOTH"
);
}
);
width = 637;
},
{
layerId = "F10CBA7B-FAF3-4DDE-A14D-E99DB7E222CB";
name = Light;
paths = (
{
closed = 1;
nodes = (
"424 -220 CURVE SMOOTH",
"456 -220 OFFCURVE",
"486 -196 OFFCURVE",
"486 -161 CURVE SMOOTH",
"486 -150 OFFCURVE",
"484 -141 OFFCURVE",
"481 -134 CURVE SMOOTH",
"385 126 OFFCURVE",
"328 386 OFFCURVE",
"328 634 CURVE SMOOTH",
"328 883 OFFCURVE",
"386 1146 OFFCURVE",
"482 1406 CURVE SMOOTH",
"486 1415 OFFCURVE",
"487 1424 OFFCURVE",
"487 1432 CURVE SMOOTH",
"487 1468 OFFCURVE",
"456 1493 OFFCURVE",
"424 1493 CURVE SMOOTH",
"400 1493 OFFCURVE",
"375 1479 OFFCURVE",
"362 1447 CURVE SMOOTH",
"253 1185 OFFCURVE",
"155 911 OFFCURVE",
"155 633 CURVE SMOOTH",
"155 356 OFFCURVE",
"252 85 OFFCURVE",
"362 -174 CURVE",
"377 -207 OFFCURVE",
"400 -220 OFFCURVE"
);
}
);
width = 592;
},
{
layerId = "FB5FCFFA-D9F2-48E1-8F42-8D172ED4E960";
name = Bold;
paths = (
{
closed = 1;
nodes = (
"464 -259 CURVE SMOOTH",
"532 -259 OFFCURVE",
"583 -209 OFFCURVE",
"583 -134 CURVE SMOOTH",
"583 -106 OFFCURVE",
"572 -75 OFFCURVE",
"562 -42 CURVE",
"490 178 OFFCURVE",
"452 389 OFFCURVE",
"452 604 CURVE SMOOTH",
"452 828 OFFCURVE",
"493 1050 OFFCURVE",
"567 1274 CURVE SMOOTH",
"577 1305 OFFCURVE",
"587 1337 OFFCURVE",
"587 1365 CURVE SMOOTH",
"587 1442 OFFCURVE",
"533 1490 OFFCURVE",
"466 1490 CURVE SMOOTH",
"396 1490 OFFCURVE",
"340 1417 OFFCURVE",
"306 1322 CURVE",
"213 1077 OFFCURVE",
"149 841 OFFCURVE",
"149 601 CURVE SMOOTH",
"149 344 OFFCURVE",
"223 93 OFFCURVE",
"336 -172 CURVE",
"362 -238 OFFCURVE",
"419 -259 OFFCURVE"
);
}
);
width = 689;
}
);
unicode = 0028;
},
{
glyphname = parenright;
lastChange = "2013-12-10 18:24:04 -0800";
layers = (
{
layerId = "EBB1D39D-5A31-45B3-B44F-04CD128BFFB4";
name = Regular;
paths = (
{
closed = 1;
nodes = (
"154 1493 OFFCURVE",
"107 1454 OFFCURVE",
"107 1401 CURVE SMOOTH",
"107 1387 OFFCURVE",
"109 1375 OFFCURVE",
"114 1363 CURVE SMOOTH",
"203 1114 OFFCURVE",
"256 861 OFFCURVE",
"256 621 CURVE SMOOTH",
"256 381 OFFCURVE",
"204 134 OFFCURVE",
"116 -111 CURVE SMOOTH",
"111 -124 OFFCURVE",
"109 -137 OFFCURVE",
"109 -150 CURVE SMOOTH",
"109 -203 OFFCURVE",
"154 -240 OFFCURVE",
"201 -240 CURVE SMOOTH",
"236 -240 OFFCURVE",
"272 -220 OFFCURVE",
"292 -173 CURVE SMOOTH",
"403 87 OFFCURVE",
"490 351 OFFCURVE",
"490 618 CURVE SMOOTH",
"490 889 OFFCURVE",
"400 1158 OFFCURVE",
"291 1426 CURVE SMOOTH",
"272 1473 OFFCURVE",
"238 1493 OFFCURVE",
"202 1493 CURVE SMOOTH"
);
}
);
width = 637;
},
{
layerId = "F10CBA7B-FAF3-4DDE-A14D-E99DB7E222CB";
name = Light;
paths = (
{
closed = 1;
nodes = (
"169 -220 CURVE SMOOTH",
"193 -220 OFFCURVE",
"217 -207 OFFCURVE",
"232 -174 CURVE",
"342 85 OFFCURVE",
"439 356 OFFCURVE",
"439 633 CURVE SMOOTH",
"439 911 OFFCURVE",
"341 1185 OFFCURVE",
"232 1447 CURVE",
"217 1479 OFFCURVE",
"194 1492 OFFCURVE",
"170 1492 CURVE SMOOTH",
"138 1492 OFFCURVE",
"106 1467 OFFCURVE",
"106 1432 CURVE SMOOTH",
"106 1423 OFFCURVE",
"108 1415 OFFCURVE",
"112 1406 CURVE SMOOTH",
"208 1145 OFFCURVE",
"266 883 OFFCURVE",
"266 634 CURVE SMOOTH",
"266 386 OFFCURVE",
"209 126 OFFCURVE",
"113 -134 CURVE SMOOTH",
"109 -144 OFFCURVE",
"107 -153 OFFCURVE",
"107 -161 CURVE SMOOTH",
"107 -196 OFFCURVE",
"137 -220 OFFCURVE"
);
}
);
width = 592;
},
{
layerId = "FB5FCFFA-D9F2-48E1-8F42-8D172ED4E960";
name = Bold;
paths = (
{
closed = 1;
nodes = (
"228 -260 CURVE SMOOTH",
"273 -260 OFFCURVE",
"333 -239 OFFCURVE",
"360 -172 CURVE",
"472 89 OFFCURVE",
"548 341 OFFCURVE",
"548 600 CURVE SMOOTH",
"548 836 OFFCURVE",
"483 1076 OFFCURVE",
"390 1322 CURVE SMOOTH",
"354 1417 OFFCURVE",
"301 1490 OFFCURVE",
"232 1490 CURVE SMOOTH",
"164 1490 OFFCURVE",
"110 1436 OFFCURVE",
"110 1366 CURVE SMOOTH",
"110 1334 OFFCURVE",
"120 1305 OFFCURVE",
"130 1274 CURVE SMOOTH",
"204 1049 OFFCURVE",
"245 826 OFFCURVE",
"245 606 CURVE SMOOTH",
"245 387 OFFCURVE",
"207 170 OFFCURVE",
"135 -43 CURVE SMOOTH",
"124 -75 OFFCURVE",
"113 -107 OFFCURVE",
"113 -136 CURVE SMOOTH",
"113 -209 OFFCURVE",
"161 -260 OFFCURVE"
);
}
);
width = 689;
}
);
unicode = 0029;
},
{
glyphname = asterisk;
lastChange = "2013-12-10 18:24:04 -0800";
layers = (
{
layerId = "EBB1D39D-5A31-45B3-B44F-04CD128BFFB4";
name = Regular;
paths = (
{
closed = 1;
nodes = (
"657 1439 OFFCURVE",
"633 1427 OFFCURVE",
"621 1405 CURVE SMOOTH",
"516 1214 LINE",
"413 1405 LINE",
"398 1426 OFFCURVE",
"377 1439 OFFCURVE",
"353 1439 CURVE SMOOTH",
"314 1439 OFFCURVE",
"285 1407 OFFCURVE",
"285 1372 CURVE SMOOTH",
"285 1360 OFFCURVE",
"288 1349 OFFCURVE",
"295 1338 CURVE SMOOTH",
"405 1160 LINE",
"195 1167 LINE",
"156 1167 OFFCURVE",
"127 1139 OFFCURVE",
"127 1100 CURVE SMOOTH",
"127 1064 OFFCURVE",
"158 1034 OFFCURVE",
"195 1034 CURVE",
"407 1041 LINE",
"297 863 LINE SMOOTH",
"290 852 OFFCURVE",
"287 841 OFFCURVE",
"287 828 CURVE SMOOTH",
"287 796 OFFCURVE",
"315 763 OFFCURVE",
"355 763 CURVE SMOOTH",
"378 763 OFFCURVE",
"402 775 OFFCURVE",
"414 796 CURVE SMOOTH",
"516 982 LINE",
"620 796 LINE SMOOTH",
"632 775 OFFCURVE",
"655 763 OFFCURVE",
"678 763 CURVE SMOOTH",
"719 763 OFFCURVE",
"746 796 OFFCURVE",
"746 828 CURVE SMOOTH",
"746 839 OFFCURVE",
"744 852 OFFCURVE",
"737 863 CURVE SMOOTH",
"627 1041 LINE",
"841 1034 LINE",
"880 1034 OFFCURVE",
"909 1064 OFFCURVE",
"909 1100 CURVE SMOOTH",
"909 1139 OFFCURVE",
"880 1167 OFFCURVE",
"841 1167 CURVE",
"629 1160 LINE",
"739 1338 LINE SMOOTH",
"745 1349 OFFCURVE",
"747 1360 OFFCURVE",
"748 1372 CURVE",
"748 1407 OFFCURVE",
"720 1439 OFFCURVE",
"681 1439 CURVE SMOOTH"
);
}
);
width = 1036;
},
{
layerId = "F10CBA7B-FAF3-4DDE-A14D-E99DB7E222CB";
name = Light;
paths = (
{
closed = 1;
nodes = (
"378 737 CURVE SMOOTH",
"401 737 OFFCURVE",
"423 749 OFFCURVE",
"434 768 CURVE SMOOTH",
"551 979 LINE",
"669 768 LINE SMOOTH",
"680 748 OFFCURVE",
"701 737 OFFCURVE",
"724 737 CURVE SMOOTH",
"763 737 OFFCURVE",
"787 768 OFFCURVE",
"787 797 CURVE",
"786 808 OFFCURVE",
"784 819 OFFCURVE",
"778 830 CURVE SMOOTH",
"652 1034 LINE",
"898 1025 LINE",
"934 1025 OFFCURVE",
"962 1053 OFFCURVE",
"962 1086 CURVE SMOOTH",
"962 1122 OFFCURVE",
"934 1148 OFFCURVE",
"898 1148 CURVE",
"654 1139 LINE",
"781 1343 LINE SMOOTH",
"786 1352 OFFCURVE",
"789 1362 OFFCURVE",
"789 1374 CURVE SMOOTH",
"789 1406 OFFCURVE",
"763 1437 OFFCURVE",
"726 1437 CURVE SMOOTH",
"703 1437 OFFCURVE",
"684 1426 OFFCURVE",
"670 1405 CURVE",
"551 1189 LINE",
"432 1405 LINE SMOOTH",
"420 1426 OFFCURVE",
"399 1437 OFFCURVE",
"376 1437 CURVE SMOOTH",
"339 1437 OFFCURVE",
"313 1406 OFFCURVE",
"313 1375 CURVE SMOOTH",
"313 1364 OFFCURVE",
"316 1353 OFFCURVE",
"322 1343 CURVE SMOOTH",
"448 1139 LINE",
"207 1148 LINE",
"171 1148 OFFCURVE",
"143 1122 OFFCURVE",
"143 1086 CURVE SMOOTH",
"143 1053 OFFCURVE",
"172 1025 OFFCURVE",
"207 1025 CURVE",
"451 1034 LINE",
"324 830 LINE SMOOTH",
"317 819 OFFCURVE",
"315 808 OFFCURVE",
"315 797 CURVE SMOOTH",
"315 770 OFFCURVE",
"339 737 OFFCURVE"
);
}
);
width = 1105;
},
{
layerId = "FB5FCFFA-D9F2-48E1-8F42-8D172ED4E960";
name = Bold;
paths = (
{
closed = 1;
nodes = (
"328 792 CURVE SMOOTH",
"365 792 OFFCURVE",
"386 817 OFFCURVE",
"403 848 CURVE SMOOTH",
"477 985 LINE",
"553 848 LINE SMOOTH",
"570 817 OFFCURVE",
"590 792 OFFCURVE",
"626 792 CURVE SMOOTH",
"666 792 OFFCURVE",
"698 825 OFFCURVE",
"698 862 CURVE SMOOTH",
"698 882 OFFCURVE",
"682 913 OFFCURVE",
"666 940 CURVE SMOOTH",
"599 1049 LINE",
"659 1049 OFFCURVE",
"716 1045 OFFCURVE",
"776 1045 CURVE SMOOTH",
"816 1045 OFFCURVE",
"848 1076 OFFCURVE",
"848 1116 CURVE SMOOTH",
"848 1157 OFFCURVE",
"815 1188 OFFCURVE",
"776 1188 CURVE SMOOTH",
"716 1188 OFFCURVE",
"660 1184 OFFCURVE",
"600 1183 CURVE",
"679 1313 LINE SMOOTH",
"689 1329 OFFCURVE",
"700 1349 OFFCURVE",
"699 1369 CURVE",
"699 1408 OFFCURVE",
"669 1440 OFFCURVE",
"630 1440 CURVE SMOOTH",
"591 1440 OFFCURVE",
"569 1415 OFFCURVE",
"554 1384 CURVE",
"477 1243 LINE",
"396 1394 LINE SMOOTH",
"380 1423 OFFCURVE",
"356 1441 OFFCURVE",
"327 1441 CURVE SMOOTH",
"283 1441 OFFCURVE",
"254 1405 OFFCURVE",
"254 1368 CURVE SMOOTH",
"254 1343 OFFCURVE",
"269 1323 OFFCURVE",
"282 1303 CURVE SMOOTH",
"355 1183 LINE",
"296 1183 OFFCURVE",
"239 1188 OFFCURVE",
"182 1188 CURVE SMOOTH",
"141 1188 OFFCURVE",
"109 1157 OFFCURVE",
"109 1116 CURVE SMOOTH",
"109 1077 OFFCURVE",
"143 1045 OFFCURVE",
"182 1045 CURVE SMOOTH",
"241 1045 OFFCURVE",
"297 1048 OFFCURVE",
"357 1049 CURVE",
"278 920 LINE SMOOTH",
"267 902 OFFCURVE",
"257 884 OFFCURVE",
"257 866 CURVE SMOOTH",
"257 825 OFFCURVE",
"287 792 OFFCURVE"
);
}
);
width = 958;
}
);
unicode = 002A;
},
{
glyphname = plus;
lastChange = "2013-12-10 18:24:04 -0800";
layers = (
{
layerId = "EBB1D39D-5A31-45B3-B44F-04CD128BFFB4";
name = Regular;
paths = (
{
closed = 1;
nodes = (
"609 1002 OFFCURVE",
"572 965 OFFCURVE",
"572 918 CURVE SMOOTH",
"572 584 LINE",
"229 584 LINE SMOOTH",
"181 584 OFFCURVE",
"144 548 OFFCURVE",
"144 501 CURVE SMOOTH",
"144 456 OFFCURVE",
"181 418 OFFCURVE",
"229 418 CURVE SMOOTH",
"572 418 LINE",
"572 86 LINE SMOOTH",
"572 39 OFFCURVE",
"609 3 OFFCURVE",
"657 3 CURVE SMOOTH",
"705 3 OFFCURVE",
"742 41 OFFCURVE",
"742 86 CURVE SMOOTH",
"742 418 LINE",
"1086 418 LINE SMOOTH",
"1134 418 OFFCURVE",
"1172 456 OFFCURVE",
"1172 501 CURVE SMOOTH",
"1172 548 OFFCURVE",
"1134 584 OFFCURVE",
"1086 584 CURVE SMOOTH",
"742 584 LINE",
"742 918 LINE SMOOTH",
"742 965 OFFCURVE",
"704 1002 OFFCURVE",
"657 1002 CURVE SMOOTH"
);
}
);
width = 1315;
},
{
layerId = "F10CBA7B-FAF3-4DDE-A14D-E99DB7E222CB";
name = Light;
paths = (
{
closed = 1;
nodes = (
"670 4 CURVE SMOOTH",
"707 4 OFFCURVE",
"739 34 OFFCURVE",
"739 71 CURVE SMOOTH",
"739 429 LINE",
"1113 429 LINE SMOOTH",
"1152 429 OFFCURVE",
"1183 460 OFFCURVE",
"1183 496 CURVE SMOOTH",
"1183 535 OFFCURVE",
"1152 563 OFFCURVE",
"1113 563 CURVE SMOOTH",
"739 563 LINE",
"739 924 LINE SMOOTH",
"739 963 OFFCURVE",
"707 992 OFFCURVE",
"670 992 CURVE SMOOTH",
"630 992 OFFCURVE",
"600 963 OFFCURVE",
"600 924 CURVE SMOOTH",
"600 563 LINE",
"227 563 LINE SMOOTH",
"188 563 OFFCURVE",
"157 535 OFFCURVE",
"157 496 CURVE SMOOTH",
"157 460 OFFCURVE",
"188 429 OFFCURVE",
"227 429 CURVE SMOOTH",
"600 429 LINE",
"600 71 LINE SMOOTH",
"600 32 OFFCURVE",
"630 4 OFFCURVE"
);
}
);
width = 1340;
},
{
layerId = "FB5FCFFA-D9F2-48E1-8F42-8D172ED4E960";
name = Bold;
paths = (
{
closed = 1;
nodes = (
"643 2 CURVE SMOOTH",
"727 2 OFFCURVE",
"746 77 OFFCURVE",
"746 134 CURVE SMOOTH",
"746 405 LINE",
"1026 405 LINE SMOOTH",
"1095 405 OFFCURVE",
"1159 434 OFFCURVE",
"1159 507 CURVE SMOOTH",
"1159 588 OFFCURVE",
"1082 608 OFFCURVE",
"1026 608 CURVE SMOOTH",
"746 608 LINE",
"746 880 LINE SMOOTH",
"746 948 OFFCURVE",
"718 1013 OFFCURVE",
"643 1013 CURVE SMOOTH",
"557 1013 OFFCURVE",
"540 936 OFFCURVE",
"540 880 CURVE SMOOTH",
"540 608 LINE",
"261 608 LINE SMOOTH",
"187 608 OFFCURVE",
"128 576 OFFCURVE",
"128 507 CURVE SMOOTH",
"128 424 OFFCURVE",
"202 405 OFFCURVE",
"261 405 CURVE SMOOTH",
"540 405 LINE",
"540 134 LINE SMOOTH",
"540 57 OFFCURVE",
"571 2 OFFCURVE"
);
}
);
width = 1287;
}
);
unicode = 002B;
},
{
glyphname = comma;
lastChange = "2013-12-10 18:24:04 -0800";
layers = (
{
layerId = "EBB1D39D-5A31-45B3-B44F-04CD128BFFB4";
name = Regular;
paths = (
{
closed = 1;
nodes = (
"270 299 LINE",
"238 298 OFFCURVE",
"205 290 OFFCURVE",
"197 243 CURVE SMOOTH",
"113 -227 LINE SMOOTH",
"111 -239 OFFCURVE",
"109 -269 OFFCURVE",
"137 -270 CURVE",
"219 -270 LINE",
"248 -271 OFFCURVE",
"264 -259 OFFCURVE",
"275 -227 CURVE SMOOTH",
"456 243 LINE SMOOTH",
"461 257 OFFCURVE",
"464 296 OFFCURVE",
"422 299 CURVE"
);
}
);
width = 615;
},
{
layerId = "F10CBA7B-FAF3-4DDE-A14D-E99DB7E222CB";
name = Light;
paths = (
{
closed = 1;
nodes = (
"111 -240 LINE",
"249 -240 LINE",
"401 185 LINE",
"204 185 LINE"
);
}
);
width = 584;
},
{
layerId = "FB5FCFFA-D9F2-48E1-8F42-8D172ED4E960";
name = Bold;
paths = (
{
closed = 1;
nodes = (
"68 -223 LINE",
"341 -223 LINE",
"514 298 LINE",
"184 298 LINE"
);
}
);
width = 649;
}
);
unicode = 002C;
userData = {
anchors = (
);
b = {
};
com.typemytype.robofont.layerData = {
};
components = (
);
contours = (
);
lib = {
};
name = comma;
unicodes = (
);
width = 615;
};
},
{
glyphname = hyphen;
lastChange = "2013-12-10 18:24:04 -0800";
layers = (
{
layerId = "EBB1D39D-5A31-45B3-B44F-04CD128BFFB4";
name = Regular;
paths = (
{
closed = 1;
nodes = (
"133 625 LINE SMOOTH",
"78 625 OFFCURVE",
"37 584 OFFCURVE",
"37 531 CURVE SMOOTH",
"37 480 OFFCURVE",
"80 438 OFFCURVE",
"133 438 CURVE SMOOTH",
"516 438 LINE SMOOTH",
"569 438 OFFCURVE",
"612 480 OFFCURVE",
"612 531 CURVE SMOOTH",
"612 584 OFFCURVE",
"571 625 OFFCURVE",
"516 625 CURVE SMOOTH"
);
}
);
width = 649;
},
{
layerId = "F10CBA7B-FAF3-4DDE-A14D-E99DB7E222CB";
name = Light;
paths = (
{
closed = 1;
nodes = (
"104 457 CURVE SMOOTH",
"493 457 LINE SMOOTH",
"534 457 OFFCURVE",
"566 487 OFFCURVE",
"566 526 CURVE SMOOTH",
"566 567 OFFCURVE",
"534 598 OFFCURVE",
"493 598 CURVE SMOOTH",
"104 598 LINE SMOOTH",
"61 598 OFFCURVE",
"30 567 OFFCURVE",
"30 526 CURVE SMOOTH",
"30 487 OFFCURVE",
"63 457 OFFCURVE"
);
}
);
width = 596;
},
{
layerId = "FB5FCFFA-D9F2-48E1-8F42-8D172ED4E960";
name = Bold;
paths = (
{
closed = 1;
nodes = (
"166 417 CURVE SMOOTH",
"520 417 LINE SMOOTH",
"594 417 OFFCURVE",
"665 452 OFFCURVE",
"665 536 CURVE SMOOTH",
"665 631 OFFCURVE",
"579 656 OFFCURVE",
"520 656 CURVE SMOOTH",
"189 656 LINE SMOOTH",
"104 656 OFFCURVE",
"44 613 OFFCURVE",
"44 536 CURVE SMOOTH",
"44 468 OFFCURVE",
"101 417 OFFCURVE"
);
}
);
width = 709;
}
);
unicode = 002D;
},
{
glyphname = period;
lastChange = "2013-12-10 18:24:04 -0800";
layers = (
{
layerId = "EBB1D39D-5A31-45B3-B44F-04CD128BFFB4";
name = Regular;
paths = (
{
closed = 1;
nodes = (
"224 254 OFFCURVE",
"171 193 OFFCURVE",
"171 126 CURVE SMOOTH",
"171 58 OFFCURVE",
"224 -3 OFFCURVE",
"307 -3 CURVE SMOOTH",
"390 -3 OFFCURVE",
"443 58 OFFCURVE",
"443 126 CURVE SMOOTH",
"443 193 OFFCURVE",
"390 254 OFFCURVE",
"307 254 CURVE SMOOTH"
);
}
);
width = 615;
},
{
layerId = "F10CBA7B-FAF3-4DDE-A14D-E99DB7E222CB";
name = Light;
paths = (
{
closed = 1;
nodes = (
"292 -1 CURVE SMOOTH",
"360 -1 OFFCURVE",
"399 47 OFFCURVE",
"399 97 CURVE SMOOTH",
"399 145 OFFCURVE",
"360 194 OFFCURVE",
"292 194 CURVE SMOOTH",
"223 194 OFFCURVE",
"184 145 OFFCURVE",
"184 97 CURVE SMOOTH",
"184 47 OFFCURVE",
"223 -1 OFFCURVE"
);
}
);
width = 584;
},
{
layerId = "FB5FCFFA-D9F2-48E1-8F42-8D172ED4E960";
name = Bold;
paths = (
{
closed = 1;
nodes = (
"324 -6 CURVE SMOOTH",
"420 -6 OFFCURVE",
"493 69 OFFCURVE",
"493 158 CURVE SMOOTH",
"493 256 OFFCURVE",
"412 322 OFFCURVE",
"324 322 CURVE SMOOTH",
"225 322 OFFCURVE",
"155 245 OFFCURVE",
"155 158 CURVE SMOOTH",
"155 65 OFFCURVE",
"232 -6 OFFCURVE"
);
}
);
width = 649;
}
);
unicode = 002E;
},
{
glyphname = slash;
lastChange = "2013-12-10 18:24:04 -0800";
layers = (
{
layerId = "EBB1D39D-5A31-45B3-B44F-04CD128BFFB4";
name = Regular;
paths = (
{
closed = 1;
nodes = (
"517 1449 OFFCURVE",
"482 1432 OFFCURVE",
"468 1389 CURVE SMOOTH",
"-5 -32 LINE SMOOTH",
"-9 -43 OFFCURVE",
"-10 -54 OFFCURVE",
"-10 -63 CURVE SMOOTH",
"-10 -114 OFFCURVE",
"33 -144 OFFCURVE",
"76 -144 CURVE SMOOTH",
"109 -144 OFFCURVE",
"140 -126 OFFCURVE",
"155 -85 CURVE",
"631 1336 LINE SMOOTH",
"635 1347 OFFCURVE",
"636 1357 OFFCURVE",
"636 1368 CURVE SMOOTH",
"636 1419 OFFCURVE",
"593 1449 OFFCURVE",
"550 1449 CURVE SMOOTH"
);
}
);
width = 626;
},
{
layerId = "F10CBA7B-FAF3-4DDE-A14D-E99DB7E222CB";
name = Light;
paths = (
{
closed = 1;
nodes = (
"49 -175 CURVE SMOOTH",
"77 -175 OFFCURVE",
"104 -160 OFFCURVE",
"116 -125 CURVE SMOOTH",
"603 1337 LINE SMOOTH",
"606 1348 OFFCURVE",
"608 1358 OFFCURVE",
"608 1365 CURVE SMOOTH",
"608 1406 OFFCURVE",
"573 1430 OFFCURVE",
"537 1430 CURVE SMOOTH",
"507 1430 OFFCURVE",
"479 1415 OFFCURVE",
"468 1380 CURVE SMOOTH",
"-15 -83 LINE SMOOTH",
"-18 -94 OFFCURVE",
"-20 -103 OFFCURVE",
"-20 -110 CURVE SMOOTH",
"-20 -151 OFFCURVE",
"14 -175 OFFCURVE"
);
}
);
width = 588;
},
{
layerId = "FB5FCFFA-D9F2-48E1-8F42-8D172ED4E960";
name = Bold;
paths = (
{
closed = 1;
nodes = (
"105 -108 CURVE SMOOTH",
"142 -108 OFFCURVE",
"182 -91 OFFCURVE",
"199 -40 CURVE SMOOTH",
"644 1279 LINE",
"655 1308 OFFCURVE",
"667 1343 OFFCURVE",
"667 1370 CURVE SMOOTH",
"667 1437 OFFCURVE",
"617 1469 OFFCURVE",
"564 1469 CURVE SMOOTH",
"503 1469 OFFCURVE",
"471 1411 OFFCURVE",
"449 1344 CURVE SMOOTH",
"309 920 OFFCURVE",
"166 505 OFFCURVE",
"25 81 CURVE SMOOTH",
"14 48 OFFCURVE",
"0 12 OFFCURVE",
"0 -15 CURVE SMOOTH",
"0 -75 OFFCURVE",
"57 -108 OFFCURVE"
);
}
);
width = 669;
}
);
unicode = 002F;
},
{
glyphname = zero;
lastChange = "2013-12-10 18:24:04 -0800";
layers = (
{
layerId = "EBB1D39D-5A31-45B3-B44F-04CD128BFFB4";
name = Regular;
paths = (
{
closed = 1;
nodes = (
"205 1448 OFFCURVE",
"83 1101 OFFCURVE",
"83 718 CURVE SMOOTH",
"83 335 OFFCURVE",
"206 -13 OFFCURVE",
"615 -13 CURVE SMOOTH",
"1023 -13 OFFCURVE",
"1146 335 OFFCURVE",
"1146 718 CURVE SMOOTH",
"1146 1101 OFFCURVE",
"1023 1448 OFFCURVE",
"615 1448 CURVE SMOOTH"
);
},
{
closed = 1;
nodes = (
"849 1258 OFFCURVE",
"881 974 OFFCURVE",
"881 718 CURVE SMOOTH",
"881 462 OFFCURVE",
"849 178 OFFCURVE",
"615 178 CURVE SMOOTH",
"381 178 OFFCURVE",
"349 462 OFFCURVE",
"349 718 CURVE SMOOTH",
"349 974 OFFCURVE",
"381 1258 OFFCURVE",
"615 1258 CURVE SMOOTH"
);
}
);
width = 1230;
},
{
layerId = "F10CBA7B-FAF3-4DDE-A14D-E99DB7E222CB";
name = Light;
paths = (
{
closed = 1;
nodes = (
"584 120 CURVE SMOOTH",
"309 120 OFFCURVE",
"278 461 OFFCURVE",
"278 705 CURVE SMOOTH",
"278 969 OFFCURVE",
"312 1296 OFFCURVE",
"584 1296 CURVE SMOOTH",
"858 1296 OFFCURVE",
"892 966 OFFCURVE",
"892 705 CURVE SMOOTH",
"892 464 OFFCURVE",
"861 120 OFFCURVE"
);
},
{
closed = 1;
nodes = (
"584 -22 CURVE SMOOTH",
"977 -22 OFFCURVE",
"1075 329 OFFCURVE",
"1075 705 CURVE SMOOTH",
"1075 1103 OFFCURVE",
"971 1438 OFFCURVE",
"584 1438 CURVE SMOOTH",
"198 1438 OFFCURVE",
"93 1105 OFFCURVE",
"93 705 CURVE SMOOTH",
"93 326 OFFCURVE",
"192 -22 OFFCURVE"
);
}
);
width = 1169;
},
{
layerId = "FB5FCFFA-D9F2-48E1-8F42-8D172ED4E960";
name = Bold;
paths = (
{
closed = 1;
nodes = (
"649 212 CURVE SMOOTH",
"465 212 OFFCURVE",
"430 414 OFFCURVE",
"430 711 CURVE SMOOTH",
"430 1007 OFFCURVE",
"465 1212 OFFCURVE",
"649 1212 CURVE SMOOTH",
"833 1212 OFFCURVE",
"869 1004 OFFCURVE",
"869 711 CURVE SMOOTH",
"869 411 OFFCURVE",
"830 212 OFFCURVE"
);
},
{
closed = 1;
nodes = (
"649 -35 CURVE SMOOTH",
"1077 -35 OFFCURVE",
"1226 304 OFFCURVE",
"1226 711 CURVE SMOOTH",
"1226 1124 OFFCURVE",
"1070 1457 OFFCURVE",
"649 1457 CURVE SMOOTH",
"214 1457 OFFCURVE",
"72 1111 OFFCURVE",
"72 711 CURVE SMOOTH",
"72 299 OFFCURVE",
"222 -35 OFFCURVE"
);
}
);
width = 1299;
}
);
unicode = 0030;
},
{
glyphname = one;
lastChange = "2013-12-10 18:24:04 -0800";
layers = (
{
layerId = "EBB1D39D-5A31-45B3-B44F-04CD128BFFB4";
name = Regular;
paths = (
{
closed = 1;
nodes = (
"651 1435 OFFCURVE",
"626 1431 OFFCURVE",
"605 1419 CURVE SMOOTH",
"245 1202 LINE SMOOTH",
"213 1183 OFFCURVE",
"200 1154 OFFCURVE",
"200 1127 CURVE SMOOTH",
"200 1079 OFFCURVE",
"240 1033 OFFCURVE",
"291 1033 CURVE SMOOTH",
"306 1033 OFFCURVE",
"324 1037 OFFCURVE",
"339 1047 CURVE SMOOTH",
"538 1173 LINE",
"539 126 LINE SMOOTH",
"539 42 OFFCURVE",
"604 0 OFFCURVE",
"669 0 CURVE SMOOTH",
"733 0 OFFCURVE",
"800 42 OFFCURVE",
"800 126 CURVE SMOOTH",
"799 1307 LINE SMOOTH",
"799 1394 OFFCURVE",
"738 1437 OFFCURVE",
"674 1437 CURVE"
);
}
);
width = 1230;
},
{
layerId = "F10CBA7B-FAF3-4DDE-A14D-E99DB7E222CB";
name = Light;
paths = (
{
closed = 1;
nodes = (
"638 0 CURVE SMOOTH",
"683 0 OFFCURVE",
"727 27 OFFCURVE",
"727 83 CURVE SMOOTH",
"727 1340 LINE SMOOTH",
"727 1399 OFFCURVE",
"686 1426 OFFCURVE",
"643 1426 CURVE SMOOTH",
"627 1426 OFFCURVE",
"607 1421 OFFCURVE",
"593 1412 CURVE SMOOTH",
"257 1199 LINE",
"236 1184 OFFCURVE",
"227 1167 OFFCURVE",
"227 1148 CURVE SMOOTH",
"227 1113 OFFCURVE",
"257 1081 OFFCURVE",
"294 1081 CURVE SMOOTH",
"306 1081 OFFCURVE",
"318 1085 OFFCURVE",
"329 1092 CURVE SMOOTH",
"551 1236 LINE",
"551 83 LINE SMOOTH",
"551 27 OFFCURVE",
"595 0 OFFCURVE"
);
}
);
width = 1169;
},
{
layerId = "FB5FCFFA-D9F2-48E1-8F42-8D172ED4E960";
name = Bold;
paths = (
{
closed = 1;
nodes = (
"703 1 CURVE SMOOTH",
"847 1 OFFCURVE",
"884 110 OFFCURVE",
"884 241 CURVE SMOOTH",
"884 1208 LINE SMOOTH",
"884 1367 OFFCURVE",
"831 1454 OFFCURVE",
"712 1454 CURVE SMOOTH",
"664 1454 OFFCURVE",
"623 1432 OFFCURVE",
"584 1409 CURVE SMOOTH",
"252 1220 LINE",
"196 1185 OFFCURVE",
"171 1154 OFFCURVE",
"171 1106 CURVE SMOOTH",
"171 1042 OFFCURVE",
"222 982 OFFCURVE",
"291 982 CURVE SMOOTH",
"311 982 OFFCURVE",
"332 988 OFFCURVE",
"353 999 CURVE",
"525 1104 LINE",
"525 264 LINE SMOOTH",
"525 89 OFFCURVE",
"578 1 OFFCURVE"
);
}
);
width = 1299;
}
);
unicode = 0031;
},
{
glyphname = two;
lastChange = "2013-12-10 18:24:04 -0800";
layers = (
{
layerId = "EBB1D39D-5A31-45B3-B44F-04CD128BFFB4";
name = Regular;
paths = (
{
closed = 1;
nodes = (
"497 1431 OFFCURVE",
"346 1386 OFFCURVE",
"239 1330 CURVE SMOOTH",
"188 1303 OFFCURVE",
"169 1266 OFFCURVE",
"169 1231 CURVE SMOOTH",
"169 1183 OFFCURVE",
"205 1140 OFFCURVE",
"260 1140 CURVE SMOOTH",
"275 1140 OFFCURVE",
"292 1143 OFFCURVE",
"311 1152 CURVE SMOOTH",
"385 1187 OFFCURVE",
"488 1229 OFFCURVE",
"586 1229 CURVE SMOOTH",
"708 1229 OFFCURVE",
"819 1168 OFFCURVE",
"819 1048 CURVE SMOOTH",
"819 914 OFFCURVE",
"660 709 OFFCURVE",
"465 522 CURVE",
"385 442 OFFCURVE",
"221 299 OFFCURVE",
"175 257 CURVE SMOOTH",
"128 214 OFFCURVE",
"103 165 OFFCURVE",
"103 117 CURVE SMOOTH",
"103 53 OFFCURVE",
"147 0 OFFCURVE",
"242 0 CURVE SMOOTH",
"994 0 LINE SMOOTH",
"1058 0 OFFCURVE",
"1090 49 OFFCURVE",
"1090 98 CURVE SMOOTH",
"1090 149 OFFCURVE",
"1058 198 OFFCURVE",
"994 198 CURVE SMOOTH",
"415 198 LINE",
"703 426 OFFCURVE",
"1077 779 OFFCURVE",
"1077 1072 CURVE SMOOTH",
"1077 1303 OFFCURVE",
"879 1431 OFFCURVE",
"619 1431 CURVE SMOOTH"
);
}
);
width = 1230;
},
{
layerId = "F10CBA7B-FAF3-4DDE-A14D-E99DB7E222CB";
name = Light;
paths = (
{
closed = 1;
nodes = (
"227 0 CURVE SMOOTH",
"953 0 LINE SMOOTH",
"1000 0 OFFCURVE",
"1023 35 OFFCURVE",
"1023 71 CURVE SMOOTH",
"1023 108 OFFCURVE",
"1000 145 OFFCURVE",
"953 145 CURVE SMOOTH",
"313 145 LINE",
"392.923 217.126 OFFCURVE",
"1025 686.224 OFFCURVE",
"1025 1101 CURVE SMOOTH",
"1025 1322 OFFCURVE",
"828 1438 OFFCURVE",
"602 1438 CURVE SMOOTH",
"481.476 1438 OFFCURVE",
"317.241 1382.52 OFFCURVE",
"242.28 1318.97 CURVE SMOOTH",
"217.106 1297.62 OFFCURVE",
"202 1275.37 OFFCURVE",
"202 1254 CURVE SMOOTH",
"202 1219 OFFCURVE",
"230 1193 OFFCURVE",
"269 1193 CURVE SMOOTH",
"285 1193 OFFCURVE",
"304 1198 OFFCURVE",
"323 1209 CURVE SMOOTH",
"389 1249 OFFCURVE",
"490 1292 OFFCURVE",
"588 1292 CURVE SMOOTH",
"719 1292 OFFCURVE",
"843 1222 OFFCURVE",
"843 1087 CURVE SMOOTH",
"843 834.4 OFFCURVE",
"321.739 380.96 OFFCURVE",
"157 198.125 CURVE SMOOTH",
"124 161.5 OFFCURVE",
"106 130.5 OFFCURVE",
"106 90 CURVE SMOOTH",
"106 39 OFFCURVE",
"143 0 OFFCURVE"
);
}
);
width = 1169;
},
{
layerId = "FB5FCFFA-D9F2-48E1-8F42-8D172ED4E960";
name = Bold;
paths = (
{
closed = 1;
nodes = (
"277 0 CURVE SMOOTH",
"1021 0 LINE SMOOTH",
"1113 0 OFFCURVE",
"1164 44 OFFCURVE",
"1164 131 CURVE SMOOTH",
"1164 227 OFFCURVE",
"1070 259 OFFCURVE",
"967 259 CURVE SMOOTH",
"532 259 LINE",
"852 491 OFFCURVE",
"1153 796 OFFCURVE",
"1153 1078 CURVE SMOOTH",
"1153 1325 OFFCURVE",
"943 1462 OFFCURVE",
"656 1462 CURVE SMOOTH",
"528 1462 OFFCURVE",
"370 1423 OFFCURVE",
"238 1367 CURVE SMOOTH",
"173 1339 OFFCURVE",
"147 1290 OFFCURVE",
"147 1242 CURVE SMOOTH",
"147 1173 OFFCURVE",
"197 1115 OFFCURVE",
"265 1115 CURVE SMOOTH",
"280 1115 OFFCURVE",
"296 1118 OFFCURVE",
"314 1125 CURVE SMOOTH",
"398 1157 OFFCURVE",
"501 1196 OFFCURVE",
"601 1196 CURVE SMOOTH",
"711 1196 OFFCURVE",
"809 1145 OFFCURVE",
"809 1042 CURVE SMOOTH",
"809 905.529 OFFCURVE",
"610.075 673.379 OFFCURVE",
"194 320 CURVE SMOOTH",
"133 268 OFFCURVE",
"103 209 OFFCURVE",
"103 142 CURVE SMOOTH",
"103 34 OFFCURVE",
"180 0 OFFCURVE"
);
}
);
width = 1299;
}
);
unicode = 0032;
},
{
glyphname = three;
lastChange = "2013-12-10 18:24:04 -0800";
layers = (
{
layerId = "EBB1D39D-5A31-45B3-B44F-04CD128BFFB4";
name = Regular;
paths = (
{
closed = 1;
nodes = (
"459 1458 OFFCURVE",
"343 1433 OFFCURVE",
"247 1393 CURVE",
"192 1374 OFFCURVE",
"170 1334 OFFCURVE",
"170 1294 CURVE SMOOTH",
"170 1245 OFFCURVE",
"205 1198 OFFCURVE",
"263 1198 CURVE SMOOTH",
"296 1198 OFFCURVE",
"441 1254 OFFCURVE",
"571 1254 CURVE SMOOTH",
"707 1254 OFFCURVE",
"827 1184 OFFCURVE",
"827 1045 CURVE SMOOTH",
"827 895 OFFCURVE",
"702 824 OFFCURVE",
"545 822 CURVE SMOOTH",
"479 821 LINE SMOOTH",
"422 820 OFFCURVE",
"393 777 OFFCURVE",
"393 732 CURVE SMOOTH",
"393 688 OFFCURVE",
"421 644 OFFCURVE",
"479 644 CURVE SMOOTH",
"552 644 LINE SMOOTH",
"724 644 OFFCURVE",
"848 553 OFFCURVE",
"848 395 CURVE SMOOTH",
"848 255 OFFCURVE",
"742 183 OFFCURVE",
"585 183 CURVE SMOOTH",
"466 183 OFFCURVE",
"357 221 OFFCURVE",
"296 245 CURVE",
"288 246 OFFCURVE",
"281 247 OFFCURVE",
"274 247 CURVE SMOOTH",
"214 247 OFFCURVE",
"178 201 OFFCURVE",
"178 153 CURVE SMOOTH",
"178 118 OFFCURVE",
"198 83 OFFCURVE",
"243 64 CURVE",
"349 11 OFFCURVE",
"485 -19 OFFCURVE",
"598 -19 CURVE SMOOTH",
"874 -19 OFFCURVE",
"1115 100 OFFCURVE",
"1115 385 CURVE SMOOTH",
"1115 571 OFFCURVE",
"1005 708 OFFCURVE",
"822 742 CURVE",
"822 746 LINE",
"967 776 OFFCURVE",
"1087 899 OFFCURVE",
"1087 1066 CURVE SMOOTH",
"1087 1317 OFFCURVE",
"882 1458 OFFCURVE",
"582 1458 CURVE SMOOTH"
);
}
);
width = 1230;
},
{
layerId = "F10CBA7B-FAF3-4DDE-A14D-E99DB7E222CB";
name = Light;
paths = (
{
closed = 1;
nodes = (
"575 -22 CURVE SMOOTH",
"819 -22 OFFCURVE",
"1050 92 OFFCURVE",
"1050 370 CURVE SMOOTH",
"1050 559 OFFCURVE",
"929 693 OFFCURVE",
"752 731 CURVE",
"752 735 LINE",
"902 767 OFFCURVE",
"1026 881 OFFCURVE",
"1026 1049 CURVE SMOOTH",
"1026 1315 OFFCURVE",
"807 1438 OFFCURVE",
"554 1438 CURVE SMOOTH",
"426 1438 OFFCURVE",
"316 1408 OFFCURVE",
"217 1363 CURVE SMOOTH",
"185 1348 OFFCURVE",
"170 1324 OFFCURVE",
"170 1297 CURVE SMOOTH",
"170 1258 OFFCURVE",
"199 1221 OFFCURVE",
"243 1221 CURVE SMOOTH",
"276 1221 OFFCURVE",
"422 1288 OFFCURVE",
"563 1288 CURVE SMOOTH",
"712 1288 OFFCURVE",
"844 1203 OFFCURVE",
"844 1047 CURVE SMOOTH",
"844 874 OFFCURVE",
"690 799 OFFCURVE",
"527 796 CURVE SMOOTH",
"467 795 LINE SMOOTH",
"423 794 OFFCURVE",
"400 760 OFFCURVE",
"400 725 CURVE SMOOTH",
"400 690 OFFCURVE",
"423 657 OFFCURVE",
"467 657 CURVE SMOOTH",
"542 657 LINE SMOOTH",
"714 657 OFFCURVE",
"866 554 OFFCURVE",
"866 368 CURVE SMOOTH",
"866 212 OFFCURVE",
"753 127 OFFCURVE",
"576 127 CURVE SMOOTH",
"459 127 OFFCURVE",
"347 164 OFFCURVE",
"283 194 CURVE SMOOTH",
"275 197 OFFCURVE",
"267 198 OFFCURVE",
"258 198 CURVE SMOOTH",
"215 198 OFFCURVE",
"186 163 OFFCURVE",
"186 127 CURVE SMOOTH",
"186 97.2862 OFFCURVE",
"213.017 71.2234 OFFCURVE",
"253.98 49.5528 CURVE SMOOTH",
"339.845 4.12662 OFFCURVE",
"486.987 -22 OFFCURVE"
);
}
);
width = 1169;
},
{
layerId = "FB5FCFFA-D9F2-48E1-8F42-8D172ED4E960";
name = Bold;
paths = (
{
closed = 1;
nodes = (
"625 -20 CURVE SMOOTH",
"939 -20 OFFCURVE",
"1188 105 OFFCURVE",
"1188 397 CURVE SMOOTH",
"1188 582 OFFCURVE",
"1087 720 OFFCURVE",
"902 749 CURVE",
"902 753 LINE",
"1041 780 OFFCURVE",
"1157 914 OFFCURVE",
"1157 1078 CURVE SMOOTH",
"1157 1314 OFFCURVE",
"961 1473 OFFCURVE",
"614 1473 CURVE SMOOTH",
"463.5 1473 OFFCURVE",
"352.5 1454.25 OFFCURVE",
"279.125 1421.38 CURVE SMOOTH",
"205.75 1388.5 OFFCURVE",
"170 1341.5 OFFCURVE",
"170 1285 CURVE SMOOTH",
"170 1217 OFFCURVE",
"222 1168 OFFCURVE",
"297 1168 CURVE SMOOTH",
"372.987 1168 OFFCURVE",
"514.014 1209.29 OFFCURVE",
"581 1208 CURVE",
"705 1208 OFFCURVE",
"808 1151 OFFCURVE",
"808 1035 CURVE SMOOTH",
"808 906 OFFCURVE",
"701 847 OFFCURVE",
"566 847 CURVE SMOOTH",
"492 847 LINE SMOOTH",
"421 847 OFFCURVE",
"384 790 OFFCURVE",
"384 734 CURVE SMOOTH",
"384 674 OFFCURVE",
"423 624 OFFCURVE",
"492 624 CURVE SMOOTH",
"563 624 LINE SMOOTH",
"731 624 OFFCURVE",
"827 550 OFFCURVE",
"827 421 CURVE SMOOTH",
"827 290 OFFCURVE",
"722 243 OFFCURVE",
"587 243 CURVE SMOOTH",
"478 243 OFFCURVE",
"366 282 OFFCURVE",
"309 298 CURVE",
"300 298 LINE SMOOTH",
"219 298 OFFCURVE",
"167 244 OFFCURVE",
"167 179 CURVE SMOOTH",
"167 115 OFFCURVE",
"213 72 OFFCURVE",
"286 45 CURVE SMOOTH",
"394 5 OFFCURVE",
"525 -20 OFFCURVE"
);
}
);
width = 1299;
}
);
unicode = 0033;
},
{
glyphname = four;
lastChange = "2013-12-10 18:24:04 -0800";
layers = (
{
layerId = "EBB1D39D-5A31-45B3-B44F-04CD128BFFB4";
name = Regular;
paths = (
{
closed = 1;
nodes = (
"692 1437 OFFCURVE",
"620 1405 OFFCURVE",
"565 1306 CURVE",
"56 480 LINE SMOOTH",
"40 455 OFFCURVE",
"34 428 OFFCURVE",
"34 405 CURVE SMOOTH",
"34 342 OFFCURVE",
"81 293 OFFCURVE",
"160 293 CURVE SMOOTH",
"712 293 LINE",
"712 112 LINE",
"715 36 OFFCURVE",
"778 -4 OFFCURVE",
"838 -4 CURVE SMOOTH",
"898 -4 OFFCURVE",
"962 36 OFFCURVE",
"962 112 CURVE SMOOTH",
"962 293 LINE",
"1084 293 LINE SMOOTH",
"1145 293 OFFCURVE",
"1175 340 OFFCURVE",
"1175 385 CURVE SMOOTH",
"1175 432 OFFCURVE",
"1145 478 OFFCURVE",
"1084 478 CURVE SMOOTH",
"963 478 LINE",
"963 1258 LINE SMOOTH",
"963 1386 OFFCURVE",
"877 1437 OFFCURVE",
"781 1437 CURVE SMOOTH"
);
},
{
closed = 1;
nodes = (
"712 478 LINE",
"260 478 LINE",
"712 1224 LINE"
);
}
);
width = 1230;
},
{
layerId = "F10CBA7B-FAF3-4DDE-A14D-E99DB7E222CB";
name = Light;
paths = (
{
closed = 1;
nodes = (
"798 0 CURVE SMOOTH",
"840 0 OFFCURVE",
"883 27 OFFCURVE",
"883 80 CURVE SMOOTH",
"883 316 LINE",
"1038 316 LINE SMOOTH",
"1082 316 OFFCURVE",
"1104 349 OFFCURVE",
"1104 382 CURVE SMOOTH",
"1104 415 OFFCURVE",
"1082 448 OFFCURVE",
"1038 448 CURVE SMOOTH",
"884 448 LINE",
"884 1303 LINE SMOOTH",
"884 1389 OFFCURVE",
"825 1426 OFFCURVE",
"760 1426 CURVE SMOOTH",
"704 1426 OFFCURVE",
"653 1402 OFFCURVE",
"618 1345 CURVE",
"57 474 LINE",
"42 454 OFFCURVE",
"38 431 OFFCURVE",
"38 411 CURVE SMOOTH",
"38 360 OFFCURVE",
"75 316 OFFCURVE",
"134 316 CURVE SMOOTH",
"711 316 LINE",
"711 80 LINE SMOOTH",
"711 27 OFFCURVE",
"756 0 OFFCURVE"
);
},
{
closed = 1;
nodes = (
"191 448 LINE",
"711 1263 LINE",
"711 448 LINE"
);
}
);
width = 1169;
},
{
layerId = "FB5FCFFA-D9F2-48E1-8F42-8D172ED4E960";
name = Bold;
paths = (
{
closed = 1;
nodes = (
"884 -8 CURVE SMOOTH",
"1012 -8 OFFCURVE",
"1049 88 OFFCURVE",
"1052 185 CURVE",
"1052 305 LINE",
"1099 305 LINE SMOOTH",
"1202 305 OFFCURVE",
"1256 347 OFFCURVE",
"1256 428 CURVE SMOOTH",
"1256 521 OFFCURVE",
"1181 551 OFFCURVE",
"1099 551 CURVE SMOOTH",
"1053 551 LINE",
"1053 1144 LINE SMOOTH",
"1053 1373 OFFCURVE",
"980 1465 OFFCURVE",
"809 1465 CURVE SMOOTH",
"678 1465 OFFCURVE",
"580 1424 OFFCURVE",
"505 1279 CURVE",
"55 524 LINE SMOOTH",
"36 493 OFFCURVE",
"30 463 OFFCURVE",
"30 436 CURVE SMOOTH",
"30 343 OFFCURVE",
"102 305 OFFCURVE",
"209 305 CURVE SMOOTH",
"713 305 LINE",
"713 221 LINE",
"716 72 OFFCURVE",
"767 -8 OFFCURVE"
);
},
{
closed = 1;
nodes = (
"338 551 LINE",
"713 1196 LINE",
"713 551 LINE"
);
}
);
width = 1299;
}
);
unicode = 0034;
},
{
glyphname = five;
lastChange = "2013-12-10 18:24:04 -0800";
layers = (
{
layerId = "EBB1D39D-5A31-45B3-B44F-04CD128BFFB4";
name = Regular;
paths = (
{
closed = 1;
nodes = (
"303 1436 LINE SMOOTH",
"215 1436 OFFCURVE",
"172 1401 OFFCURVE",
"172 1317 CURVE SMOOTH",
"172 669 LINE SMOOTH",
"172 593 OFFCURVE",
"224 559 OFFCURVE",
"277 559 CURVE SMOOTH",
"325 559 OFFCURVE",
"375 586 OFFCURVE",
"396 633 CURVE",
"428 686 OFFCURVE",
"504 755 OFFCURVE",
"629 755 CURVE SMOOTH",
"781 755 OFFCURVE",
"872 634 OFFCURVE",
"872 462 CURVE SMOOTH",
"872 284 OFFCURVE",
"777 158 OFFCURVE",
"591 158 CURVE SMOOTH",
"466 158 OFFCURVE",
"353 207 OFFCURVE",
"296 306 CURVE",
"275 326 OFFCURVE",
"252 335 OFFCURVE",
"231 335 CURVE SMOOTH",
"187 335 OFFCURVE",
"151 297 OFFCURVE",
"151 250 CURVE SMOOTH",
"151 229 OFFCURVE",
"157 207 OFFCURVE",
"176 184 CURVE",
"251 39 OFFCURVE",
"422 -28 OFFCURVE",
"612 -28 CURVE SMOOTH",
"912 -28 OFFCURVE",
"1137 160 OFFCURVE",
"1137 451 CURVE SMOOTH",
"1137 726 OFFCURVE",
"964 926 OFFCURVE",
"705 926 CURVE SMOOTH",
"576 926 OFFCURVE",
"468 881 OFFCURVE",
"381 793 CURVE",
"387 1248 LINE",
"985 1248 LINE SMOOTH",
"1044 1248 OFFCURVE",
"1073 1295 OFFCURVE",
"1073 1342 CURVE SMOOTH",
"1073 1389 OFFCURVE",
"1044 1436 OFFCURVE",
"985 1436 CURVE SMOOTH"
);
}
);
width = 1230;
},
{
layerId = "F10CBA7B-FAF3-4DDE-A14D-E99DB7E222CB";
name = Light;
paths = (
{
closed = 1;
nodes = (
"595 -22 CURVE SMOOTH",
"880 -22 OFFCURVE",
"1072 178 OFFCURVE",
"1072 457 CURVE SMOOTH",
"1072 720 OFFCURVE",
"904 924 OFFCURVE",
"640 924 CURVE SMOOTH",
"512 924 OFFCURVE",
"405 872 OFFCURVE",
"322 783 CURVE",
"324 1285 LINE",
"934 1285 LINE SMOOTH",
"981 1285 OFFCURVE",
"1003 1320 OFFCURVE",
"1003 1356 CURVE SMOOTH",
"1003 1391 OFFCURVE",
"981 1426 OFFCURVE",
"934 1426 CURVE SMOOTH",
"266 1426 LINE SMOOTH",
"210 1426 OFFCURVE",
"183 1395 OFFCURVE",
"183 1348 CURVE SMOOTH",
"183 665 LINE SMOOTH",
"183 614 OFFCURVE",
"216 588 OFFCURVE",
"253 588 CURVE SMOOTH",
"285 588 OFFCURVE",
"320 606 OFFCURVE",
"341 645 CURVE",
"378 706 OFFCURVE",
"466 787 OFFCURVE",
"610 787 CURVE SMOOTH",
"787 787 OFFCURVE",
"889 649 OFFCURVE",
"889 464 CURVE SMOOTH",
"889 267 OFFCURVE",
"789 118 OFFCURVE",
"578 118 CURVE SMOOTH",
"440 118 OFFCURVE",
"321 176 OFFCURVE",
"273 297 CURVE",
"254 330 OFFCURVE",
"228 344 OFFCURVE",
"204 344 CURVE SMOOTH",
"171 344 OFFCURVE",
"141 319 OFFCURVE",
"141 276 CURVE SMOOTH",
"141 261 OFFCURVE",
"145 249 OFFCURVE",
"152 230 CURVE SMOOTH",
"216 57 OFFCURVE",
"391 -22 OFFCURVE"
);
}
);
width = 1169;
},
{
layerId = "FB5FCFFA-D9F2-48E1-8F42-8D172ED4E960";
name = Bold;
paths = (
{
closed = 1;
nodes = (
"631 -26 CURVE SMOOTH",
"952 -26 OFFCURVE",
"1211 154 OFFCURVE",
"1211 457 CURVE SMOOTH",
"1211 760 OFFCURVE",
"1025 947 OFFCURVE",
"772 947 CURVE SMOOTH",
"643 947 OFFCURVE",
"535 906 OFFCURVE",
"448 824 CURVE",
"458 1213 LINE",
"1006 1213 LINE SMOOTH",
"1099 1213 OFFCURVE",
"1152 1250 OFFCURVE",
"1152 1333 CURVE SMOOTH",
"1152 1417 OFFCURVE",
"1094 1453 OFFCURVE",
"1025 1453 CURVE SMOOTH",
"382 1453 LINE SMOOTH",
"227 1453 OFFCURVE",
"160 1426 OFFCURVE",
"160 1288 CURVE SMOOTH",
"160 712 LINE SMOOTH",
"160 599 OFFCURVE",
"213 546 OFFCURVE",
"297 546 CURVE SMOOTH",
"382.5 546 OFFCURVE",
"420 593.5 OFFCURVE",
"461.75 641 CURVE SMOOTH",
"503.5 688.5 OFFCURVE",
"549.5 736 OFFCURVE",
"652 736 CURVE SMOOTH",
"772 736 OFFCURVE",
"854 640 OFFCURVE",
"854 472 CURVE SMOOTH",
"854 293 OFFCURVE",
"747 211 OFFCURVE",
"606 211 CURVE SMOOTH",
"506.618 211 OFFCURVE",
"411.765 252.581 OFFCURVE",
"341.5 299.25 CURVE SMOOTH",
"308 321.5 OFFCURVE",
"279 340 OFFCURVE",
"254 340 CURVE SMOOTH",
"198 340 OFFCURVE",
"159 289 OFFCURVE",
"159 237 CURVE SMOOTH",
"159 196.433 OFFCURVE",
"179.474 149.464 OFFCURVE",
"212.063 112.622 CURVE SMOOTH",
"295.368 18.4458 OFFCURVE",
"476.583 -26 OFFCURVE"
);
}
);
width = 1299;
}
);
unicode = 0035;
},
{
glyphname = six;
lastChange = "2013-12-10 18:24:04 -0800";
layers = (
{
layerId = "EBB1D39D-5A31-45B3-B44F-04CD128BFFB4";
name = Regular;
paths = (
{
closed = 1;
nodes = (
"204 1438 OFFCURVE",
"82 1055 OFFCURVE",
"82 647 CURVE SMOOTH",
"82 280 OFFCURVE",
"228 -23 OFFCURVE",
"640 -23 CURVE SMOOTH",
"955 -23 OFFCURVE",
"1148 179 OFFCURVE",
"1148 462 CURVE SMOOTH",
"1148 738 OFFCURVE",
"969 916 OFFCURVE",
"696 916 CURVE SMOOTH",
"546 916 OFFCURVE",
"410 857 OFFCURVE",
"343 726 CURVE",
"340 727 LINE",
"340 979 OFFCURVE",
"404 1244 OFFCURVE",
"714 1244 CURVE SMOOTH",
"783 1244 OFFCURVE",
"868 1223 OFFCURVE",
"953 1192 CURVE SMOOTH",
"960 1189 OFFCURVE",
"968 1188 OFFCURVE",
"977 1188 CURVE SMOOTH",
"1029 1188 OFFCURVE",
"1066 1240 OFFCURVE",
"1066 1291 CURVE SMOOTH",
"1066 1322 OFFCURVE",
"1052 1352 OFFCURVE",
"1017 1368 CURVE",
"921 1415 OFFCURVE",
"808 1438 OFFCURVE",
"701 1438 CURVE SMOOTH"
);
},
{
closed = 1;
nodes = (
"823 753 OFFCURVE",
"899 619 OFFCURVE",
"899 452 CURVE SMOOTH",
"899 276 OFFCURVE",
"803 161 OFFCURVE",
"631 161 CURVE SMOOTH",
"475 161 OFFCURVE",
"365 283 OFFCURVE",
"365 446 CURVE SMOOTH",
"365 627 OFFCURVE",
"465 753 OFFCURVE",
"649 753 CURVE SMOOTH"
);
}
);
width = 1230;
},
{
layerId = "F10CBA7B-FAF3-4DDE-A14D-E99DB7E222CB";
name = Light;
paths = (
{
closed = 1;
nodes = (
"613 -22 CURVE SMOOTH",
"897 -22 OFFCURVE",
"1081 164 OFFCURVE",
"1081 464 CURVE SMOOTH",
"1081 748 OFFCURVE",
"918 922 OFFCURVE",
"640 926 CURVE",
"476 926 OFFCURVE",
"342 857 OFFCURVE",
"271 714 CURVE",
"271 969 OFFCURVE",
"320 1294 OFFCURVE",
"674 1294 CURVE SMOOTH",
"745 1294 OFFCURVE",
"831 1273 OFFCURVE",
"920 1238 CURVE SMOOTH",
"960 1224.67 OFFCURVE",
"1003 1269.47 OFFCURVE",
"1003 1313 CURVE SMOOTH",
"1003 1334 OFFCURVE",
"994 1355 OFFCURVE",
"971 1366 CURVE",
"882 1413 OFFCURVE",
"777 1438 OFFCURVE",
"666 1438 CURVE SMOOTH",
"171 1438 OFFCURVE",
"89 1023 OFFCURVE",
"89 655 CURVE SMOOTH",
"89 296 OFFCURVE",
"203 -22 OFFCURVE"
);
},
{
closed = 1;
nodes = (
"597 118 CURVE SMOOTH",
"429 118 OFFCURVE",
"295 244 OFFCURVE",
"295 447 CURVE SMOOTH",
"295 662 OFFCURVE",
"409 795 OFFCURVE",
"620 799 CURVE",
"819 794 OFFCURVE",
"902 651 OFFCURVE",
"902 455 CURVE SMOOTH",
"902 233 OFFCURVE",
"785 118 OFFCURVE"
);
}
);
width = 1169;
},
{
layerId = "FB5FCFFA-D9F2-48E1-8F42-8D172ED4E960";
name = Bold;
paths = (
{
closed = 1;
nodes = (
"670 -25 CURVE SMOOTH",
"1010 -25 OFFCURVE",
"1225 179 OFFCURVE",
"1225 476 CURVE SMOOTH",
"1225 766 OFFCURVE",
"1021 931 OFFCURVE",
"765 931 CURVE SMOOTH",
"625 931 OFFCURVE",
"519.955 669.045 OFFCURVE",
"419 770 CURVE",
"419 1030 OFFCURVE",
"506 1215 OFFCURVE",
"760 1215 CURVE SMOOTH",
"849.412 1215 OFFCURVE",
"981 1164 OFFCURVE",
"1021 1164 CURVE SMOOTH",
"1089 1164 OFFCURVE",
"1137 1229 OFFCURVE",
"1137 1294 CURVE SMOOTH",
"1137 1337 OFFCURVE",
"1116 1378 OFFCURVE",
"1069 1399 CURVE SMOOTH",
"965 1446 OFFCURVE",
"844 1467 OFFCURVE",
"741 1467 CURVE SMOOTH",
"234 1467 OFFCURVE",
"74 1110 OFFCURVE",
"74 666 CURVE SMOOTH",
"74 258 OFFCURVE",
"252 -25 OFFCURVE"
);
},
{
closed = 1;
nodes = (
"670 209 CURVE SMOOTH",
"534 209 OFFCURVE",
"445 305 OFFCURVE",
"445 462 CURVE SMOOTH",
"445 627 OFFCURVE",
"527 729 OFFCURVE",
"682 729 CURVE SMOOTH",
"828 729 OFFCURVE",
"896 622 OFFCURVE",
"896 466 CURVE SMOOTH",
"896 299 OFFCURVE",
"815 209 OFFCURVE"
);
}
);
width = 1299;
}
);
unicode = 0036;
},
{
glyphname = seven;
lastChange = "2013-12-10 18:24:04 -0800";
layers = (
{
layerId = "EBB1D39D-5A31-45B3-B44F-04CD128BFFB4";
name = Regular;
paths = (
{
closed = 1;
nodes = (
"199 1436 LINE SMOOTH",
"132 1436 OFFCURVE",
"100 1386 OFFCURVE",
"100 1337 CURVE SMOOTH",
"100 1287 OFFCURVE",
"132 1238 OFFCURVE",
"199 1238 CURVE SMOOTH",
"831 1238 LINE",
"356 179 LINE SMOOTH",
"346 158 OFFCURVE",
"340 138 OFFCURVE",
"341 120 CURVE",
"341 49 OFFCURVE",
"408 0 OFFCURVE",
"475 0 CURVE SMOOTH",
"519 0 OFFCURVE",
"565 23 OFFCURVE",
"589 74 CURVE",
"1082 1212 LINE SMOOTH",
"1099 1251 OFFCURVE",
"1109 1286 OFFCURVE",
"1109 1318 CURVE SMOOTH",
"1109 1387 OFFCURVE",
"1065 1436 OFFCURVE",
"968 1436 CURVE SMOOTH"
);
}
);
width = 1230;
},
{
layerId = "F10CBA7B-FAF3-4DDE-A14D-E99DB7E222CB";
name = Light;
paths = (
{
closed = 1;
nodes = (
"434 0 CURVE SMOOTH",
"465 0 OFFCURVE",
"497 14 OFFCURVE",
"512 49 CURVE SMOOTH",
"1029 1267 LINE",
"1040 1290 OFFCURVE",
"1045 1313 OFFCURVE",
"1045 1336 CURVE SMOOTH",
"1045 1387 OFFCURVE",
"1013 1426 OFFCURVE",
"941 1426 CURVE SMOOTH",
"176 1426 LINE SMOOTH",
"127 1426 OFFCURVE",
"103 1389 OFFCURVE",
"103 1353 CURVE SMOOTH",
"103 1317 OFFCURVE",
"127 1281 OFFCURVE",
"176 1281 CURVE SMOOTH",
"856 1281 LINE",
"347 119 LINE SMOOTH",
"341 106 OFFCURVE",
"338 94 OFFCURVE",
"338 83 CURVE SMOOTH",
"338 34 OFFCURVE",
"387 0 OFFCURVE"
);
}
);
width = 1169;
},
{
layerId = "FB5FCFFA-D9F2-48E1-8F42-8D172ED4E960";
name = Bold;
paths = (
{
closed = 1;
nodes = (
"521 0 CURVE SMOOTH",
"584 0 OFFCURVE",
"642 33 OFFCURVE",
"677 102 CURVE",
"1099 1057 LINE SMOOTH",
"1139 1148 OFFCURVE",
"1177 1241 OFFCURVE",
"1177 1312 CURVE SMOOTH",
"1177 1429 OFFCURVE",
"1085 1453 OFFCURVE",
"949 1453 CURVE SMOOTH",
"276 1453 LINE SMOOTH",
"157 1453 OFFCURVE",
"97 1410 OFFCURVE",
"97 1323 CURVE SMOOTH",
"97 1230 OFFCURVE",
"171 1194 OFFCURVE",
"275 1194 CURVE SMOOTH",
"803 1194 LINE",
"400 321 LINE SMOOTH",
"374 264 OFFCURVE",
"347 206 OFFCURVE",
"348 157 CURVE",
"348 65 OFFCURVE",
"431 0 OFFCURVE"
);
}
);
width = 1299;
}
);
unicode = 0037;
},
{
glyphname = eight;
lastChange = "2013-12-10 18:24:04 -0800";
layers = (
{
layerId = "EBB1D39D-5A31-45B3-B44F-04CD128BFFB4";
name = Regular;
paths = (
{
closed = 1;
nodes = (
"329 1438 OFFCURVE",
"104 1304 OFFCURVE",
"104 1049 CURVE SMOOTH",
"104 880 OFFCURVE",
"219 754 OFFCURVE",
"383 733 CURVE",
"383 729 LINE",
"191 689 OFFCURVE",
"79 562 OFFCURVE",
"79 385 CURVE SMOOTH",
"79 128 OFFCURVE",
"297 -23 OFFCURVE",
"614 -23 CURVE SMOOTH",
"933 -23 OFFCURVE",
"1151 128 OFFCURVE",
"1151 385 CURVE SMOOTH",
"1151 566 OFFCURVE",
"1043 684 OFFCURVE",
"848 731 CURVE",
"848 733 LINE",
"1012 768 OFFCURVE",
"1127 878 OFFCURVE",
"1127 1049 CURVE SMOOTH",
"1127 1304 OFFCURVE",
"901 1438 OFFCURVE",
"614 1438 CURVE SMOOTH"
);
},
{
closed = 1;
nodes = (
"759 645 OFFCURVE",
"889 573 OFFCURVE",
"889 403 CURVE SMOOTH",
"889 233 OFFCURVE",
"759 161 OFFCURVE",
"615 161 CURVE SMOOTH",
"470 161 OFFCURVE",
"340 233 OFFCURVE",
"340 403 CURVE SMOOTH",
"340 573 OFFCURVE",
"470 645 OFFCURVE",
"615 645 CURVE SMOOTH"
);
},
{
closed = 1;
nodes = (
"747 1262 OFFCURVE",
"877 1198 OFFCURVE",
"877 1041 CURVE SMOOTH",
"877 893 OFFCURVE",
"769 822 OFFCURVE",
"615 822 CURVE SMOOTH",
"463 822 OFFCURVE",
"354 893 OFFCURVE",
"354 1041 CURVE SMOOTH",
"354 1198 OFFCURVE",
"484 1262 OFFCURVE",
"615 1262 CURVE SMOOTH"
);
}
);
width = 1230;
},
{
layerId = "F10CBA7B-FAF3-4DDE-A14D-E99DB7E222CB";
name = Light;
paths = (
{
closed = 1;
nodes = (
"584 -22 CURVE SMOOTH",
"848 -22 OFFCURVE",
"1084 113 OFFCURVE",
"1084 377 CURVE SMOOTH",
"1084 557 OFFCURVE",
"970 682 OFFCURVE",
"779 735 CURVE",
"779 737 LINE",
"942.571 769.31 OFFCURVE",
"1062 895.618 OFFCURVE",
"1062 1064 CURVE SMOOTH",
"1062 1316 OFFCURVE",
"832 1438 OFFCURVE",
"584 1438 CURVE SMOOTH",
"339 1438 OFFCURVE",
"107 1316 OFFCURVE",
"107 1064 CURVE SMOOTH",
"107 907 OFFCURVE",
"232 754 OFFCURVE",
"392 737 CURVE",
"392 733 LINE",
"204 695 OFFCURVE",
"85 551 OFFCURVE",
"85 377 CURVE SMOOTH",
"85 113 OFFCURVE",
"320 -22 OFFCURVE"
);
},
{
closed = 1;
nodes = (
"584 118 CURVE SMOOTH",
"420 118 OFFCURVE",
"267 202 OFFCURVE",
"267 383 CURVE SMOOTH",
"267 569 OFFCURVE",
"418 664 OFFCURVE",
"584 664 CURVE SMOOTH",
"750 664 OFFCURVE",
"901 569 OFFCURVE",
"901 383 CURVE SMOOTH",
"901 202 OFFCURVE",
"750 118 OFFCURVE"
);
},
{
closed = 1;
nodes = (
"584 818 CURVE SMOOTH",
"408 818 OFFCURVE",
"279 898 OFFCURVE",
"279 1061 CURVE SMOOTH",
"279 1236 OFFCURVE",
"436 1307 OFFCURVE",
"584 1307 CURVE SMOOTH",
"734 1307 OFFCURVE",
"890 1236 OFFCURVE",
"890 1061 CURVE SMOOTH",
"890 898 OFFCURVE",
"762 818 OFFCURVE"
);
}
);
width = 1169;
},
{
layerId = "FB5FCFFA-D9F2-48E1-8F42-8D172ED4E960";
name = Bold;
paths = (
{
closed = 1;
nodes = (
"648 -25 CURVE SMOOTH",
"1025 -25 OFFCURVE",
"1227 145 OFFCURVE",
"1227 388 CURVE SMOOTH",
"1227 579 OFFCURVE",
"1118 694 OFFCURVE",
"926 741 CURVE",
"926 743 LINE",
"1090 778 OFFCURVE",
"1201 883 OFFCURVE",
"1201 1060 CURVE SMOOTH",
"1201 1323 OFFCURVE",
"974 1467 OFFCURVE",
"648 1467 CURVE SMOOTH",
"314 1467 OFFCURVE",
"100 1312 OFFCURVE",
"100 1060 CURVE SMOOTH",
"100 884 OFFCURVE",
"209 767 OFFCURVE",
"372 743 CURVE",
"372 739 LINE",
"171 699 OFFCURVE",
"72 558 OFFCURVE",
"72 388 CURVE SMOOTH",
"72 149 OFFCURVE",
"264 -25 OFFCURVE"
);
},
{
closed = 1;
nodes = (
"650 209 CURVE SMOOTH",
"523 209 OFFCURVE",
"423 272 OFFCURVE",
"423 420 CURVE SMOOTH",
"423 570 OFFCURVE",
"528 632 OFFCURVE",
"650 632 CURVE SMOOTH",
"778 632 OFFCURVE",
"876 562 OFFCURVE",
"876 420 CURVE SMOOTH",
"876 264 OFFCURVE",
"762 209 OFFCURVE"
);
},
{
closed = 1;
nodes = (
"650 854 CURVE SMOOTH",
"526 854 OFFCURVE",
"439 912 OFFCURVE",
"439 1046 CURVE SMOOTH",
"439 1183 OFFCURVE",
"538 1239 OFFCURVE",
"650 1239 CURVE SMOOTH",
"761 1239 OFFCURVE",
"861 1184 OFFCURVE",
"861 1046 CURVE SMOOTH",
"861 911 OFFCURVE",
"775 854 OFFCURVE"
);
}
);
width = 1299;
}
);
unicode = 0038;
},
{
glyphname = nine;
lastChange = "2013-12-10 18:24:04 -0800";
layers = (
{
layerId = "EBB1D39D-5A31-45B3-B44F-04CD128BFFB4";
name = Regular;
paths = (
{
closed = 1;
nodes = (
"276 1462 OFFCURVE",
"82 1262 OFFCURVE",
"82 982 CURVE SMOOTH",
"82 710 OFFCURVE",
"260 535 OFFCURVE",
"535 535 CURVE SMOOTH",
"686 535 OFFCURVE",
"820 593 OFFCURVE",
"890 722 CURVE SMOOTH",
"890 721 OFFCURVE",
"893 721 OFFCURVE",
"893 720 CURVE SMOOTH",
"893 438 OFFCURVE",
"827 172 OFFCURVE",
"532 172 CURVE SMOOTH",
"457 172 OFFCURVE",
"370 190 OFFCURVE",
"278 223 CURVE SMOOTH",
"270 226 OFFCURVE",
"262 227 OFFCURVE",
"254 227 CURVE SMOOTH",
"201 227 OFFCURVE",
"164 173 OFFCURVE",
"164 122 CURVE SMOOTH",
"164 91 OFFCURVE",
"178 60 OFFCURVE",
"213 45 CURVE",
"309 0 OFFCURVE",
"423 -24 OFFCURVE",
"531 -24 CURVE SMOOTH",
"1030 -24 OFFCURVE",
"1152 380 OFFCURVE",
"1152 800 CURVE SMOOTH",
"1152 1161 OFFCURVE",
"1004 1462 OFFCURVE",
"592 1462 CURVE SMOOTH"
);
},
{
closed = 1;
nodes = (
"758 1281 OFFCURVE",
"868 1158 OFFCURVE",
"868 998 CURVE SMOOTH",
"868 818 OFFCURVE",
"767 695 OFFCURVE",
"582 695 CURVE SMOOTH",
"408 695 OFFCURVE",
"332 827 OFFCURVE",
"332 992 CURVE SMOOTH",
"332 1168 OFFCURVE",
"428 1281 OFFCURVE",
"601 1281 CURVE SMOOTH"
);
}
);
width = 1230;
},
{
layerId = "F10CBA7B-FAF3-4DDE-A14D-E99DB7E222CB";
name = Light;
paths = (
{
closed = 1;
nodes = (
"504 -22 CURVE SMOOTH",
"1011 -22 OFFCURVE",
"1081 456 OFFCURVE",
"1081 787 CURVE SMOOTH",
"1081 1127 OFFCURVE",
"957 1438 OFFCURVE",
"556 1438 CURVE SMOOTH",
"265 1438 OFFCURVE",
"89 1235 OFFCURVE",
"89 968 CURVE SMOOTH",
"89 703 OFFCURVE",
"251 517 OFFCURVE",
"529 517 CURVE SMOOTH",
"690 517 OFFCURVE",
"830 585 OFFCURVE",
"895 728 CURVE",
"895 728 OFFCURVE",
"896 728 OFFCURVE",
"899 728 CURVE",
"899 448 OFFCURVE",
"839 126 OFFCURVE",
"511 126 CURVE SMOOTH",
"438 126 OFFCURVE",
"345 145 OFFCURVE",
"249 182 CURVE SMOOTH",
"209 195.333 OFFCURVE",
"166 151.059 OFFCURVE",
"166 104 CURVE SMOOTH",
"166 81 OFFCURVE",
"175 61 OFFCURVE",
"198 50 CURVE",
"287 3 OFFCURVE",
"393 -22 OFFCURVE"
);
},
{
closed = 1;
nodes = (
"549 643 CURVE SMOOTH",
"350 643 OFFCURVE",
"268 801 OFFCURVE",
"268 977 CURVE SMOOTH",
"268 1164 OFFCURVE",
"376 1298 OFFCURVE",
"572 1298 CURVE SMOOTH",
"748 1298 OFFCURVE",
"874 1153 OFFCURVE",
"874 985 CURVE SMOOTH",
"874 790 OFFCURVE",
"760 643 OFFCURVE"
);
}
);
width = 1169;
},
{
layerId = "FB5FCFFA-D9F2-48E1-8F42-8D172ED4E960";
name = Bold;
paths = (
{
closed = 1;
nodes = (
"558 -33 CURVE SMOOTH",
"1061 -33 OFFCURVE",
"1225 345 OFFCURVE",
"1225 787 CURVE SMOOTH",
"1225 1190 OFFCURVE",
"1048 1478 OFFCURVE",
"628 1478 CURVE SMOOTH",
"279 1478 OFFCURVE",
"74 1266 OFFCURVE",
"74 977 CURVE SMOOTH",
"74 686 OFFCURVE",
"268 532 OFFCURVE",
"514 521 CURVE",
"657 521 OFFCURVE",
"797 556 OFFCURVE",
"878 685 CURVE SMOOTH",
"878 684 OFFCURVE",
"880 684 OFFCURVE",
"880 683 CURVE SMOOTH",
"880 397 OFFCURVE",
"786 223 OFFCURVE",
"548 223 CURVE SMOOTH",
"462 223 OFFCURVE",
"366 262 OFFCURVE",
"286 262 CURVE SMOOTH",
"210 262 OFFCURVE",
"161 210 OFFCURVE",
"161 141 CURVE SMOOTH",
"161 94 OFFCURVE",
"182 55 OFFCURVE",
"229 36 CURVE",
"328 -11 OFFCURVE",
"451 -33 OFFCURVE"
);
},
{
closed = 1;
nodes = (
"616 724 CURVE SMOOTH",
"471 724 OFFCURVE",
"403 830 OFFCURVE",
"403 987 CURVE SMOOTH",
"403 1154 OFFCURVE",
"484 1245 OFFCURVE",
"629 1245 CURVE SMOOTH",
"761 1245 OFFCURVE",
"854 1146 OFFCURVE",
"854 991 CURVE SMOOTH",
"854 822 OFFCURVE",
"769 724 OFFCURVE"
);
}
);
width = 1299;
}
);
unicode = 0039;
},
{
glyphname = colon;
lastChange = "2013-12-10 18:24:04 -0800";
layers = (
{
layerId = "EBB1D39D-5A31-45B3-B44F-04CD128BFFB4";
name = Regular;
paths = (
{
closed = 1;
nodes = (
"224 1025 OFFCURVE",
"171 964 OFFCURVE",
"171 896 CURVE SMOOTH",
"171 828 OFFCURVE",
"224 768 OFFCURVE",
"307 768 CURVE SMOOTH",
"390 768 OFFCURVE",
"443 828 OFFCURVE",
"443 896 CURVE SMOOTH",
"443 964 OFFCURVE",
"390 1025 OFFCURVE",
"307 1025 CURVE SMOOTH"
);
},
{
closed = 1;
nodes = (
"224 254 OFFCURVE",
"171 193 OFFCURVE",
"171 126 CURVE SMOOTH",
"171 58 OFFCURVE",
"224 -3 OFFCURVE",
"307 -3 CURVE SMOOTH",
"390 -3 OFFCURVE",
"443 58 OFFCURVE",
"443 126 CURVE SMOOTH",
"443 193 OFFCURVE",
"390 254 OFFCURVE",
"307 254 CURVE SMOOTH"
);
}
);
width = 615;
},
{
layerId = "F10CBA7B-FAF3-4DDE-A14D-E99DB7E222CB";
name = Light;
paths = (
{
closed = 1;
nodes = (
"292 -1 CURVE SMOOTH",
"360 -1 OFFCURVE",
"399 47 OFFCURVE",
"399 97 CURVE SMOOTH",
"399 145 OFFCURVE",
"360 194 OFFCURVE",
"292 194 CURVE SMOOTH",
"223 194 OFFCURVE",
"184 145 OFFCURVE",
"184 97 CURVE SMOOTH",
"184 47 OFFCURVE",
"223 -1 OFFCURVE"
);
},
{
closed = 1;
nodes = (
"292 805 CURVE SMOOTH",
"360 805 OFFCURVE",
"399 851 OFFCURVE",
"399 902 CURVE SMOOTH",
"399 952 OFFCURVE",
"360 1000 OFFCURVE",
"292 1000 CURVE SMOOTH",
"223 1000 OFFCURVE",
"184 952 OFFCURVE",
"184 902 CURVE SMOOTH",
"184 851 OFFCURVE",
"223 805 OFFCURVE"
);
}
);
width = 584;
},
{
layerId = "FB5FCFFA-D9F2-48E1-8F42-8D172ED4E960";
name = Bold;
paths = (
{
closed = 1;
nodes = (
"324 -6 CURVE SMOOTH",
"420 -6 OFFCURVE",
"493 69 OFFCURVE",
"493 158 CURVE SMOOTH",
"493 256 OFFCURVE",
"412 322 OFFCURVE",
"324 322 CURVE SMOOTH",
"225 322 OFFCURVE",
"155 245 OFFCURVE",
"155 158 CURVE SMOOTH",
"155 65 OFFCURVE",
"232 -6 OFFCURVE"
);
},
{
closed = 1;
nodes = (
"324 726 CURVE SMOOTH",
"423 726 OFFCURVE",
"493 801 OFFCURVE",
"493 889 CURVE SMOOTH",
"493 985 OFFCURVE",
"413 1053 OFFCURVE",
"324 1053 CURVE SMOOTH",
"225 1053 OFFCURVE",
"155 976 OFFCURVE",
"155 889 CURVE SMOOTH",
"155 790 OFFCURVE",
"233 726 OFFCURVE"
);
}
);
width = 649;
}
);
unicode = 003A;
},
{
glyphname = semicolon;
lastChange = "2013-12-10 18:24:04 -0800";
layers = (
{
layerId = "EBB1D39D-5A31-45B3-B44F-04CD128BFFB4";
name = Regular;
paths = (
{
closed = 1;
nodes = (
"222 238 LINE",
"118 -232 LINE",
"319 -232 LINE",
"481 238 LINE"
);
},
{
closed = 1;
nodes = (
"254 1021 OFFCURVE",
"201 960 OFFCURVE",
"201 893 CURVE SMOOTH",
"201 824 OFFCURVE",
"254 764 OFFCURVE",
"338 764 CURVE SMOOTH",
"421 764 OFFCURVE",
"474 824 OFFCURVE",
"474 893 CURVE SMOOTH",
"474 960 OFFCURVE",
"421 1021 OFFCURVE",
"338 1021 CURVE SMOOTH"
);
}
);
width = 615;
},
{
layerId = "F10CBA7B-FAF3-4DDE-A14D-E99DB7E222CB";
name = Light;
paths = (
{
closed = 1;
nodes = (
"146 -240 LINE",
"284 -240 LINE",
"436 185 LINE",
"239 185 LINE"
);
},
{
closed = 1;
nodes = (
"317 825 CURVE SMOOTH",
"386 825 OFFCURVE",
"425 873 OFFCURVE",
"425 924 CURVE SMOOTH",
"425 973 OFFCURVE",
"386 1020 OFFCURVE",
"317 1020 CURVE SMOOTH",
"248 1020 OFFCURVE",
"210 973 OFFCURVE",
"210 924 CURVE SMOOTH",
"210 873 OFFCURVE",
"248 825 OFFCURVE"
);
}
);
width = 584;
},
{
layerId = "FB5FCFFA-D9F2-48E1-8F42-8D172ED4E960";
name = Bold;
paths = (
{
closed = 1;
nodes = (
"86 -223 LINE",
"359 -223 LINE",
"532 298 LINE",
"202 298 LINE"
);
},
{
closed = 1;
nodes = (
"361 736 CURVE SMOOTH",
"460 736 OFFCURVE",
"530 810 OFFCURVE",
"530 901 CURVE SMOOTH",
"530 996 OFFCURVE",
"450 1064 OFFCURVE",
"361 1064 CURVE SMOOTH",
"261 1064 OFFCURVE",
"191 986 OFFCURVE",
"191 901 CURVE SMOOTH",
"191 802 OFFCURVE",
"271 736 OFFCURVE"
);
}
);
width = 649;
}
);
unicode = 003B;
},
{
glyphname = less;
lastChange = "2013-12-10 18:24:04 -0800";
layers = (
{
layerId = "EBB1D39D-5A31-45B3-B44F-04CD128BFFB4";
name = Regular;
paths = (
{
closed = 1;
nodes = (
"1079 965 OFFCURVE",
"1068 963 OFFCURVE",
"1059 960 CURVE",
"194 597 LINE SMOOTH",
"143 576 OFFCURVE",
"120 537 OFFCURVE",
"120 500 CURVE SMOOTH",
"120 464 OFFCURVE",
"143 427 OFFCURVE",
"192 406 CURVE SMOOTH",
"1061 28 LINE SMOOTH",
"1072 23 OFFCURVE",
"1083 21 OFFCURVE",
"1094 21 CURVE SMOOTH",
"1139 21 OFFCURVE",
"1170 61 OFFCURVE",
"1170 101 CURVE SMOOTH",
"1170 129 OFFCURVE",
"1157 154 OFFCURVE",
"1122 169 CURVE SMOOTH",
"359 500 LINE",
"1120 816 LINE SMOOTH",
"1155 830 OFFCURVE",
"1170 856 OFFCURVE",
"1170 884 CURVE SMOOTH",
"1170 924 OFFCURVE",
"1137 965 OFFCURVE",
"1090 965 CURVE SMOOTH"
);
}
);
width = 1315;
},
{
layerId = "F10CBA7B-FAF3-4DDE-A14D-E99DB7E222CB";
name = Light;
paths = (
{
closed = 1;
nodes = (
"1117 16 CURVE SMOOTH",
"1154 16 OFFCURVE",
"1181 49 OFFCURVE",
"1181 82 CURVE SMOOTH",
"1181 104 OFFCURVE",
"1170 125 OFFCURVE",
"1142 138 CURVE SMOOTH",
"338 495 LINE",
"1139 833 LINE SMOOTH",
"1168 845 OFFCURVE",
"1180 866 OFFCURVE",
"1180 889 CURVE SMOOTH",
"1180 922 OFFCURVE",
"1152 956 OFFCURVE",
"1112 956 CURVE SMOOTH",
"1103 956 OFFCURVE",
"1095 955 OFFCURVE",
"1087 952 CURVE SMOOTH",
"200 574 LINE SMOOTH",
"157 555 OFFCURVE",
"138 523 OFFCURVE",
"138 495 CURVE SMOOTH",
"138 467 OFFCURVE",
"156 437 OFFCURVE",
"197 419 CURVE SMOOTH",
"1089 22 LINE SMOOTH",
"1099 18 OFFCURVE",
"1108 16 OFFCURVE"
);
}
);
width = 1340;
},
{
layerId = "FB5FCFFA-D9F2-48E1-8F42-8D172ED4E960";
name = Bold;
paths = (
{
closed = 1;
nodes = (
"1066 29 CURVE SMOOTH",
"1119 29 OFFCURVE",
"1158 72 OFFCURVE",
"1158 123 CURVE SMOOTH",
"1158 173 OFFCURVE",
"1111 202 OFFCURVE",
"1052 226 CURVE SMOOTH",
"828 319 OFFCURVE",
"607 413 OFFCURVE",
"383 506 CURVE",
"1050 776 LINE SMOOTH",
"1109 800 OFFCURVE",
"1158 825 OFFCURVE",
"1158 878 CURVE SMOOTH",
"1158 927 OFFCURVE",
"1117 973 OFFCURVE",
"1061 973 CURVE SMOOTH",
"1038 973 OFFCURVE",
"1005 959 OFFCURVE",
"978 948 CURVE SMOOTH",
"212 633 LINE",
"136 600 OFFCURVE",
"100 563 OFFCURVE",
"100 506 CURVE SMOOTH",
"100 458 OFFCURVE",
"130 414 OFFCURVE",
"186 391 CURVE SMOOTH",
"981 55 LINE",
"1008 42 OFFCURVE",
"1042 29 OFFCURVE"
);
}
);
width = 1287;
}
);
unicode = 003C;
},
{
glyphname = equal;
lastChange = "2013-12-10 18:24:04 -0800";
layers = (
{
layerId = "EBB1D39D-5A31-45B3-B44F-04CD128BFFB4";
name = Regular;
paths = (
{
closed = 1;
nodes = (
"229 793 LINE SMOOTH",
"181 793 OFFCURVE",
"144 756 OFFCURVE",
"144 709 CURVE SMOOTH",
"144 664 OFFCURVE",
"181 626 OFFCURVE",
"229 626 CURVE SMOOTH",
"1086 626 LINE SMOOTH",
"1134 626 OFFCURVE",
"1171 664 OFFCURVE",
"1171 709 CURVE SMOOTH",
"1171 756 OFFCURVE",
"1133 793 OFFCURVE",
"1086 793 CURVE SMOOTH"
);
},
{
closed = 1;
nodes = (
"229 376 LINE SMOOTH",
"181 376 OFFCURVE",
"144 340 OFFCURVE",
"144 292 CURVE SMOOTH",
"144 247 OFFCURVE",
"181 210 OFFCURVE",
"229 210 CURVE SMOOTH",
"1086 210 LINE SMOOTH",
"1134 210 OFFCURVE",
"1171 247 OFFCURVE",
"1171 292 CURVE SMOOTH",
"1171 340 OFFCURVE",
"1133 376 OFFCURVE",
"1086 376 CURVE SMOOTH"
);
}
);
width = 1315;
},
{
layerId = "F10CBA7B-FAF3-4DDE-A14D-E99DB7E222CB";
name = Light;
paths = (
{
closed = 1;
nodes = (
"227 233 CURVE SMOOTH",
"1113 233 LINE SMOOTH",
"1152 233 OFFCURVE",
"1182 263 OFFCURVE",
"1182 299 CURVE SMOOTH",
"1182 338 OFFCURVE",
"1152 367 OFFCURVE",
"1113 367 CURVE SMOOTH",
"227 367 LINE SMOOTH",
"188 367 OFFCURVE",
"157 338 OFFCURVE",
"157 299 CURVE SMOOTH",
"157 263 OFFCURVE",
"188 233 OFFCURVE"
);
},
{
closed = 1;
nodes = (
"227 625 CURVE SMOOTH",
"1113 625 LINE SMOOTH",
"1152 625 OFFCURVE",
"1182 656 OFFCURVE",
"1182 692 CURVE SMOOTH",
"1182 731 OFFCURVE",
"1152 760 OFFCURVE",
"1113 760 CURVE SMOOTH",
"227 760 LINE SMOOTH",
"188 760 OFFCURVE",
"157 731 OFFCURVE",
"157 692 CURVE SMOOTH",
"157 656 OFFCURVE",
"188 625 OFFCURVE"
);
}
);
width = 1340;
},
{
layerId = "FB5FCFFA-D9F2-48E1-8F42-8D172ED4E960";
name = Bold;
paths = (
{
closed = 1;
nodes = (
"231 184 CURVE SMOOTH",
"1017 184 LINE SMOOTH",
"1087 184 OFFCURVE",
"1158 205 OFFCURVE",
"1158 284 CURVE SMOOTH",
"1158 365 OFFCURVE",
"1087 387 OFFCURVE",
"1036 387 CURVE SMOOTH",
"269 387 LINE SMOOTH",
"197 387 OFFCURVE",
"128 362 OFFCURVE",
"128 284 CURVE SMOOTH",
"128 224 OFFCURVE",
"178 184 OFFCURVE"
);
},
{
closed = 1;
nodes = (
"231 627 CURVE SMOOTH",
"1016 627 LINE SMOOTH",
"1088 627 OFFCURVE",
"1158 651 OFFCURVE",
"1158 728 CURVE SMOOTH",
"1158 813 OFFCURVE",
"1080 831 OFFCURVE",
"1016 831 CURVE SMOOTH",
"271 831 LINE SMOOTH",
"197 831 OFFCURVE",
"128 806 OFFCURVE",
"128 728 CURVE SMOOTH",
"128 669 OFFCURVE",
"176 627 OFFCURVE"
);
}
);
width = 1287;
}
);
unicode = 003D;
},
{
glyphname = greater;
lastChange = "2013-12-10 18:24:04 -0800";
layers = (
{
layerId = "EBB1D39D-5A31-45B3-B44F-04CD128BFFB4";
name = Regular;
paths = (
{
closed = 1;
nodes = (
"172 979 OFFCURVE",
"141 938 OFFCURVE",
"141 898 CURVE SMOOTH",
"141 871 OFFCURVE",
"155 845 OFFCURVE",
"188 831 CURVE SMOOTH",
"952 500 LINE",
"190 184 LINE SMOOTH",
"155 169 OFFCURVE",
"142 144 OFFCURVE",
"142 116 CURVE SMOOTH",
"142 75 OFFCURVE",
"173 34 OFFCURVE",
"220 34 CURVE SMOOTH",
"229 34 OFFCURVE",
"240 36 OFFCURVE",
"251 40 CURVE SMOOTH",
"1116 403 LINE SMOOTH",
"1167 424 OFFCURVE",
"1190 461 OFFCURVE",
"1190 500 CURVE SMOOTH",
"1190 536 OFFCURVE",
"1168 573 OFFCURVE",
"1119 594 CURVE SMOOTH",
"250 972 LINE SMOOTH",
"239 977 OFFCURVE",
"228 979 OFFCURVE",
"217 979 CURVE SMOOTH"
);
}
);
width = 1315;
},
{
layerId = "F10CBA7B-FAF3-4DDE-A14D-E99DB7E222CB";
name = Light;
paths = (
{
closed = 1;
nodes = (
"226 33 CURVE SMOOTH",
"233 33 OFFCURVE",
"242 35 OFFCURVE",
"252 38 CURVE",
"1139 416 LINE SMOOTH",
"1182 434 OFFCURVE",
"1201 464 OFFCURVE",
"1201 495 CURVE SMOOTH",
"1201 521 OFFCURVE",
"1183 553 OFFCURVE",
"1142 571 CURVE SMOOTH",
"250 968 LINE SMOOTH",
"240 972 OFFCURVE",
"230 974 OFFCURVE",
"221 974 CURVE SMOOTH",
"184 974 OFFCURVE",
"158 941 OFFCURVE",
"158 908 CURVE SMOOTH",
"158 885 OFFCURVE",
"170 864 OFFCURVE",
"197 852 CURVE SMOOTH",
"1001 495 LINE",
"199 157 LINE SMOOTH",
"171 145 OFFCURVE",
"159 124 OFFCURVE",
"159 101 CURVE SMOOTH",
"159 66 OFFCURVE",
"186 33 OFFCURVE"
);
}
);
width = 1340;
},
{
layerId = "FB5FCFFA-D9F2-48E1-8F42-8D172ED4E960";
name = Bold;
paths = (
{
closed = 1;
nodes = (
"212 37 CURVE SMOOTH",
"232 37 OFFCURVE",
"253 44 OFFCURVE",
"275 53 CURVE SMOOTH",
"1066 378 LINE SMOOTH",
"1142 409 OFFCURVE",
"1178 446 OFFCURVE",
"1178 506 CURVE SMOOTH",
"1178 551 OFFCURVE",
"1149 597 OFFCURVE",
"1093 621 CURVE SMOOTH",
"299 955 LINE SMOOTH",
"271 967 OFFCURVE",
"238 982 OFFCURVE",
"211 982 CURVE SMOOTH",
"154 982 OFFCURVE",
"121 932 OFFCURVE",
"121 887 CURVE SMOOTH",
"121 854 OFFCURVE",
"138 823 OFFCURVE",
"178 806 CURVE SMOOTH",
"417 702 OFFCURVE",
"655 606 OFFCURVE",
"895 506 CURVE",
"180 215 LINE SMOOTH",
"137 197 OFFCURVE",
"122 167 OFFCURVE",
"122 132 CURVE SMOOTH",
"122 84 OFFCURVE",
"159 37 OFFCURVE"
);
}
);
width = 1287;
}
);
unicode = 003E;
},
{
glyphname = question;
lastChange = "2013-12-10 18:24:04 -0800";
layers = (
{
layerId = "EBB1D39D-5A31-45B3-B44F-04CD128BFFB4";
name = Regular;
paths = (
{
closed = 1;
nodes = (
"393 1512 OFFCURVE",
"289 1503 OFFCURVE",
"189 1476 CURVE SMOOTH",
"130 1460 OFFCURVE",
"107 1416 OFFCURVE",
"107 1375 CURVE SMOOTH",
"107 1325 OFFCURVE",
"140 1277 OFFCURVE",
"188 1277 CURVE SMOOTH",
"193 1277 OFFCURVE",
"200 1278 OFFCURVE",
"207 1280 CURVE SMOOTH",
"288 1299 OFFCURVE",
"389 1306 OFFCURVE",
"431 1306 CURVE SMOOTH",
"548 1306 OFFCURVE",
"659 1258 OFFCURVE",
"659 1106 CURVE SMOOTH",
"659 883 OFFCURVE",
"322 790 OFFCURVE",
"314 578 CURVE",
"314 463 LINE SMOOTH",
"314 397 OFFCURVE",
"369 366 OFFCURVE",
"425 366 CURVE SMOOTH",
"481 366 OFFCURVE",
"534 398 OFFCURVE",
"534 459 CURVE SMOOTH",
"534 495 OFFCURVE",
"533 515 OFFCURVE",
"533 526 CURVE SMOOTH",
"533 540 LINE",
"533 539 LINE",
"538 621 OFFCURVE",
"602 650 OFFCURVE",
"724 770 CURVE",
"834 872 OFFCURVE",
"927 968 OFFCURVE",
"927 1134 CURVE SMOOTH",
"927 1394 OFFCURVE",
"726 1512 OFFCURVE",
"489 1512 CURVE SMOOTH"
);
},
{
closed = 1;
nodes = (
"343 224 OFFCURVE",
"290 164 OFFCURVE",
"290 97 CURVE SMOOTH",
"290 28 OFFCURVE",
"343 -33 OFFCURVE",
"426 -33 CURVE SMOOTH",
"510 -33 OFFCURVE",
"563 28 OFFCURVE",
"563 97 CURVE SMOOTH",
"563 164 OFFCURVE",
"510 224 OFFCURVE",
"426 224 CURVE SMOOTH"
);
}
);
width = 1047;
},
{
layerId = "F10CBA7B-FAF3-4DDE-A14D-E99DB7E222CB";
name = Light;
paths = (
{
closed = 1;
nodes = (
"420 355 CURVE SMOOTH",
"459 355 OFFCURVE",
"497 379 OFFCURVE",
"497 426 CURVE SMOOTH",
"497 469 OFFCURVE",
"496 494 OFFCURVE",
"496 509 CURVE SMOOTH",
"496 524 LINE SMOOTH",
"499 615 OFFCURVE",
"552 634 OFFCURVE",
"681 769 CURVE",
"794 877 OFFCURVE",
"889 970 OFFCURVE",
"889 1140 CURVE SMOOTH",
"889 1393 OFFCURVE",
"706 1510 OFFCURVE",
"488 1510 CURVE SMOOTH",
"396 1510 OFFCURVE",
"297 1503 OFFCURVE",
"205 1479 CURVE SMOOTH",
"161 1468 OFFCURVE",
"143 1436 OFFCURVE",
"143 1405 CURVE SMOOTH",
"143 1368 OFFCURVE",
"168 1331 OFFCURVE",
"207 1331 CURVE SMOOTH",
"210 1331 OFFCURVE",
"215 1332 OFFCURVE",
"222 1333 CURVE",
"300 1352 OFFCURVE",
"411 1359 OFFCURVE",
"448 1359 CURVE SMOOTH",
"581 1359 OFFCURVE",
"711 1307 OFFCURVE",
"711 1128 CURVE SMOOTH",
"711 882 OFFCURVE",
"350 771 OFFCURVE",
"342 571 CURVE",
"342 537 OFFCURVE",
"341 508 OFFCURVE",
"341 481 CURVE SMOOTH",
"341 400 OFFCURVE",
"350 355 OFFCURVE"
);
},
{
closed = 1;
nodes = (
"424 -11 CURVE SMOOTH",
"493 -11 OFFCURVE",
"532 37 OFFCURVE",
"532 88 CURVE SMOOTH",
"532 137 OFFCURVE",
"493 184 OFFCURVE",
"424 184 CURVE SMOOTH",
"355 184 OFFCURVE",
"317 137 OFFCURVE",
"317 88 CURVE SMOOTH",
"317 37 OFFCURVE",
"355 -11 OFFCURVE"
);
}
);
width = 1032;
},
{
layerId = "FB5FCFFA-D9F2-48E1-8F42-8D172ED4E960";
name = Bold;
paths = (
{
closed = 1;
nodes = (
"415 378 CURVE",
"539 378 OFFCURVE",
"575 474 OFFCURVE",
"575 545 CURVE",
"578 612 OFFCURVE",
"628 646 OFFCURVE",
"711 718 CURVE SMOOTH",
"828 819 OFFCURVE",
"964 926 OFFCURVE",
"969 1112 CURVE",
"969 1395 OFFCURVE",
"750 1514 OFFCURVE",
"490 1514 CURVE SMOOTH",
"389 1514 OFFCURVE",
"275 1503 OFFCURVE",
"171 1472 CURVE SMOOTH",
"100 1451 OFFCURVE",
"69 1399 OFFCURVE",
"69 1350 CURVE SMOOTH",
"69 1273 OFFCURVE",
"118 1222 OFFCURVE",
"186 1222 CURVE SMOOTH",
"193 1222 OFFCURVE",
"199 1222 OFFCURVE",
"206 1223 CURVE SMOOTH",
"253 1230 OFFCURVE",
"301 1233 OFFCURVE",
"325 1234 CURVE",
"356 1238 OFFCURVE",
"385 1241 OFFCURVE",
"412 1241 CURVE SMOOTH",
"507 1241 OFFCURVE",
"596 1200 OFFCURVE",
"596 1084 CURVE SMOOTH",
"596 1029 OFFCURVE",
"567 975 OFFCURVE",
"530 929 CURVE SMOOTH",
"454 836 OFFCURVE",
"290 750 OFFCURVE",
"282 586 CURVE",
"282 537 LINE SMOOTH",
"282 428 OFFCURVE",
"331 385 OFFCURVE"
);
},
{
closed = 1;
nodes = (
"429 -58 CURVE SMOOTH",
"525 -58 OFFCURVE",
"598 16 OFFCURVE",
"598 107 CURVE SMOOTH",
"598 203 OFFCURVE",
"517 270 OFFCURVE",
"429 270 CURVE SMOOTH",
"328 270 OFFCURVE",
"260 192 OFFCURVE",
"260 107 CURVE SMOOTH",
"260 16 OFFCURVE",
"333 -58 OFFCURVE"
);
}
);
width = 1064;
}
);
unicode = 003F;
},
{
glyphname = at;
lastChange = "2013-12-10 18:24:04 -0800";
layers = (
{
layerId = "EBB1D39D-5A31-45B3-B44F-04CD128BFFB4";
name = Regular;
paths = (
{
closed = 1;
nodes = (
"489 1511 OFFCURVE",
"50 1235 OFFCURVE",
"50 731 CURVE SMOOTH",
"50 255 OFFCURVE",
"377 -27 OFFCURVE",
"809 -27 CURVE SMOOTH",
"911 -27 OFFCURVE",
"1017 -12 OFFCURVE",
"1127 21 CURVE SMOOTH",
"1156 29 OFFCURVE",
"1170 54 OFFCURVE",
"1170 79 CURVE SMOOTH",
"1170 110 OFFCURVE",
"1147 142 OFFCURVE",
"1106 142 CURVE SMOOTH",
"1097 142 OFFCURVE",
"1088 141 OFFCURVE",
"1079 138 CURVE SMOOTH",
"994 111 OFFCURVE",
"909 100 OFFCURVE",
"825 100 CURVE SMOOTH",
"493 100 OFFCURVE",
"205 305 OFFCURVE",
"205 721 CURVE SMOOTH",
"205 1142 OFFCURVE",
"567 1382 OFFCURVE",
"895 1382 CURVE SMOOTH",
"1164 1382 OFFCURVE",
"1409 1219 OFFCURVE",
"1409 862 CURVE SMOOTH",
"1409 632 OFFCURVE",
"1266 420 OFFCURVE",
"1131 420 CURVE SMOOTH",
"1095 420 OFFCURVE",
"1081 439 OFFCURVE",
"1081 471 CURVE SMOOTH",
"1081 498 OFFCURVE",
"1090 535 OFFCURVE",
"1104 583 CURVE SMOOTH",
"1245 1053 LINE",
"1247 1062 OFFCURVE",
"1248 1070 OFFCURVE",
"1248 1077 CURVE SMOOTH",
"1248 1118 OFFCURVE",
"1215 1139 OFFCURVE",
"1179 1139 CURVE SMOOTH",
"1143 1139 OFFCURVE",
"1113 1121 OFFCURVE",
"1100 1082 CURVE SMOOTH",
"1091 1054 LINE",
"1044 1142 OFFCURVE",
"954 1184 OFFCURVE",
"857 1184 CURVE SMOOTH",
"570 1184 OFFCURVE",
"375 882 OFFCURVE",
"375 615 CURVE SMOOTH",
"375 439 OFFCURVE",
"488 290 OFFCURVE",
"676 290 CURVE SMOOTH",
"772 290 OFFCURVE",
"869 328 OFFCURVE",
"933 397 CURVE",
"957 328 OFFCURVE",
"1029 296 OFFCURVE",
"1099 296 CURVE SMOOTH",
"1304 296 OFFCURVE",
"1560 549 OFFCURVE",
"1560 877 CURVE SMOOTH",
"1560 1309 OFFCURVE",
"1239 1511 OFFCURVE",
"893 1511 CURVE SMOOTH"
);
},
{
closed = 1;
nodes = (
"946 1022 OFFCURVE",
"1037 963 OFFCURVE",
"1037 875 CURVE SMOOTH",
"1037 862 OFFCURVE",
"1034 847 OFFCURVE",
"1030 833 CURVE SMOOTH",
"960 600 LINE",
"928 500 OFFCURVE",
"816 440 OFFCURVE",
"718 440 CURVE SMOOTH",
"623 440 OFFCURVE",
"562 523 OFFCURVE",
"562 623 CURVE SMOOTH",
"562 790 OFFCURVE",
"690 1022 OFFCURVE",
"870 1022 CURVE SMOOTH"
);
}
);
width = 1638;
},
{
layerId = "F10CBA7B-FAF3-4DDE-A14D-E99DB7E222CB";
name = Light;
paths = (
{
closed = 1;
nodes = (
"807 -25 CURVE SMOOTH",
"911 -25 OFFCURVE",
"1019 -8 OFFCURVE",
"1130 26 CURVE SMOOTH",
"1154 33 OFFCURVE",
"1165 54 OFFCURVE",
"1165 75 CURVE SMOOTH",
"1165 102 OFFCURVE",
"1148 127 OFFCURVE",
"1113 127 CURVE SMOOTH",
"1104 127 OFFCURVE",
"1095 126 OFFCURVE",
"1087 123 CURVE SMOOTH",
"998 96 OFFCURVE",
"910 82 OFFCURVE",
"825 82 CURVE SMOOTH",
"484 82 OFFCURVE",
"192 299 OFFCURVE",
"192 728 CURVE SMOOTH",
"192 1155 OFFCURVE",
"561 1399 OFFCURVE",
"894 1399 CURVE SMOOTH",
"1169 1399 OFFCURVE",
"1417 1234 OFFCURVE",
"1417 870 CURVE SMOOTH",
"1417 649 OFFCURVE",
"1267 398 OFFCURVE",
"1110 398 CURVE SMOOTH",
"1067 398 OFFCURVE",
"1054 417 OFFCURVE",
"1054 449 CURVE SMOOTH",
"1054 477 OFFCURVE",
"1064 514 OFFCURVE",
"1078 558 CURVE SMOOTH",
"1242 1063 LINE SMOOTH",
"1245 1071 OFFCURVE",
"1246 1079 OFFCURVE",
"1246 1088 CURVE SMOOTH",
"1246 1124 OFFCURVE",
"1216 1143 OFFCURVE",
"1184 1143 CURVE SMOOTH",
"1153 1143 OFFCURVE",
"1119 1126 OFFCURVE",
"1109 1091 CURVE SMOOTH",
"1100 1061 LINE",
"1058 1148 OFFCURVE",
"965 1193 OFFCURVE",
"870 1193 CURVE SMOOTH",
"573 1193 OFFCURVE",
"374 865 OFFCURVE",
"374 594 CURVE SMOOTH",
"374 423 OFFCURVE",
"481 283 OFFCURVE",
"661 283 CURVE SMOOTH",
"750 283 OFFCURVE",
"846 321 OFFCURVE",
"909 386 CURVE",
"933 314 OFFCURVE",
"1008 281 OFFCURVE",
"1080 281 CURVE SMOOTH",
"1292 281 OFFCURVE",
"1549 548 OFFCURVE",
"1549 871 CURVE SMOOTH",
"1549 1310 OFFCURVE",
"1231 1512 OFFCURVE",
"891 1512 CURVE SMOOTH",
"491 1512 OFFCURVE",
"58 1235 OFFCURVE",
"58 740 CURVE SMOOTH",
"58 260 OFFCURVE",
"380 -25 OFFCURVE"
);
},
{
closed = 1;
nodes = (
"695 414 CURVE SMOOTH",
"596 414 OFFCURVE",
"538 505 OFFCURVE",
"538 604 CURVE SMOOTH",
"538 782 OFFCURVE",
"673 1057 OFFCURVE",
"877 1057 CURVE SMOOTH",
"949 1057 OFFCURVE",
"1046 997 OFFCURVE",
"1046 898 CURVE SMOOTH",
"1046 881 OFFCURVE",
"1043 863 OFFCURVE",
"1037 844 CURVE SMOOTH",
"956 596 LINE SMOOTH",
"917 476 OFFCURVE",
"794 414 OFFCURVE"
);
}
);
width = 1638;
},
{
layerId = "FB5FCFFA-D9F2-48E1-8F42-8D172ED4E960";
name = Bold;
paths = (
{
closed = 1;
nodes = (
"811 -30 CURVE SMOOTH",
"906 -30 OFFCURVE",
"1000 -16 OFFCURVE",
"1100 9 CURVE SMOOTH",
"1151 22 OFFCURVE",
"1176 41 OFFCURVE",
"1176 84 CURVE SMOOTH",
"1176 123 OFFCURVE",
"1147 158 OFFCURVE",
"1096 158 CURVE SMOOTH",
"1091 158 OFFCURVE",
"1087 158 OFFCURVE",
"1084 157 CURVE SMOOTH",
"1030 142 OFFCURVE",
"975 133 OFFCURVE",
"918 132 CURVE",
"875 125 OFFCURVE",
"835 121 OFFCURVE",
"796 121 CURVE SMOOTH",
"782 121 LINE",
"474 140 OFFCURVE",
"220 335 OFFCURVE",
"220 713 CURVE SMOOTH",
"220 1112 OFFCURVE",
"557 1362 OFFCURVE",
"895 1362 CURVE SMOOTH",
"1167 1362 OFFCURVE",
"1399 1194 OFFCURVE",
"1399 853 CURVE SMOOTH",
"1399 634 OFFCURVE",
"1276 445 OFFCURVE",
"1155 445 CURVE SMOOTH",
"1123 445 OFFCURVE",
"1114 465 OFFCURVE",
"1114 498 CURVE SMOOTH",
"1114 534 OFFCURVE",
"1132 604 OFFCURVE",
"1153 677 CURVE",
"1236 999 LINE SMOOTH",
"1241 1018 OFFCURVE",
"1251 1041 OFFCURVE",
"1251 1062 CURVE SMOOTH",
"1251 1110 OFFCURVE",
"1213 1135 OFFCURVE",
"1174 1135 CURVE SMOOTH",
"1135 1135 OFFCURVE",
"1102 1115 OFFCURVE",
"1089 1072 CURVE SMOOTH",
"1081 1046 LINE",
"1029 1134 OFFCURVE",
"941 1173 OFFCURVE",
"841 1173 CURVE SMOOTH",
"566 1173 OFFCURVE",
"376 902 OFFCURVE",
"376 646 CURVE SMOOTH",
"376 451 OFFCURVE",
"498 298 OFFCURVE",
"694 298 CURVE SMOOTH",
"798 298 OFFCURVE",
"893 336 OFFCURVE",
"960 409 CURVE",
"985 341 OFFCURVE",
"1052 312 OFFCURVE",
"1120 312 CURVE SMOOTH",
"1308 312 OFFCURVE",
"1572 543 OFFCURVE",
"1572 883 CURVE SMOOTH",
"1572 1319 OFFCURVE",
"1231 1509 OFFCURVE",
"895 1509 CURVE SMOOTH",
"453 1509 OFFCURVE",
"40 1210 OFFCURVE",
"40 721 CURVE SMOOTH",
"40 240 OFFCURVE",
"382 -30 OFFCURVE"
);
},
{
closed = 1;
nodes = (
"743 470 CURVE SMOOTH",
"649 470 OFFCURVE",
"590 548 OFFCURVE",
"590 645 CURVE SMOOTH",
"590 796 OFFCURVE",
"706 980 OFFCURVE",
"864 980 CURVE SMOOTH",
"949 980 OFFCURVE",
"1027 917 OFFCURVE",
"1027 849 CURVE SMOOTH",
"1027 840 OFFCURVE",
"1026 831 OFFCURVE",
"1023 820 CURVE SMOOTH",
"964 604 LINE",
"940 527 OFFCURVE",
"843 470 OFFCURVE"
);
}
);
width = 1638;
}
);
unicode = 0040;
},
{
glyphname = A;
lastChange = "2013-12-10 23:59:55 -0800";
layers = (
{
anchors = (
{
name = ogonek;
position = "{1266, 19}";
},
{
name = top;
position = "{731, 1438}";
}
);
layerId = "EBB1D39D-5A31-45B3-B44F-04CD128BFFB4";
name = Regular;
paths = (
{
closed = 1;
nodes = (
"881 1428 OFFCURVE",
"811 1452 OFFCURVE",
"731 1452 CURVE SMOOTH",
"651 1452 OFFCURVE",
"582 1429 OFFCURVE",
"527 1292 CURVE SMOOTH",
"71 157 LINE SMOOTH",
"65 142 OFFCURVE",
"62 128 OFFCURVE",
"63 115 CURVE",
"63 46 OFFCURVE",
"130 1 OFFCURVE",
"195 1 CURVE SMOOTH",
"243 1 OFFCURVE",
"290 26 OFFCURVE",
"306 86 CURVE",
"415 353 LINE",
"1045 353 LINE",
"1154 86 LINE",
"1169 27 OFFCURVE",
"1218 1 OFFCURVE",
"1267 1 CURVE SMOOTH",
"1334 1 OFFCURVE",
"1401 45 OFFCURVE",
"1401 117 CURVE SMOOTH",
"1401 130 OFFCURVE",
"1399 144 OFFCURVE",
"1394 157 CURVE SMOOTH",
"936 1291 LINE SMOOTH"
);
},
{
closed = 1;
nodes = (
"732 1215 LINE",
"989 521 LINE",
"467 521 LINE",
"728 1215 LINE"
);
}
);
width = 1463;
},
{
anchors = (
{
name = ogonek;
position = "{1266, 19}";
},
{
name = top;
position = "{706, 1438}";
}
);
layerId = "F10CBA7B-FAF3-4DDE-A14D-E99DB7E222CB";
name = Light;
paths = (
{
closed = 1;
nodes = (
"150 0 CURVE SMOOTH",
"181 0 OFFCURVE",
"210 14 OFFCURVE",
"223 53 CURVE",
"350 373 LINE",
"1057 373 LINE",
"1185 53 LINE",
"1197 16 OFFCURVE",
"1228 0 OFFCURVE",
"1260 0 CURVE SMOOTH",
"1306 0 OFFCURVE",
"1354 31 OFFCURVE",
"1354 80 CURVE SMOOTH",
"1354 87 OFFCURVE",
"1352 97 OFFCURVE",
"1349 108 CURVE",
"871 1270 LINE",
"818 1403 OFFCURVE",
"773 1426 OFFCURVE",
"706 1426 CURVE SMOOTH",
"640 1426 OFFCURVE",
"593 1404 OFFCURVE",
"542 1270 CURVE",
"66 108 LINE SMOOTH",
"62 97 OFFCURVE",
"60 87 OFFCURVE",
"60 78 CURVE SMOOTH",
"60 32 OFFCURVE",
"106 0 OFFCURVE"
);
},
{
closed = 1;
nodes = (
"400 508 LINE",
"703 1279 LINE",
"705 1279 LINE",
"1007 508 LINE"
);
}
);
width = 1414;
},
{
anchors = (
{
name = ogonek;
position = "{1266, 19}";
},
{
name = top;
position = "{744, 1438}";
}
);
layerId = "FB5FCFFA-D9F2-48E1-8F42-8D172ED4E960";
name = Bold;
paths = (
{
closed = 1;
nodes = (
"217 0 CURVE SMOOTH",
"322 0 OFFCURVE",
"360 53 OFFCURVE",
"414 203 CURVE SMOOTH",
"460 330 LINE",
"1026 330 LINE",
"1078 203 LINE SMOOTH",
"1138 56 OFFCURVE",
"1170 0 OFFCURVE",
"1275 0 CURVE SMOOTH",
"1366 0 OFFCURVE",
"1439 56 OFFCURVE",
"1439 154 CURVE SMOOTH",
"1439 194 OFFCURVE",
"1411 256 OFFCURVE",
"1393 303 CURVE SMOOTH",
"1050 1215 LINE SMOOTH",
"962 1449 OFFCURVE",
"868 1472 OFFCURVE",
"746 1472 CURVE SMOOTH",
"622 1472 OFFCURVE",
"518 1430 OFFCURVE",
"436 1210 CURVE SMOOTH",
"100 303 LINE SMOOTH",
"83 256 OFFCURVE",
"53 194 OFFCURVE",
"54 154 CURVE",
"54 56 OFFCURVE",
"126 0 OFFCURVE"
);
},
{
closed = 1;
nodes = (
"521 536 LINE",
"741 1169 LINE",
"746 1169 LINE",
"965 536 LINE"
);
}
);
width = 1505;
}
);
leftKerningGroup = A_Right;
rightKerningGroup = A_Left;
unicode = 0041;
userData = {
anchors = (
);
b = {
};
com.typemytype.robofont.layerData = {
};
components = (
);
contours = {
};
lib = {
};
name = A;
points = {
};
segmentType = line;
unicodes = (
);
width = 1445;
x = 718;
y = 1232;
};
},
{
glyphname = B;
lastChange = "2013-12-11 00:00:17 -0800";
layers = (
{
anchors = (
{
name = top;
position = "{666, 1438}";
}
);
layerId = "EBB1D39D-5A31-45B3-B44F-04CD128BFFB4";
name = Regular;
paths = (
{
closed = 1;
nodes = (
"300 1438 LINE SMOOTH",
"228 1438 OFFCURVE",
"171 1381 OFFCURVE",
"171 1310 CURVE SMOOTH",
"171 127 LINE SMOOTH",
"171 57 OFFCURVE",
"228 0 OFFCURVE",
"300 0 CURVE SMOOTH",
"804 0 LINE SMOOTH",
"1148 0 OFFCURVE",
"1281 201 OFFCURVE",
"1281 393 CURVE SMOOTH",
"1281 613 OFFCURVE",
"1171 726 OFFCURVE",
"971 755 CURVE",
"971 759 LINE",
"1111 802 OFFCURVE",
"1228 902 OFFCURVE",
"1228 1082 CURVE SMOOTH",
"1228 1292 OFFCURVE",
"1048 1438 OFFCURVE",
"796 1438 CURVE SMOOTH"
);
},
{
closed = 1;
nodes = (
"713 1260 LINE SMOOTH",
"869 1260 OFFCURVE",
"986 1225 OFFCURVE",
"986 1050 CURVE SMOOTH",
"986 887 OFFCURVE",
"844 815 OFFCURVE",
"683 815 CURVE SMOOTH",
"433 815 LINE",
"433 1260 LINE"
);
},
{
closed = 1;
nodes = (
"645 661 LINE SMOOTH",
"881 661 OFFCURVE",
"1022 614 OFFCURVE",
"1022 415 CURVE SMOOTH",
"1022 225 OFFCURVE",
"887 177 OFFCURVE",
"699 177 CURVE SMOOTH",
"433 177 LINE",
"433 661 LINE"
);
}
);
width = 1375;
},
{
anchors = (
{
name = top;
position = "{666, 1438}";
}
);
layerId = "F10CBA7B-FAF3-4DDE-A14D-E99DB7E222CB";
name = Light;
paths = (
{
closed = 1;
nodes = (
"283 0 CURVE SMOOTH",
"749 0 LINE SMOOTH",
"1083 0 OFFCURVE",
"1225 187 OFFCURVE",
"1225 383 CURVE SMOOTH",
"1225 583 OFFCURVE",
"1092 710 OFFCURVE",
"891 742 CURVE",
"891 746 LINE",
"1048 781 OFFCURVE",
"1166 912 OFFCURVE",
"1166 1068 CURVE SMOOTH",
"1166 1286 OFFCURVE",
"984 1426 OFFCURVE",
"730 1426 CURVE SMOOTH",
"283 1426 LINE SMOOTH",
"235 1426 OFFCURVE",
"195 1389 OFFCURVE",
"195 1341 CURVE SMOOTH",
"195 85 LINE SMOOTH",
"195 37 OFFCURVE",
"235 0 OFFCURVE"
);
},
{
closed = 1;
nodes = (
"370 138 LINE",
"370 672 LINE",
"587 672 LINE SMOOTH",
"850 672 OFFCURVE",
"1040 633 OFFCURVE",
"1040 405 CURVE SMOOTH",
"1040 194 OFFCURVE",
"902 138 OFFCURVE",
"659 138 CURVE SMOOTH"
);
},
{
closed = 1;
nodes = (
"370 801 LINE",
"370 1288 LINE",
"649 1288 LINE SMOOTH",
"817 1288 OFFCURVE",
"983 1244 OFFCURVE",
"983 1049 CURVE SMOOTH",
"983 866 OFFCURVE",
"823 801 OFFCURVE",
"654 801 CURVE SMOOTH"
);
}
);
width = 1344;
},
{
anchors = (
{
name = top;
position = "{706, 1438}";
}
);
layerId = "FB5FCFFA-D9F2-48E1-8F42-8D172ED4E960";
name = Bold;
paths = (
{
closed = 1;
nodes = (
"382 0 CURVE SMOOTH",
"830 0 LINE SMOOTH",
"1179 0 OFFCURVE",
"1336 199 OFFCURVE",
"1336 402 CURVE SMOOTH",
"1336 587 OFFCURVE",
"1210 726 OFFCURVE",
"1010 755 CURVE",
"1010 759 LINE",
"1175 788 OFFCURVE",
"1283 930 OFFCURVE",
"1283 1087 CURVE SMOOTH",
"1283 1440 OFFCURVE",
"937 1452 OFFCURVE",
"665 1452 CURVE SMOOTH",
"382 1452 LINE SMOOTH",
"258 1452 OFFCURVE",
"150 1401 OFFCURVE",
"150 1276 CURVE SMOOTH",
"150 257 LINE SMOOTH",
"150 36 OFFCURVE",
"231 0 OFFCURVE"
);
},
{
closed = 1;
nodes = (
"503 224 LINE",
"503 649 LINE",
"637 649 LINE SMOOTH",
"840 649 OFFCURVE",
"973 608 OFFCURVE",
"973 441 CURVE SMOOTH",
"973 259 OFFCURVE",
"860 224 OFFCURVE",
"647 224 CURVE SMOOTH"
);
},
{
closed = 1;
nodes = (
"503 831 LINE",
"503 1228 LINE",
"650 1228 LINE SMOOTH",
"806 1228 OFFCURVE",
"935 1197 OFFCURVE",
"935 1035 CURVE SMOOTH",
"935 872 OFFCURVE",
"806 831 OFFCURVE",
"629 831 CURVE SMOOTH"
);
}
);
width = 1428;
}
);
rightKerningGroup = B_Left;
unicode = 0042;
userData = {
anchors = (
);
b = {
};
com.typemytype.robofont.layerData = {
};
components = (
);
contours = {
};
lib = {
};
name = B;
points = {
};
segmentType = curve;
unicodes = (
);
width = 1395;
x = 676;
y = 1260;
};
},
{
glyphname = C;
lastChange = "2013-12-11 01:00:33 -0800";
layers = (
{
anchors = (
{
name = top;
position = "{783, 1438}";
}
);
layerId = "EBB1D39D-5A31-45B3-B44F-04CD128BFFB4";
name = Regular;
paths = (
{
closed = 1;
nodes = (
"410 1470 OFFCURVE",
"110 1180 OFFCURVE",
"110 712 CURVE SMOOTH",
"110 269 OFFCURVE",
"392 -23 OFFCURVE",
"785 -31 CURVE SMOOTH",
"984 -35 OFFCURVE",
"1106 13 OFFCURVE",
"1208 77 CURVE SMOOTH",
"1322 149 OFFCURVE",
"1229 323 OFFCURVE",
"1121 267 CURVE SMOOTH",
"1045 228 OFFCURVE",
"960 187 OFFCURVE",
"836 188 CURVE SMOOTH",
"548 190 OFFCURVE",
"376 376 OFFCURVE",
"376 717 CURVE SMOOTH",
"376 1057 OFFCURVE",
"549 1252 OFFCURVE",
"826 1250 CURVE SMOOTH",
"943 1249 OFFCURVE",
"1025 1215 OFFCURVE",
"1111 1182 CURVE SMOOTH",
"1212 1143 OFFCURVE",
"1314 1309 OFFCURVE",
"1172 1381 CURVE SMOOTH",
"1049 1445 OFFCURVE",
"934 1470 OFFCURVE",
"813 1470 CURVE SMOOTH"
);
}
);
width = 1354;
},
{
anchors = (
{
name = bot;
position = "{757, 9}";
},
{
name = top;
position = "{776, 1438}";
}
);
layerId = "F10CBA7B-FAF3-4DDE-A14D-E99DB7E222CB";
name = Light;
paths = (
{
closed = 1;
nodes = (
"784 -22 CURVE SMOOTH",
"951 -22 OFFCURVE",
"1076 34 OFFCURVE",
"1156 86 CURVE SMOOTH",
"1260 154 OFFCURVE",
"1173 264 OFFCURVE",
"1099 220 CURVE SMOOTH",
"1011 168 OFFCURVE",
"928 131 OFFCURVE",
"795 131 CURVE SMOOTH",
"429 131 OFFCURVE",
"307 454 OFFCURVE",
"307 706 CURVE SMOOTH",
"307 967 OFFCURVE",
"434 1283 OFFCURVE",
"795 1283 CURVE SMOOTH",
"947 1283 OFFCURVE",
"1021 1242 OFFCURVE",
"1083 1213 CURVE SMOOTH",
"1166 1174 OFFCURVE",
"1222 1298 OFFCURVE",
"1146 1343 CURVE SMOOTH",
"1097 1372 OFFCURVE",
"980 1438 OFFCURVE",
"782 1438 CURVE SMOOTH",
"342 1438 OFFCURVE",
"118 1095 OFFCURVE",
"118 704 CURVE SMOOTH",
"118 305 OFFCURVE",
"348 -22 OFFCURVE"
);
}
);
width = 1385;
},
{
anchors = (
{
name = top;
position = "{826, 1438}";
}
);
layerId = "FB5FCFFA-D9F2-48E1-8F42-8D172ED4E960";
name = Bold;
paths = (
{
closed = 1;
nodes = (
"821 -35 CURVE SMOOTH",
"1022 -35 OFFCURVE",
"1164 18 OFFCURVE",
"1271 97 CURVE SMOOTH",
"1428 211 OFFCURVE",
"1295 390 OFFCURVE",
"1190 334 CURVE SMOOTH",
"1087 279 OFFCURVE",
"948 243 OFFCURVE",
"850 243 CURVE SMOOTH",
"607 243 OFFCURVE",
"486 414 OFFCURVE",
"486 723 CURVE SMOOTH",
"486 1125 OFFCURVE",
"663 1207 OFFCURVE",
"864 1207 CURVE SMOOTH",
"970 1207 OFFCURVE",
"1070 1168 OFFCURVE",
"1140 1140 CURVE SMOOTH",
"1310 1072 OFFCURVE",
"1407 1293 OFFCURVE",
"1253 1389 CURVE SMOOTH",
"1197 1424 OFFCURVE",
"1079 1486 OFFCURVE",
"843 1486 CURVE SMOOTH",
"422 1486 OFFCURVE",
"102 1199 OFFCURVE",
"102 714 CURVE SMOOTH",
"102 234 OFFCURVE",
"426 -35 OFFCURVE"
);
}
);
width = 1480;
}
);
leftKerningGroup = O_Right;
unicode = 0043;
userData = {
anchors = (
);
b = {
};
com.typemytype.robofont.layerData = {
};
components = (
);
contours = (
);
lib = {
};
name = C;
unicodes = (
);
width = 1354;
};
},
{
glyphname = D;
lastChange = "2013-12-11 00:00:42 -0800";
layers = (
{
anchors = (
{
name = top;
position = "{746, 1438}";
}
);
layerId = "EBB1D39D-5A31-45B3-B44F-04CD128BFFB4";
name = Regular;
paths = (
{
closed = 1;
nodes = (
"301 1438 LINE SMOOTH",
"228 1438 OFFCURVE",
"168 1379 OFFCURVE",
"168 1307 CURVE SMOOTH",
"168 130 LINE SMOOTH",
"168 58 OFFCURVE",
"228 0 OFFCURVE",
"301 0 CURVE SMOOTH",
"667 0 LINE SMOOTH",
"1143 0 OFFCURVE",
"1424 252 OFFCURVE",
"1424 713 CURVE SMOOTH",
"1424 1174 OFFCURVE",
"1174 1438 OFFCURVE",
"657 1438 CURVE SMOOTH"
);
},
{
closed = 1;
nodes = (
"647 1254 LINE SMOOTH",
"981 1254 OFFCURVE",
"1158 1089 OFFCURVE",
"1158 718 CURVE SMOOTH",
"1158 383 OFFCURVE",
"1021 183 OFFCURVE",
"684 183 CURVE SMOOTH",
"434 183 LINE",
"434 1254 LINE"
);
}
);
width = 1535;
},
{
anchors = (
{
name = top;
position = "{776, 1438}";
}
);
layerId = "F10CBA7B-FAF3-4DDE-A14D-E99DB7E222CB";
name = Light;
paths = (
{
closed = 1;
nodes = (
"267 0 CURVE SMOOTH",
"611 0 LINE SMOOTH",
"1093 0 OFFCURVE",
"1371 244 OFFCURVE",
"1371 710 CURVE SMOOTH",
"1371 1178 OFFCURVE",
"1103 1426 OFFCURVE",
"607 1426 CURVE SMOOTH",
"267 1426 LINE SMOOTH",
"218 1426 OFFCURVE",
"178 1387 OFFCURVE",
"178 1340 CURVE SMOOTH",
"178 86 LINE SMOOTH",
"178 39 OFFCURVE",
"218 0 OFFCURVE"
);
},
{
closed = 1;
nodes = (
"355 140 LINE",
"355 1286 LINE",
"582 1286 LINE SMOOTH",
"959 1286 OFFCURVE",
"1181 1108 OFFCURVE",
"1181 712 CURVE SMOOTH",
"1181 362 OFFCURVE",
"1022 140 OFFCURVE",
"630 140 CURVE SMOOTH"
);
}
);
width = 1494;
},
{
anchors = (
{
name = top;
position = "{746, 1438}";
}
);
layerId = "FB5FCFFA-D9F2-48E1-8F42-8D172ED4E960";
name = Bold;
paths = (
{
closed = 1;
nodes = (
"333 0 CURVE SMOOTH",
"645 0 LINE SMOOTH",
"1168 0 OFFCURVE",
"1441 245 OFFCURVE",
"1441 716 CURVE SMOOTH",
"1441 1200 OFFCURVE",
"1158 1452 OFFCURVE",
"616 1452 CURVE SMOOTH",
"404 1452 LINE SMOOTH",
"215 1452 OFFCURVE",
"150 1375 OFFCURVE",
"150 1195 CURVE SMOOTH",
"150 255 LINE SMOOTH",
"150 128 OFFCURVE",
"188 0 OFFCURVE"
);
},
{
closed = 1;
nodes = (
"516 244 LINE",
"516 1206 LINE",
"636 1206 LINE SMOOTH",
"934 1206 OFFCURVE",
"1053 1083 OFFCURVE",
"1053 725 CURVE SMOOTH",
"1053 367 OFFCURVE",
"931 244 OFFCURVE",
"627 244 CURVE SMOOTH"
);
}
);
width = 1543;
}
);
leftKerningGroup = H_Right;
rightKerningGroup = O_Left;
unicode = 0044;
userData = {
anchors = (
);
b = {
};
com.typemytype.robofont.layerData = {
};
components = (
);
contours = (
);
lib = {
};
name = D;
unicodes = (
);
width = 1535;
};
},
{
glyphname = E;
lastChange = "2013-12-11 00:35:58 -0800";
layers = (
{
anchors = (
{
name = ogonek;
position = "{835, 9}";
},
{
name = top;
position = "{666, 1438}";
}
);
layerId = "EBB1D39D-5A31-45B3-B44F-04CD128BFFB4";
name = Regular;
paths = (
{
closed = 1;
nodes = (
"300 1438 LINE SMOOTH",
"228 1438 OFFCURVE",
"173 1377 OFFCURVE",
"173 1309 CURVE SMOOTH",
"173 129 LINE SMOOTH",
"173 60 OFFCURVE",
"236 0 OFFCURVE",
"304 0 CURVE SMOOTH",
"1050 0 LINE SMOOTH",
"1117 0 OFFCURVE",
"1149 50 OFFCURVE",
"1149 99 CURVE SMOOTH",
"1149 149 OFFCURVE",
"1117 198 OFFCURVE",
"1050 198 CURVE SMOOTH",
"439 198 LINE",
"439 637 LINE",
"990 637 LINE SMOOTH",
"1056 637 OFFCURVE",
"1090 687 OFFCURVE",
"1090 736 CURVE SMOOTH",
"1090 786 OFFCURVE",
"1058 835 OFFCURVE",
"990 835 CURVE SMOOTH",
"439 835 LINE",
"439 1240 LINE",
"1028 1240 LINE SMOOTH",
"1095 1240 OFFCURVE",
"1127 1290 OFFCURVE",
"1127 1339 CURVE SMOOTH",
"1127 1389 OFFCURVE",
"1095 1438 OFFCURVE",
"1028 1438 CURVE SMOOTH"
);
}
);
width = 1258;
},
{
anchors = (
{
name = ogonek;
position = "{835, 9}";
},
{
name = top;
position = "{666, 1438}";
}
);
layerId = "F10CBA7B-FAF3-4DDE-A14D-E99DB7E222CB";
name = Light;
paths = (
{
closed = 1;
nodes = (
"287 0 CURVE SMOOTH",
"1056 0 LINE SMOOTH",
"1105 0 OFFCURVE",
"1129 36 OFFCURVE",
"1129 73 CURVE SMOOTH",
"1129 109 OFFCURVE",
"1105 145 OFFCURVE",
"1056 145 CURVE SMOOTH",
"374 145 LINE",
"374 662 LINE",
"996 662 LINE SMOOTH",
"1045 662 OFFCURVE",
"1070 698 OFFCURVE",
"1070 734 CURVE SMOOTH",
"1070 770 OFFCURVE",
"1047 806 OFFCURVE",
"996 806 CURVE SMOOTH",
"374 806 LINE",
"374 1281 LINE",
"1028 1281 LINE SMOOTH",
"1077 1281 OFFCURVE",
"1101 1317 OFFCURVE",
"1101 1354 CURVE SMOOTH",
"1101 1390 OFFCURVE",
"1077 1426 OFFCURVE",
"1028 1426 CURVE SMOOTH",
"282 1426 LINE SMOOTH",
"234 1426 OFFCURVE",
"199 1383 OFFCURVE",
"199 1340 CURVE SMOOTH",
"199 86 LINE SMOOTH",
"199 41 OFFCURVE",
"243 0 OFFCURVE"
);
}
);
width = 1255;
},
{
anchors = (
{
name = ogonek;
position = "{835, 9}";
},
{
name = top;
position = "{666, 1438}";
}
);
layerId = "FB5FCFFA-D9F2-48E1-8F42-8D172ED4E960";
name = Bold;
paths = (
{
closed = 1;
nodes = (
"330 0 CURVE SMOOTH",
"1049 0 LINE SMOOTH",
"1121 0 OFFCURVE",
"1179 57 OFFCURVE",
"1179 129 CURVE SMOOTH",
"1179 201 OFFCURVE",
"1121 259 OFFCURVE",
"1049 259 CURVE SMOOTH",
"509 259 LINE",
"509 609 LINE",
"979 609 LINE SMOOTH",
"1056 609 OFFCURVE",
"1119 666 OFFCURVE",
"1119 738 CURVE SMOOTH",
"1119 810 OFFCURVE",
"1056 868 OFFCURVE",
"979 868 CURVE SMOOTH",
"509 868 LINE",
"509 1192 LINE",
"1024 1192 LINE SMOOTH",
"1101 1192 OFFCURVE",
"1164 1249 OFFCURVE",
"1164 1321 CURVE SMOOTH",
"1164 1393 OFFCURVE",
"1101 1452 OFFCURVE",
"1024 1452 CURVE SMOOTH",
"382 1452 LINE SMOOTH",
"174 1452 OFFCURVE",
"150 1340 OFFCURVE",
"150 1188 CURVE SMOOTH",
"150 235 LINE SMOOTH",
"150 123 OFFCURVE",
"194 0 OFFCURVE"
);
}
);
width = 1268;
}
);
leftKerningGroup = H_Right;
unicode = 0045;
userData = {
anchors = (
);
b = {
};
com.typemytype.robofont.layerData = {
};
components = (
);
contours = (
);
lib = {
};
name = E;
unicodes = (
);
width = 1258;
};
},
{
glyphname = F;
lastChange = "2013-12-10 23:56:15 -0800";
layers = (
{
layerId = "EBB1D39D-5A31-45B3-B44F-04CD128BFFB4";
name = Regular;
paths = (
{
closed = 1;
nodes = (
"301 1438 LINE SMOOTH",
"232 1438 OFFCURVE",
"171 1382 OFFCURVE",
"171 1306 CURVE SMOOTH",
"171 129 LINE SMOOTH",
"171 43 OFFCURVE",
"235 0 OFFCURVE",
"302 0 CURVE SMOOTH",
"370 0 OFFCURVE",
"437 43 OFFCURVE",
"437 129 CURVE SMOOTH",
"437 643 LINE",
"963 643 LINE SMOOTH",
"1030 643 OFFCURVE",
"1062 692 OFFCURVE",
"1062 743 CURVE SMOOTH",
"1062 792 OFFCURVE",
"1030 842 OFFCURVE",
"963 842 CURVE SMOOTH",
"437 842 LINE",
"437 1240 LINE",
"991 1240 LINE SMOOTH",
"1058 1240 OFFCURVE",
"1090 1290 OFFCURVE",
"1090 1339 CURVE SMOOTH",
"1090 1389 OFFCURVE",
"1058 1438 OFFCURVE",
"991 1438 CURVE SMOOTH"
);
}
);
width = 1175;
},
{
anchors = (
{
name = top;
position = "{666, 1438}";
}
);
layerId = "F10CBA7B-FAF3-4DDE-A14D-E99DB7E222CB";
name = Light;
paths = (
{
closed = 1;
nodes = (
"275 0 CURVE SMOOTH",
"319 0 OFFCURVE",
"364 27 OFFCURVE",
"364 84 CURVE SMOOTH",
"364 670 LINE",
"949 670 LINE SMOOTH",
"998 670 OFFCURVE",
"1023 706 OFFCURVE",
"1023 743 CURVE SMOOTH",
"1023 779 OFFCURVE",
"998 815 OFFCURVE",
"949 815 CURVE SMOOTH",
"364 815 LINE",
"364 1281 LINE",
"975 1281 LINE SMOOTH",
"1024 1281 OFFCURVE",
"1048 1317 OFFCURVE",
"1048 1354 CURVE SMOOTH",
"1048 1390 OFFCURVE",
"1024 1426 OFFCURVE",
"975 1426 CURVE SMOOTH",
"270 1426 LINE SMOOTH",
"225 1426 OFFCURVE",
"186 1392 OFFCURVE",
"186 1341 CURVE SMOOTH",
"186 84 LINE SMOOTH",
"186 28 OFFCURVE",
"230 0 OFFCURVE"
);
}
);
width = 1150;
},
{
layerId = "FB5FCFFA-D9F2-48E1-8F42-8D172ED4E960";
name = Bold;
paths = (
{
closed = 1;
nodes = (
"335 0 CURVE SMOOTH",
"438 0 OFFCURVE",
"521 86 OFFCURVE",
"521 195 CURVE SMOOTH",
"522 613 LINE",
"974 613 LINE SMOOTH",
"1046 613 OFFCURVE",
"1104 670 OFFCURVE",
"1104 742 CURVE SMOOTH",
"1104 814 OFFCURVE",
"1046 872 OFFCURVE",
"974 872 CURVE SMOOTH",
"522 872 LINE",
"522 1192 LINE",
"1005 1192 LINE SMOOTH",
"1077 1192 OFFCURVE",
"1135 1249 OFFCURVE",
"1135 1321 CURVE SMOOTH",
"1135 1393 OFFCURVE",
"1077 1452 OFFCURVE",
"1005 1452 CURVE SMOOTH",
"385 1452 LINE SMOOTH",
"259 1452 OFFCURVE",
"150 1395 OFFCURVE",
"150 1267 CURVE SMOOTH",
"150 195 LINE SMOOTH",
"150 86 OFFCURVE",
"232 0 OFFCURVE"
);
}
);
width = 1200;
}
);
leftKerningGroup = H_Right;
unicode = 0046;
userData = {
anchors = (
);
b = {
};
com.typemytype.robofont.layerData = {
};
components = (
);
contours = (
);
lib = {
};
name = F;
unicodes = (
);
width = 1175;
};
},
{
glyphname = G;
lastChange = "2013-12-11 00:25:13 -0800";
layers = (
{
anchors = (
{
name = bot;
position = "{824, 0}";
},
{
name = top;
position = "{812, 1438}";
}
);
layerId = "EBB1D39D-5A31-45B3-B44F-04CD128BFFB4";
name = Regular;
paths = (
{
closed = 1;
nodes = (
"345 1470 OFFCURVE",
"110 1133 OFFCURVE",
"110 718 CURVE SMOOTH",
"110 203 OFFCURVE",
"396 -33 OFFCURVE",
"831 -33 CURVE SMOOTH",
"958 -33 OFFCURVE",
"1143 -5 OFFCURVE",
"1265 32 CURVE",
"1332 43 OFFCURVE",
"1382 90 OFFCURVE",
"1382 177 CURVE SMOOTH",
"1382 647 LINE SMOOTH",
"1382 718 OFFCURVE",
"1356 757 OFFCURVE",
"1285 757 CURVE SMOOTH",
"888 757 LINE SMOOTH",
"831 757 OFFCURVE",
"804 716 OFFCURVE",
"804 673 CURVE SMOOTH",
"804 630 OFFCURVE",
"831 587 OFFCURVE",
"888 587 CURVE SMOOTH",
"1120 587 LINE",
"1120 198 LINE",
"1032 177 OFFCURVE",
"936 162 OFFCURVE",
"844 162 CURVE SMOOTH",
"513 162 OFFCURVE",
"371 350 OFFCURVE",
"371 710 CURVE SMOOTH",
"371 1021 OFFCURVE",
"524 1253 OFFCURVE",
"863 1253 CURVE SMOOTH",
"997 1253 OFFCURVE",
"1105 1226 OFFCURVE",
"1215 1199 CURVE",
"1224 1196 OFFCURVE",
"1234 1195 OFFCURVE",
"1242 1195 CURVE SMOOTH",
"1302 1195 OFFCURVE",
"1337 1255 OFFCURVE",
"1337 1306 CURVE SMOOTH",
"1337 1342 OFFCURVE",
"1318 1378 OFFCURVE",
"1274 1397 CURVE SMOOTH",
"1155 1446 OFFCURVE",
"1000 1470 OFFCURVE",
"842 1470 CURVE SMOOTH"
);
}
);
width = 1492;
},
{
anchors = (
{
name = bot;
position = "{828, 0}";
},
{
name = top;
position = "{857, 1426}";
}
);
layerId = "F10CBA7B-FAF3-4DDE-A14D-E99DB7E222CB";
name = Light;
paths = (
{
closed = 1;
nodes = (
"802 -22 CURVE SMOOTH",
"971 -22 OFFCURVE",
"1136 8 OFFCURVE",
"1255 56 CURVE",
"1292 65 OFFCURVE",
"1321 95 OFFCURVE",
"1321 144 CURVE SMOOTH",
"1321 660 LINE SMOOTH",
"1321 707 OFFCURVE",
"1294 735 OFFCURVE",
"1247 735 CURVE SMOOTH",
"862 735 LINE SMOOTH",
"817 735 OFFCURVE",
"795 703 OFFCURVE",
"795 668 CURVE SMOOTH",
"795 633 OFFCURVE",
"818 601 OFFCURVE",
"862 601 CURVE SMOOTH",
"1145 601 LINE",
"1145 167 LINE",
"1048 140 OFFCURVE",
"939 123 OFFCURVE",
"834 123 CURVE SMOOTH",
"444 123 OFFCURVE",
"312 359 OFFCURVE",
"312 709 CURVE SMOOTH",
"312 1018 OFFCURVE",
"465 1287 OFFCURVE",
"835 1287 CURVE SMOOTH",
"933 1287 OFFCURVE",
"1070 1266 OFFCURVE",
"1186 1234 CURVE SMOOTH",
"1189 1233 OFFCURVE",
"1202 1232 OFFCURVE",
"1202 1232 CURVE SMOOTH",
"1241 1232 OFFCURVE",
"1266 1269 OFFCURVE",
"1266 1305 CURVE SMOOTH",
"1266 1329 OFFCURVE",
"1255 1353 OFFCURVE",
"1227 1365 CURVE SMOOTH",
"1112 1413 OFFCURVE",
"973 1438 OFFCURVE",
"828 1438 CURVE SMOOTH",
"353 1438 OFFCURVE",
"123 1093 OFFCURVE",
"123 712 CURVE SMOOTH",
"123 221 OFFCURVE",
"398 -22 OFFCURVE"
);
}
);
width = 1443;
},
{
anchors = (
{
name = bot;
position = "{875, 0}";
},
{
name = top;
position = "{826, 1438}";
}
);
layerId = "FB5FCFFA-D9F2-48E1-8F42-8D172ED4E960";
name = Bold;
paths = (
{
closed = 1;
nodes = (
"102 204 OFFCURVE",
"399 -35 OFFCURVE",
"868 -35 CURVE SMOOTH",
"964 -35 OFFCURVE",
"1094 -14 OFFCURVE",
"1190 1 CURVE SMOOTH",
"1414 37 OFFCURVE",
"1445 106 OFFCURVE",
"1445 314 CURVE SMOOTH",
"1445 612 LINE SMOOTH",
"1445 725 OFFCURVE",
"1427 782 OFFCURVE",
"1322 782 CURVE SMOOTH",
"1189 782 OFFCURVE",
"1076 783 OFFCURVE",
"944 783 CURVE SMOOTH",
"860 783 OFFCURVE",
"820 740 OFFCURVE",
"820 679 CURVE SMOOTH",
"820 599 OFFCURVE",
"882 572 OFFCURVE",
"964 572 CURVE SMOOTH",
"1098 572 LINE",
"1098 264 LINE",
"1024 246 OFFCURVE",
"952 236 OFFCURVE",
"885 236 CURVE SMOOTH",
"661 236 OFFCURVE",
"489 351 OFFCURVE",
"489 710 CURVE SMOOTH",
"489 1031 OFFCURVE",
"623 1219 OFFCURVE",
"888 1219 CURVE SMOOTH",
"994 1219 OFFCURVE",
"1138 1189 OFFCURVE",
"1218 1145 CURVE SMOOTH",
"1240 1133 OFFCURVE",
"1262 1127 OFFCURVE",
"1282 1127 CURVE SMOOTH",
"1350 1127 OFFCURVE",
"1402 1189 OFFCURVE",
"1402 1255 CURVE SMOOTH",
"1402 1261 OFFCURVE",
"1402 1267 OFFCURVE",
"1401 1274 CURVE SMOOTH",
"1395 1308 OFFCURVE",
"1376 1342 OFFCURVE",
"1337 1368 CURVE SMOOTH",
"1228 1440 OFFCURVE",
"1036 1486 OFFCURVE",
"865 1486 CURVE SMOOTH",
"340 1486 OFFCURVE",
"102 1144 OFFCURVE",
"102 725 CURVE SMOOTH"
);
}
);
width = 1537;
}
);
leftKerningGroup = O_Right;
unicode = 0047;
userData = {
anchors = (
);
b = {
};
com.typemytype.robofont.layerData = {
};
components = (
);
contours = (
);
lib = {
};
name = G;
unicodes = (
);
width = 1538;
};
},
{
glyphname = H;
lastChange = "2013-12-11 00:01:36 -0800";
layers = (
{
anchors = (
{
name = top;
position = "{767, 1438}";
}
);
layerId = "EBB1D39D-5A31-45B3-B44F-04CD128BFFB4";
name = Regular;
paths = (
{
closed = 1;
nodes = (
"1151 1436 OFFCURVE",
"1085 1392 OFFCURVE",
"1085 1307 CURVE SMOOTH",
"1085 851 LINE",
"439 851 LINE",
"439 1307 LINE SMOOTH",
"439 1393 OFFCURVE",
"373 1436 OFFCURVE",
"306 1436 CURVE SMOOTH",
"238 1436 OFFCURVE",
"173 1392 OFFCURVE",
"173 1307 CURVE SMOOTH",
"173 131 LINE SMOOTH",
"173 45 OFFCURVE",
"238 2 OFFCURVE",
"305 2 CURVE SMOOTH",
"373 2 OFFCURVE",
"439 45 OFFCURVE",
"439 131 CURVE SMOOTH",
"439 639 LINE",
"1085 639 LINE",
"1085 131 LINE SMOOTH",
"1085 45 OFFCURVE",
"1151 2 OFFCURVE",
"1218 2 CURVE SMOOTH",
"1286 2 OFFCURVE",
"1351 45 OFFCURVE",
"1351 131 CURVE SMOOTH",
"1351 1307 LINE SMOOTH",
"1351 1393 OFFCURVE",
"1286 1436 OFFCURVE",
"1219 1436 CURVE SMOOTH"
);
}
);
width = 1524;
},
{
anchors = (
{
name = top;
position = "{776, 1438}";
}
);
layerId = "F10CBA7B-FAF3-4DDE-A14D-E99DB7E222CB";
name = Light;
paths = (
{
closed = 1;
nodes = (
"281 0 CURVE SMOOTH",
"326 0 OFFCURVE",
"371 27 OFFCURVE",
"371 84 CURVE SMOOTH",
"371 666 LINE",
"1123 666 LINE",
"1123 84 LINE SMOOTH",
"1123 28 OFFCURVE",
"1167 0 OFFCURVE",
"1211 0 CURVE SMOOTH",
"1256 0 OFFCURVE",
"1301 27 OFFCURVE",
"1301 84 CURVE SMOOTH",
"1301 1342 LINE SMOOTH",
"1301 1398 OFFCURVE",
"1257 1426 OFFCURVE",
"1212 1426 CURVE SMOOTH",
"1167 1426 OFFCURVE",
"1123 1397 OFFCURVE",
"1123 1342 CURVE SMOOTH",
"1123 814 LINE",
"371 814 LINE",
"371 1342 LINE SMOOTH",
"371 1398 OFFCURVE",
"327 1426 OFFCURVE",
"283 1426 CURVE SMOOTH",
"238 1426 OFFCURVE",
"193 1397 OFFCURVE",
"193 1342 CURVE SMOOTH",
"193 84 LINE SMOOTH",
"193 28 OFFCURVE",
"237 0 OFFCURVE"
);
}
);
width = 1494;
},
{
anchors = (
{
name = top;
position = "{786, 1438}";
}
);
layerId = "FB5FCFFA-D9F2-48E1-8F42-8D172ED4E960";
name = Bold;
paths = (
{
closed = 1;
nodes = (
"335 0 CURVE SMOOTH",
"438 0 OFFCURVE",
"521 86 OFFCURVE",
"521 195 CURVE SMOOTH",
"521 608 LINE",
"1036 608 LINE",
"1037 195 LINE SMOOTH",
"1037 86 OFFCURVE",
"1119 0 OFFCURVE",
"1222 0 CURVE SMOOTH",
"1325 0 OFFCURVE",
"1408 86 OFFCURVE",
"1408 195 CURVE SMOOTH",
"1408 1258 LINE SMOOTH",
"1408 1367 OFFCURVE",
"1325 1453 OFFCURVE",
"1222 1453 CURVE SMOOTH",
"1120 1453 OFFCURVE",
"1036 1367 OFFCURVE",
"1036 1258 CURVE SMOOTH",
"1036 893 LINE",
"521 893 LINE",
"521 1258 LINE SMOOTH",
"521 1367 OFFCURVE",
"438 1453 OFFCURVE",
"335 1453 CURVE SMOOTH",
"232 1453 OFFCURVE",
"150 1367 OFFCURVE",
"150 1258 CURVE SMOOTH",
"150 195 LINE SMOOTH",
"150 86 OFFCURVE",
"232 0 OFFCURVE"
);
}
);
width = 1558;
}
);
leftKerningGroup = H_Right;
rightKerningGroup = H_Left;
unicode = 0048;
userData = {
anchors = (
);
b = {
};
com.typemytype.robofont.layerData = {
};
components = (
);
contours = (
);
lib = {
};
name = H;
unicodes = (
);
width = 1524;
};
},
{
glyphname = I;
lastChange = "2013-12-11 00:01:44 -0800";
layers = (
{
anchors = (
{
name = top;
position = "{317, 1438}";
}
);
layerId = "EBB1D39D-5A31-45B3-B44F-04CD128BFFB4";
name = Regular;
paths = (
{
closed = 1;
nodes = (
"252 1440 OFFCURVE",
"186 1397 OFFCURVE",
"186 1311 CURVE SMOOTH",
"186 130 LINE SMOOTH",
"186 45 OFFCURVE",
"251 2 OFFCURVE",
"318 2 CURVE SMOOTH",
"386 2 OFFCURVE",
"452 45 OFFCURVE",
"452 130 CURVE SMOOTH",
"452 1311 LINE SMOOTH",
"452 1397 OFFCURVE",
"386 1440 OFFCURVE",
"319 1440 CURVE SMOOTH"
);
}
);
width = 637;
},
{
anchors = (
{
name = top;
position = "{304, 1438}";
}
);
layerId = "F10CBA7B-FAF3-4DDE-A14D-E99DB7E222CB";
name = Light;
paths = (
{
closed = 1;
nodes = (
"296 0 CURVE SMOOTH",
"341 0 OFFCURVE",
"386 27 OFFCURVE",
"386 84 CURVE SMOOTH",
"386 1341 LINE SMOOTH",
"386 1398 OFFCURVE",
"342 1426 OFFCURVE",
"298 1426 CURVE SMOOTH",
"253 1426 OFFCURVE",
"208 1397 OFFCURVE",
"208 1341 CURVE SMOOTH",
"208 84 LINE SMOOTH",
"208 28 OFFCURVE",
"252 0 OFFCURVE"
);
}
);
width = 592;
},
{
anchors = (
{
name = top;
position = "{346, 1438}";
}
);
layerId = "FB5FCFFA-D9F2-48E1-8F42-8D172ED4E960";
name = Bold;
paths = (
{
closed = 1;
nodes = (
"344 0 CURVE SMOOTH",
"447 0 OFFCURVE",
"530 86 OFFCURVE",
"530 195 CURVE SMOOTH",
"530 1258 LINE SMOOTH",
"530 1367 OFFCURVE",
"447 1453 OFFCURVE",
"344 1453 CURVE SMOOTH",
"241 1453 OFFCURVE",
"159 1367 OFFCURVE",
"159 1258 CURVE SMOOTH",
"159 195 LINE SMOOTH",
"159 86 OFFCURVE",
"241 0 OFFCURVE"
);
}
);
width = 689;
}
);
unicode = 0049;
userData = {
anchors = (
);
b = {
};
com.typemytype.robofont.layerData = {
};
components = (
);
contours = (
);
lib = {
};
name = I;
unicodes = (
);
width = 637;
};
},
{
glyphname = J;
lastChange = "2013-12-11 00:01:57 -0800";
layers = (
{
anchors = (
{
name = top;
position = "{775, 1438}";
}
);
layerId = "EBB1D39D-5A31-45B3-B44F-04CD128BFFB4";
name = Regular;
paths = (
{
closed = 1;
nodes = (
"709 1438 OFFCURVE",
"643 1395 OFFCURVE",
"643 1310 CURVE SMOOTH",
"643 461 LINE SMOOTH",
"643 257 OFFCURVE",
"574 190 OFFCURVE",
"426 190 CURVE SMOOTH",
"350 190 OFFCURVE",
"274 218 OFFCURVE",
"207 247 CURVE SMOOTH",
"193 253 OFFCURVE",
"180 256 OFFCURVE",
"167 256 CURVE SMOOTH",
"109 256 OFFCURVE",
"69 195 OFFCURVE",
"69 136 CURVE SMOOTH",
"69 131 OFFCURVE",
"69 127 OFFCURVE",
"70 122 CURVE",
"74 86 OFFCURVE",
"93 53 OFFCURVE",
"133 34 CURVE SMOOTH",
"218 -4 OFFCURVE",
"280 -31 OFFCURVE",
"444 -31 CURVE SMOOTH",
"703 -31 OFFCURVE",
"909 102 OFFCURVE",
"909 443 CURVE SMOOTH",
"909 1310 LINE SMOOTH",
"909 1395 OFFCURVE",
"844 1438 OFFCURVE",
"777 1438 CURVE SMOOTH"
);
}
);
width = 1058;
},
{
anchors = (
{
name = top;
position = "{771, 1438}";
}
);
layerId = "F10CBA7B-FAF3-4DDE-A14D-E99DB7E222CB";
name = Light;
paths = (
{
closed = 1;
nodes = (
"420 -22 CURVE SMOOTH",
"644 -22 OFFCURVE",
"861 103 OFFCURVE",
"861 441 CURVE SMOOTH",
"861 1343 LINE SMOOTH",
"861 1399 OFFCURVE",
"817 1426 OFFCURVE",
"772 1426 CURVE SMOOTH",
"727 1426 OFFCURVE",
"682 1399 OFFCURVE",
"682 1343 CURVE SMOOTH",
"682 456 LINE SMOOTH",
"682 223 OFFCURVE",
"590 126 OFFCURVE",
"423 126 CURVE SMOOTH",
"327 126 OFFCURVE",
"254 166 OFFCURVE",
"212 199 CURVE SMOOTH",
"186 219 OFFCURVE",
"164 227 OFFCURVE",
"145 227 CURVE SMOOTH",
"103 227 OFFCURVE",
"79 188 OFFCURVE",
"79 149 CURVE SMOOTH",
"79 144 OFFCURVE",
"79 139 OFFCURVE",
"80 135 CURVE SMOOTH",
"83 119 OFFCURVE",
"89 105 OFFCURVE",
"100 94 CURVE SMOOTH",
"145 50 OFFCURVE",
"257 -22 OFFCURVE"
);
}
);
width = 1003;
},
{
anchors = (
{
name = top;
position = "{856, 1438}";
}
);
layerId = "FB5FCFFA-D9F2-48E1-8F42-8D172ED4E960";
name = Bold;
paths = (
{
closed = 1;
nodes = (
"221 7 OFFCURVE",
"365 -34 OFFCURVE",
"513 -34 CURVE SMOOTH",
"845 -34 OFFCURVE",
"1037 139 OFFCURVE",
"1038 474 CURVE SMOOTH",
"1039 1258 LINE SMOOTH",
"1039 1367 OFFCURVE",
"956 1453 OFFCURVE",
"853 1453 CURVE SMOOTH",
"750 1453 OFFCURVE",
"668 1367 OFFCURVE",
"668 1258 CURVE SMOOTH",
"668 503 LINE SMOOTH",
"668 332 OFFCURVE",
"610 277 OFFCURVE",
"479 277 CURVE SMOOTH",
"414 277 OFFCURVE",
"353 310 OFFCURVE",
"315 339 CURVE SMOOTH",
"281 365 OFFCURVE",
"246 376 OFFCURVE",
"215 376 CURVE SMOOTH",
"134 376 OFFCURVE",
"71 304 OFFCURVE",
"71 221 CURVE SMOOTH",
"71 212 OFFCURVE",
"72 203 OFFCURVE",
"73 194 CURVE",
"79 160 OFFCURVE",
"97 124 OFFCURVE",
"130 93 CURVE SMOOTH"
);
}
);
width = 1173;
}
);
unicode = 004A;
userData = {
anchors = (
);
b = {
};
com.typemytype.robofont.layerData = {
};
components = (
);
contours = (
);
lib = {
};
name = J;
unicodes = (
);
width = 1126;
};
},
{
glyphname = K;
lastChange = "2013-12-11 00:20:45 -0800";
layers = (
{
anchors = (
{
name = bot;
position = "{674, 0}";
},
{
name = top;
position = "{646, 1438}";
}
);
layerId = "EBB1D39D-5A31-45B3-B44F-04CD128BFFB4";
name = Regular;
paths = (
{
closed = 1;
nodes = (
"242 1438 OFFCURVE",
"175 1396 OFFCURVE",
"175 1311 CURVE SMOOTH",
"175 127 LINE SMOOTH",
"175 42 OFFCURVE",
"240 0 OFFCURVE",
"307 0 CURVE SMOOTH",
"373 0 OFFCURVE",
"441 43 OFFCURVE",
"441 127 CURVE SMOOTH",
"441 720 LINE",
"1001 60 LINE",
"1028 17 OFFCURVE",
"1066 1 OFFCURVE",
"1105 1 CURVE SMOOTH",
"1173 1 OFFCURVE",
"1240 55 OFFCURVE",
"1240 124 CURVE SMOOTH",
"1240 147 OFFCURVE",
"1234 172 OFFCURVE",
"1215 197 CURVE",
"701 780 LINE",
"1163 1257 LINE",
"1179 1280 OFFCURVE",
"1187 1302 OFFCURVE",
"1187 1324 CURVE SMOOTH",
"1187 1388 OFFCURVE",
"1124 1436 OFFCURVE",
"1061 1436 CURVE SMOOTH",
"1024 1436 OFFCURVE",
"987 1420 OFFCURVE",
"960 1380 CURVE",
"441 805 LINE",
"441 1311 LINE SMOOTH",
"441 1396 OFFCURVE",
"374 1438 OFFCURVE",
"308 1438 CURVE SMOOTH"
);
}
);
width = 1329;
},
{
anchors = (
{
name = bot;
position = "{674, 0}";
},
{
name = top;
position = "{666, 1438}";
}
);
layerId = "F10CBA7B-FAF3-4DDE-A14D-E99DB7E222CB";
name = Light;
paths = (
{
closed = 1;
nodes = (
"292 0 CURVE SMOOTH",
"336 0 OFFCURVE",
"381 27 OFFCURVE",
"381 83 CURVE SMOOTH",
"381 711 LINE",
"1046 35 LINE",
"1066 11 OFFCURVE",
"1091 0 OFFCURVE",
"1115 0 CURVE SMOOTH",
"1162 0 OFFCURVE",
"1206 38 OFFCURVE",
"1206 84 CURVE SMOOTH",
"1206 102 OFFCURVE",
"1199 120 OFFCURVE",
"1184 139 CURVE",
"572 736 LINE",
"1128 1302 LINE",
"1141 1319 OFFCURVE",
"1148 1336 OFFCURVE",
"1148 1353 CURVE SMOOTH",
"1148 1394 OFFCURVE",
"1111 1426 OFFCURVE",
"1068 1426 CURVE SMOOTH",
"1045 1426 OFFCURVE",
"1022 1418 OFFCURVE",
"1003 1395 CURVE",
"381 755 LINE",
"381 1342 LINE SMOOTH",
"381 1397 OFFCURVE",
"337 1426 OFFCURVE",
"294 1426 CURVE SMOOTH",
"250 1426 OFFCURVE",
"206 1398 OFFCURVE",
"206 1342 CURVE SMOOTH",
"206 83 LINE SMOOTH",
"206 27 OFFCURVE",
"249 0 OFFCURVE"
);
}
);
width = 1238;
},
{
anchors = (
{
name = bot;
position = "{713, 0}";
},
{
name = top;
position = "{706, 1438}";
}
);
layerId = "FB5FCFFA-D9F2-48E1-8F42-8D172ED4E960";
name = Bold;
paths = (
{
closed = 1;
nodes = (
"335 0 CURVE SMOOTH",
"438 0 OFFCURVE",
"521 86 OFFCURVE",
"521 195 CURVE SMOOTH",
"519 714 LINE",
"953 171 LINE SMOOTH",
"1012 97 OFFCURVE",
"1078 -1 OFFCURVE",
"1174 0 CURVE SMOOTH",
"1258 0 OFFCURVE",
"1345 67 OFFCURVE",
"1345 155 CURVE SMOOTH",
"1345 209 OFFCURVE",
"1293 280 OFFCURVE",
"1248 336 CURVE SMOOTH",
"908 761 LINE",
"1225 1130 LINE SMOOTH",
"1270 1182 OFFCURVE",
"1321 1245 OFFCURVE",
"1321 1298 CURVE SMOOTH",
"1321 1386 OFFCURVE",
"1239 1452 OFFCURVE",
"1157 1452 CURVE SMOOTH",
"1084 1452 OFFCURVE",
"1038 1397 OFFCURVE",
"974 1322 CURVE SMOOTH",
"519 794 LINE",
"521 1258 LINE SMOOTH",
"521 1367 OFFCURVE",
"434 1453 OFFCURVE",
"335 1453 CURVE SMOOTH",
"232 1453 OFFCURVE",
"150 1367 OFFCURVE",
"150 1258 CURVE SMOOTH",
"150 195 LINE SMOOTH",
"150 86 OFFCURVE",
"232 0 OFFCURVE"
);
}
);
width = 1368;
}
);
leftKerningGroup = H_Right;
unicode = 004B;
userData = {
anchors = (
);
b = {
};
com.typemytype.robofont.layerData = {
};
components = (
);
contours = (
);
lib = {
};
name = K;
unicodes = (
);
width = 1329;
};
},
{
glyphname = L;
lastChange = "2013-12-11 00:21:01 -0800";
layers = (
{
anchors = (
{
name = bot;
position = "{674, 0}";
},
{
name = top;
position = "{586, 1438}";
}
);
layerId = "EBB1D39D-5A31-45B3-B44F-04CD128BFFB4";
name = Regular;
paths = (
{
closed = 1;
nodes = (
"239 1436 OFFCURVE",
"173 1393 OFFCURVE",
"173 1307 CURVE SMOOTH",
"173 133 LINE SMOOTH",
"173 59 OFFCURVE",
"236 0 OFFCURVE",
"308 0 CURVE SMOOTH",
"1020 0 LINE SMOOTH",
"1087 0 OFFCURVE",
"1121 50 OFFCURVE",
"1121 101 CURVE SMOOTH",
"1121 151 OFFCURVE",
"1087 202 OFFCURVE",
"1020 202 CURVE SMOOTH",
"439 202 LINE",
"439 1307 LINE SMOOTH",
"439 1393 OFFCURVE",
"374 1436 OFFCURVE",
"307 1436 CURVE SMOOTH"
);
}
);
width = 1139;
},
{
anchors = (
{
name = bot;
position = "{674, 0}";
},
{
name = top;
position = "{576, 1438}";
}
);
layerId = "F10CBA7B-FAF3-4DDE-A14D-E99DB7E222CB";
name = Light;
paths = (
{
closed = 1;
nodes = (
"285 0 CURVE SMOOTH",
"1020 0 LINE SMOOTH",
"1069 0 OFFCURVE",
"1094 37 OFFCURVE",
"1094 73 CURVE SMOOTH",
"1094 110 OFFCURVE",
"1071 146 OFFCURVE",
"1020 146 CURVE SMOOTH",
"373 146 LINE",
"373 1342 LINE SMOOTH",
"373 1398 OFFCURVE",
"329 1426 OFFCURVE",
"285 1426 CURVE SMOOTH",
"240 1426 OFFCURVE",
"195 1397 OFFCURVE",
"195 1342 CURVE SMOOTH",
"195 87 LINE SMOOTH",
"195 38 OFFCURVE",
"237 0 OFFCURVE"
);
}
);
width = 1102;
},
{
anchors = (
{
name = bot;
position = "{674, 0}";
},
{
name = top;
position = "{646, 1438}";
}
);
layerId = "FB5FCFFA-D9F2-48E1-8F42-8D172ED4E960";
name = Bold;
paths = (
{
closed = 1;
nodes = (
"336 0 CURVE SMOOTH",
"1021 0 LINE SMOOTH",
"1094 0 OFFCURVE",
"1154 60 OFFCURVE",
"1154 133 CURVE SMOOTH",
"1154 206 OFFCURVE",
"1094 266 OFFCURVE",
"1021 266 CURVE SMOOTH",
"522 266 LINE",
"521 1258 LINE SMOOTH",
"521 1367 OFFCURVE",
"438 1453 OFFCURVE",
"335 1453 CURVE SMOOTH",
"232 1453 OFFCURVE",
"150 1367 OFFCURVE",
"150 1258 CURVE SMOOTH",
"150 273 LINE SMOOTH",
"150 137 OFFCURVE",
"191 0 OFFCURVE"
);
}
);
width = 1155;
}
);
leftKerningGroup = H_Right;
unicode = 004C;
userData = {
anchors = (
);
b = {
};
com.typemytype.robofont.layerData = {
};
components = (
);
contours = (
);
lib = {
};
name = L;
unicodes = (
);
width = 1169;
};
},
{
glyphname = M;
lastChange = "2013-12-11 00:02:12 -0800";
layers = (
{
anchors = (
{
name = top;
position = "{976, 1438}";
}
);
layerId = "EBB1D39D-5A31-45B3-B44F-04CD128BFFB4";
name = Regular;
paths = (
{
closed = 1;
nodes = (
"1457 1438 OFFCURVE",
"1405 1394 OFFCURVE",
"1339 1243 CURVE SMOOTH",
"961 376 LINE",
"955 376 LINE",
"590 1241 LINE SMOOTH",
"525 1394 OFFCURVE",
"471 1438 OFFCURVE",
"367 1438 CURVE SMOOTH",
"263 1438 OFFCURVE",
"173 1377 OFFCURVE",
"173 1222 CURVE SMOOTH",
"173 116 LINE SMOOTH",
"173 39 OFFCURVE",
"235 0 OFFCURVE",
"296 0 CURVE SMOOTH",
"358 0 OFFCURVE",
"419 39 OFFCURVE",
"419 116 CURVE SMOOTH",
"419 1089 LINE",
"801 163 LINE",
"828 86 OFFCURVE",
"891 48 OFFCURVE",
"954 48 CURVE SMOOTH",
"1017 48 OFFCURVE",
"1080 87 OFFCURVE",
"1107 163 CURVE",
"1506 1095 LINE",
"1506 116 LINE SMOOTH",
"1506 39 OFFCURVE",
"1567 0 OFFCURVE",
"1629 0 CURVE SMOOTH",
"1690 0 OFFCURVE",
"1751 39 OFFCURVE",
"1751 116 CURVE SMOOTH",
"1751 1222 LINE SMOOTH",
"1751 1377 OFFCURVE",
"1661 1438 OFFCURVE",
"1560 1438 CURVE SMOOTH"
);
}
);
width = 1924;
},
{
anchors = (
{
name = top;
position = "{1004, 1438}";
}
);
layerId = "F10CBA7B-FAF3-4DDE-A14D-E99DB7E222CB";
name = Light;
paths = (
{
closed = 1;
nodes = (
"273 0 CURVE SMOOTH",
"314 0 OFFCURVE",
"356 27 OFFCURVE",
"356 79 CURVE SMOOTH",
"356 1245 LINE",
"857 110 LINE SMOOTH",
"880 57 OFFCURVE",
"918 33 OFFCURVE",
"962 33 CURVE SMOOTH",
"1006 33 OFFCURVE",
"1049 59 OFFCURVE",
"1070 110 CURVE",
"1573 1253 LINE",
"1573 79 LINE SMOOTH",
"1573 26 OFFCURVE",
"1613 0 OFFCURVE",
"1653 0 CURVE SMOOTH",
"1694 0 OFFCURVE",
"1736 27 OFFCURVE",
"1736 79 CURVE SMOOTH",
"1736 1271 LINE SMOOTH",
"1736 1379 OFFCURVE",
"1673 1426 OFFCURVE",
"1596 1426 CURVE SMOOTH",
"1513 1426 OFFCURVE",
"1476 1397 OFFCURVE",
"1425 1277 CURVE",
"966 230 LINE",
"961 230 LINE",
"512 1275 LINE SMOOTH",
"459 1397 OFFCURVE",
"417 1426 OFFCURVE",
"333 1426 CURVE SMOOTH",
"256 1426 OFFCURVE",
"193 1379 OFFCURVE",
"193 1271 CURVE SMOOTH",
"193 79 LINE SMOOTH",
"193 26 OFFCURVE",
"233 0 OFFCURVE"
);
}
);
width = 1929;
},
{
anchors = (
{
name = top;
position = "{1026, 1438}";
}
);
layerId = "FB5FCFFA-D9F2-48E1-8F42-8D172ED4E960";
name = Bold;
paths = (
{
closed = 1;
nodes = (
"229 -19 OFFCURVE",
"308 -19 CURVE SMOOTH",
"386 -19 OFFCURVE",
"463 29 OFFCURVE",
"463 126 CURVE SMOOTH",
"463 1099 LINE",
"758 319 LINE SMOOTH",
"823 148 OFFCURVE",
"884 67 OFFCURVE",
"1003 67 CURVE SMOOTH",
"1132 67 OFFCURVE",
"1201 184 OFFCURVE",
"1255 320 CURVE SMOOTH",
"1554 1103 LINE",
"1554 126 LINE SMOOTH",
"1554 30 OFFCURVE",
"1633 -19 OFFCURVE",
"1711 -19 CURVE SMOOTH",
"1788 -19 OFFCURVE",
"1865 29 OFFCURVE",
"1865 126 CURVE SMOOTH",
"1865 1104 LINE SMOOTH",
"1865 1372 OFFCURVE",
"1768 1442 OFFCURVE",
"1639 1457 CURVE SMOOTH",
"1481 1475 OFFCURVE",
"1402 1426 OFFCURVE",
"1307 1194 CURVE SMOOTH",
"1011 474 LINE",
"1003 474 LINE",
"726 1162 LINE SMOOTH",
"614 1441 OFFCURVE",
"521 1467 OFFCURVE",
"401 1457 CURVE SMOOTH",
"240 1443 OFFCURVE",
"150 1354 OFFCURVE",
"150 1068 CURVE SMOOTH",
"150 126 LINE SMOOTH",
"150 30 OFFCURVE"
);
}
);
width = 2015;
}
);
leftKerningGroup = H_Right;
rightKerningGroup = H_Left;
unicode = 004D;
userData = {
anchors = (
);
b = {
};
com.typemytype.robofont.layerData = {
};
components = (
);
contours = (
);
lib = {
};
name = M;
unicodes = (
);
width = 1984;
};
},
{
glyphname = N;
lastChange = "2013-12-11 00:02:28 -0800";
layers = (
{
anchors = (
{
name = top;
position = "{806, 1438}";
}
);
layerId = "EBB1D39D-5A31-45B3-B44F-04CD128BFFB4";
name = Regular;
paths = (
{
closed = 1;
nodes = (
"1212 1438 OFFCURVE",
"1154 1399 OFFCURVE",
"1154 1324 CURVE SMOOTH",
"1154 391 LINE",
"455 1360 LINE",
"414 1412 OFFCURVE",
"362 1437 OFFCURVE",
"311 1437 CURVE SMOOTH",
"235 1437 OFFCURVE",
"168 1379 OFFCURVE",
"168 1278 CURVE SMOOTH",
"168 113 LINE SMOOTH",
"168 37 OFFCURVE",
"226 0 OFFCURVE",
"285 0 CURVE SMOOTH",
"344 0 OFFCURVE",
"404 38 OFFCURVE",
"404 113 CURVE SMOOTH",
"404 1041 LINE",
"1099 77 LINE",
"1142 24 OFFCURVE",
"1194 0 OFFCURVE",
"1243 0 CURVE SMOOTH",
"1320 0 OFFCURVE",
"1389 59 OFFCURVE",
"1389 159 CURVE SMOOTH",
"1389 1324 LINE SMOOTH",
"1389 1400 OFFCURVE",
"1331 1438 OFFCURVE",
"1272 1438 CURVE SMOOTH"
);
}
);
width = 1557;
},
{
anchors = (
{
name = top;
position = "{796, 1438}";
}
);
layerId = "F10CBA7B-FAF3-4DDE-A14D-E99DB7E222CB";
name = Light;
paths = (
{
closed = 1;
nodes = (
"263 0 CURVE SMOOTH",
"305 0 OFFCURVE",
"348 27 OFFCURVE",
"348 79 CURVE SMOOTH",
"348 1183 LINE",
"1093 58 LINE",
"1122 18 OFFCURVE",
"1163 0 OFFCURVE",
"1202 0 CURVE SMOOTH",
"1265 0 OFFCURVE",
"1323 43 OFFCURVE",
"1323 118 CURVE SMOOTH",
"1323 1346 LINE SMOOTH",
"1323 1399 OFFCURVE",
"1281 1426 OFFCURVE",
"1240 1426 CURVE SMOOTH",
"1197 1426 OFFCURVE",
"1156 1399 OFFCURVE",
"1156 1346 CURVE SMOOTH",
"1156 227 LINE",
"399 1368 LINE",
"370 1408 OFFCURVE",
"332 1426 OFFCURVE",
"293 1426 CURVE SMOOTH",
"234 1426 OFFCURVE",
"180 1383 OFFCURVE",
"180 1308 CURVE SMOOTH",
"180 79 LINE SMOOTH",
"180 26 OFFCURVE",
"220 0 OFFCURVE"
);
}
);
width = 1502;
},
{
anchors = (
{
name = top;
position = "{826, 1438}";
}
);
layerId = "FB5FCFFA-D9F2-48E1-8F42-8D172ED4E960";
name = Bold;
paths = (
{
closed = 1;
nodes = (
"306 0 CURVE SMOOTH",
"393 0 OFFCURVE",
"464 70 OFFCURVE",
"464 157 CURVE SMOOTH",
"464 966 LINE",
"1060 156 LINE",
"1127 68 OFFCURVE",
"1198 0 OFFCURVE",
"1282 0 CURVE SMOOTH",
"1437 0 OFFCURVE",
"1460 131 OFFCURVE",
"1460 278 CURVE SMOOTH",
"1460 1296 LINE SMOOTH",
"1460 1383 OFFCURVE",
"1390 1453 OFFCURVE",
"1303 1453 CURVE SMOOTH",
"1215 1453 OFFCURVE",
"1147 1383 OFFCURVE",
"1147 1296 CURVE SMOOTH",
"1147 497 LINE",
"557 1297 LINE SMOOTH",
"494 1383 OFFCURVE",
"417 1452 OFFCURVE",
"332 1453 CURVE",
"232 1453 OFFCURVE",
"150 1380 OFFCURVE",
"150 1249 CURVE SMOOTH",
"150 157 LINE SMOOTH",
"150 70 OFFCURVE",
"218 0 OFFCURVE"
);
}
);
width = 1610;
}
);
leftKerningGroup = H_Right;
rightKerningGroup = H_Left;
unicode = 004E;
userData = {
anchors = (
);
b = {
};
com.typemytype.robofont.layerData = {
};
components = (
);
contours = (
);
lib = {
};
name = N;
unicodes = (
);
width = 1557;
};
},
{
glyphname = O;
lastChange = "2013-12-11 00:10:28 -0800";
layers = (
{
anchors = (
{
name = top;
position = "{805, 1438}";
}
);
layerId = "EBB1D39D-5A31-45B3-B44F-04CD128BFFB4";
name = Regular;
paths = (
{
closed = 1;
nodes = (
"354 1470 OFFCURVE",
"111 1166 OFFCURVE",
"111 718 CURVE SMOOTH",
"111 271 OFFCURVE",
"354 -33 OFFCURVE",
"802 -33 CURVE SMOOTH",
"1253 -33 OFFCURVE",
"1493 271 OFFCURVE",
"1493 718 CURVE SMOOTH",
"1493 1166 OFFCURVE",
"1253 1470 OFFCURVE",
"802 1470 CURVE SMOOTH"
);
},
{
closed = 1;
nodes = (
"1088 1272 OFFCURVE",
"1227 1035 OFFCURVE",
"1227 718 CURVE SMOOTH",
"1227 398 OFFCURVE",
"1086 165 OFFCURVE",
"802 165 CURVE SMOOTH",
"517 165 OFFCURVE",
"377 398 OFFCURVE",
"377 718 CURVE SMOOTH",
"377 1035 OFFCURVE",
"516 1272 OFFCURVE",
"802 1272 CURVE SMOOTH"
);
}
);
width = 1604;
},
{
anchors = (
{
name = ogonek;
position = "{817, 9}";
},
{
name = top;
position = "{799, 1438}";
}
);
layerId = "F10CBA7B-FAF3-4DDE-A14D-E99DB7E222CB";
name = Light;
paths = (
{
closed = 1;
nodes = (
"799 123 CURVE SMOOTH",
"490 123 OFFCURVE",
"319 332 OFFCURVE",
"319 708 CURVE SMOOTH",
"319 1084 OFFCURVE",
"490 1293 OFFCURVE",
"799 1293 CURVE SMOOTH",
"1108 1293 OFFCURVE",
"1279 1084 OFFCURVE",
"1279 708 CURVE SMOOTH",
"1279 332 OFFCURVE",
"1108 123 OFFCURVE"
);
},
{
closed = 1;
nodes = (
"799 -22 CURVE SMOOTH",
"1210 -22 OFFCURVE",
"1468 260 OFFCURVE",
"1468 708 CURVE SMOOTH",
"1468 1156 OFFCURVE",
"1210 1438 OFFCURVE",
"799 1438 CURVE SMOOTH",
"387 1438 OFFCURVE",
"128 1156 OFFCURVE",
"128 708 CURVE SMOOTH",
"128 260 OFFCURVE",
"387 -22 OFFCURVE"
);
}
);
width = 1597;
},
{
anchors = (
{
name = top;
position = "{816, 1438}";
}
);
layerId = "FB5FCFFA-D9F2-48E1-8F42-8D172ED4E960";
name = Bold;
paths = (
{
closed = 1;
nodes = (
"817 224 CURVE SMOOTH",
"584 224 OFFCURVE",
"491 367 OFFCURVE",
"491 725 CURVE SMOOTH",
"491 1084 OFFCURVE",
"584 1227 OFFCURVE",
"817 1227 CURVE SMOOTH",
"1051 1227 OFFCURVE",
"1144 1084 OFFCURVE",
"1144 725 CURVE SMOOTH",
"1144 367 OFFCURVE",
"1051 224 OFFCURVE"
);
},
{
closed = 1;
nodes = (
"817 -35 CURVE SMOOTH",
"1287 -35 OFFCURVE",
"1532 226 OFFCURVE",
"1532 725 CURVE SMOOTH",
"1532 1225 OFFCURVE",
"1287 1486 OFFCURVE",
"817 1486 CURVE SMOOTH",
"347 1486 OFFCURVE",
"102 1225 OFFCURVE",
"102 725 CURVE SMOOTH",
"102 226 OFFCURVE",
"347 -35 OFFCURVE"
);
}
);
width = 1634;
}
);
leftKerningGroup = O_Right;
rightKerningGroup = O_Left;
unicode = 004F;
userData = {
anchors = (
);
b = {
};
com.typemytype.robofont.layerData = {
};
components = (
);
contours = (
);
lib = {
};
name = O;
unicodes = (
);
width = 1604;
};
},
{
glyphname = P;
lastChange = "2013-12-11 00:02:39 -0800";
layers = (
{
anchors = (
{
name = top;
position = "{666, 1438}";
}
);
layerId = "EBB1D39D-5A31-45B3-B44F-04CD128BFFB4";
name = Regular;
paths = (
{
closed = 1;
nodes = (
"308 1438 LINE SMOOTH",
"233 1438 OFFCURVE",
"173 1378 OFFCURVE",
"173 1305 CURVE SMOOTH",
"173 128 LINE SMOOTH",
"173 42 OFFCURVE",
"239 -1 OFFCURVE",
"306 -1 CURVE SMOOTH",
"374 -1 OFFCURVE",
"439 42 OFFCURVE",
"439 128 CURVE SMOOTH",
"439 581 LINE",
"724 581 LINE SMOOTH",
"1040 581 OFFCURVE",
"1271 694 OFFCURVE",
"1271 1011 CURVE SMOOTH",
"1271 1322 OFFCURVE",
"1048 1438 OFFCURVE",
"748 1438 CURVE SMOOTH"
);
},
{
closed = 1;
nodes = (
"725 1254 LINE SMOOTH",
"901 1254 OFFCURVE",
"1005 1197 OFFCURVE",
"1005 1011 CURVE SMOOTH",
"1005 823 OFFCURVE",
"899 765 OFFCURVE",
"715 765 CURVE SMOOTH",
"439 765 LINE",
"439 1254 LINE"
);
}
);
width = 1302;
},
{
anchors = (
{
name = top;
position = "{656, 1438}";
}
);
layerId = "F10CBA7B-FAF3-4DDE-A14D-E99DB7E222CB";
name = Light;
paths = (
{
closed = 1;
nodes = (
"282 0 CURVE SMOOTH",
"326 0 OFFCURVE",
"371 27 OFFCURVE",
"371 84 CURVE SMOOTH",
"371 624 LINE",
"683 624 LINE SMOOTH",
"976 624 OFFCURVE",
"1197 722 OFFCURVE",
"1197 1026 CURVE SMOOTH",
"1197 1324 OFFCURVE",
"981 1426 OFFCURVE",
"691 1426 CURVE SMOOTH",
"283 1426 LINE SMOOTH",
"232 1426 OFFCURVE",
"193 1387 OFFCURVE",
"193 1339 CURVE SMOOTH",
"193 84 LINE SMOOTH",
"193 28 OFFCURVE",
"237 0 OFFCURVE"
);
},
{
closed = 1;
nodes = (
"371 764 CURVE",
"371 1286 LINE",
"371 1286 OFFCURVE",
"730 1286 OFFCURVE",
"736 1286 CURVE SMOOTH",
"919 1286 OFFCURVE",
"1011 1210 OFFCURVE",
"1011 1026 CURVE SMOOTH",
"1011 838 OFFCURVE",
"916 764 OFFCURVE",
"730 764 CURVE SMOOTH",
"725 764 OFFCURVE",
"371 764 OFFCURVE"
);
}
);
width = 1216;
},
{
anchors = (
{
name = top;
position = "{736, 1438}";
}
);
layerId = "FB5FCFFA-D9F2-48E1-8F42-8D172ED4E960";
name = Bold;
paths = (
{
closed = 1;
nodes = (
"335 0 CURVE SMOOTH",
"437 0 OFFCURVE",
"522 86 OFFCURVE",
"522 195 CURVE SMOOTH",
"522 554 LINE",
"780 554 LINE SMOOTH",
"1133 554 OFFCURVE",
"1341 699 OFFCURVE",
"1341 1005 CURVE SMOOTH",
"1341 1361 OFFCURVE",
"1087 1453 OFFCURVE",
"780 1453 CURVE SMOOTH",
"390 1453 LINE SMOOTH",
"175 1453 OFFCURVE",
"150 1331 OFFCURVE",
"150 1178 CURVE SMOOTH",
"150 195 LINE SMOOTH",
"150 86 OFFCURVE",
"232 0 OFFCURVE"
);
},
{
closed = 1;
nodes = (
"522 777 LINE",
"522 1216 LINE",
"736 1216 LINE SMOOTH",
"892 1216 OFFCURVE",
"977 1182 OFFCURVE",
"977 1005 CURVE SMOOTH",
"977 821 OFFCURVE",
"889 781 OFFCURVE",
"719 777 CURVE"
);
}
);
width = 1373;
}
);
leftKerningGroup = H_Right;
rightKerningGroup = P_Left;
unicode = 0050;
userData = {
anchors = (
);
b = {
};
com.typemytype.robofont.layerData = {
};
components = (
);
contours = (
);
lib = {
};
name = P;
unicodes = (
);
width = 1319;
};
},
{
glyphname = Q;
lastChange = "2013-12-10 22:43:09 -0800";
layers = (
{
layerId = "EBB1D39D-5A31-45B3-B44F-04CD128BFFB4";
name = Regular;
paths = (
{
closed = 1;
nodes = (
"354 1470 OFFCURVE",
"111 1166 OFFCURVE",
"111 718 CURVE SMOOTH",
"111 271 OFFCURVE",
"354 -33 OFFCURVE",
"802 -33 CURVE SMOOTH",
"850 -33 OFFCURVE",
"895 -25 OFFCURVE",
"959 -10 CURVE",
"982 -10 OFFCURVE",
"1352 -4 OFFCURVE",
"1448 0 CURVE SMOOTH",
"1512 3 OFFCURVE",
"1544 49 OFFCURVE",
"1544 97 CURVE SMOOTH",
"1544 144 OFFCURVE",
"1512 191 OFFCURVE",
"1448 191 CURVE SMOOTH",
"1266 191 LINE",
"1400 317 OFFCURVE",
"1489 501 OFFCURVE",
"1489 724 CURVE SMOOTH",
"1489 1172 OFFCURVE",
"1253 1470 OFFCURVE",
"802 1470 CURVE SMOOTH"
);
},
{
closed = 1;
nodes = (
"1088 1272 OFFCURVE",
"1223 1035 OFFCURVE",
"1223 718 CURVE SMOOTH",
"1223 398 OFFCURVE",
"1086 165 OFFCURVE",
"802 165 CURVE SMOOTH",
"517 165 OFFCURVE",
"377 398 OFFCURVE",
"377 718 CURVE SMOOTH",
"377 1035 OFFCURVE",
"516 1272 OFFCURVE",
"802 1272 CURVE SMOOTH"
);
}
);
width = 1604;
},
{
layerId = "F10CBA7B-FAF3-4DDE-A14D-E99DB7E222CB";
name = Light;
paths = (
{
closed = 1;
nodes = (
"799 -22 CURVE SMOOTH",
"859 -22 OFFCURVE",
"910 -15 OFFCURVE",
"979 0 CURVE",
"1449 0 LINE",
"1497 1 OFFCURVE",
"1521 35 OFFCURVE",
"1521 72 CURVE SMOOTH",
"1521 107 OFFCURVE",
"1497 142 OFFCURVE",
"1449 142 CURVE SMOOTH",
"1223 142 LINE",
"1374 289 OFFCURVE",
"1467 489 OFFCURVE",
"1467 704 CURVE SMOOTH",
"1467 1133 OFFCURVE",
"1233 1438 OFFCURVE",
"799 1438 CURVE SMOOTH",
"361 1438 OFFCURVE",
"128 1129 OFFCURVE",
"128 702 CURVE SMOOTH",
"128 264 OFFCURVE",
"375 -22 OFFCURVE"
);
},
{
closed = 1;
nodes = (
"799 119 CURVE SMOOTH",
"447 119 OFFCURVE",
"319 428 OFFCURVE",
"319 702 CURVE SMOOTH",
"319 1011 OFFCURVE",
"461 1293 OFFCURVE",
"799 1293 CURVE SMOOTH",
"1140 1293 OFFCURVE",
"1279 1000 OFFCURVE",
"1279 702 CURVE SMOOTH",
"1279 409 OFFCURVE",
"1138 119 OFFCURVE"
);
}
);
width = 1597;
},
{
layerId = "FB5FCFFA-D9F2-48E1-8F42-8D172ED4E960";
name = Bold;
paths = (
{
closed = 1;
nodes = (
"822 -35 CURVE SMOOTH",
"894 -35 OFFCURVE",
"1017 -18 OFFCURVE",
"1053 -15 CURVE",
"1412 -1 LINE SMOOTH",
"1525 3 OFFCURVE",
"1581 42 OFFCURVE",
"1581 125 CURVE SMOOTH",
"1581 224 OFFCURVE",
"1491 246 OFFCURVE",
"1403 246 CURVE SMOOTH",
"1325 246 LINE",
"1445 369 OFFCURVE",
"1526 538 OFFCURVE",
"1526 735 CURVE SMOOTH",
"1526 1196 OFFCURVE",
"1278 1486 OFFCURVE",
"817 1486 CURVE SMOOTH",
"340 1486 OFFCURVE",
"102 1167 OFFCURVE",
"102 725 CURVE SMOOTH",
"102 265 OFFCURVE",
"355 -35 OFFCURVE"
);
},
{
closed = 1;
nodes = (
"817 224 CURVE SMOOTH",
"593 224 OFFCURVE",
"491 394 OFFCURVE",
"491 725 CURVE SMOOTH",
"491 1045 OFFCURVE",
"593 1227 OFFCURVE",
"817 1227 CURVE SMOOTH",
"1043 1227 OFFCURVE",
"1144 1045 OFFCURVE",
"1144 725 CURVE SMOOTH",
"1144 393 OFFCURVE",
"1037 224 OFFCURVE"
);
}
);
width = 1623;
}
);
leftKerningGroup = O_Right;
rightKerningGroup = O_Left;
unicode = 0051;
userData = {
anchors = (
);
b = {
};
com.typemytype.robofont.layerData = {
};
components = (
);
contours = (
);
lib = {
};
name = Q;
unicodes = (
);
width = 1604;
};
},
{
glyphname = R;
lastChange = "2013-12-11 00:02:43 -0800";
layers = (
{
anchors = (
{
name = top;
position = "{676, 1438}";
}
);
layerId = "EBB1D39D-5A31-45B3-B44F-04CD128BFFB4";
name = Regular;
paths = (
{
closed = 1;
nodes = (
"306 1438 LINE SMOOTH",
"233 1438 OFFCURVE",
"173 1379 OFFCURVE",
"173 1307 CURVE SMOOTH",
"173 129 LINE SMOOTH",
"173 44 OFFCURVE",
"239 2 OFFCURVE",
"305 2 CURVE SMOOTH",
"371 2 OFFCURVE",
"439 44 OFFCURVE",
"439 129 CURVE SMOOTH",
"439 632 LINE",
"715 632 LINE SMOOTH",
"982 632 OFFCURVE",
"959 547 OFFCURVE",
"1003 117 CURVE",
"1014 39 OFFCURVE",
"1075 2 OFFCURVE",
"1137 2 CURVE SMOOTH",
"1203 2 OFFCURVE",
"1269 45 OFFCURVE",
"1269 125 CURVE",
"1262 225 LINE SMOOTH",
"1235 522 OFFCURVE",
"1239 703 OFFCURVE",
"969 742 CURVE",
"969 746 LINE",
"1179 786 OFFCURVE",
"1275 910 OFFCURVE",
"1275 1071 CURVE SMOOTH",
"1275 1364 OFFCURVE",
"1024 1438 OFFCURVE",
"756 1438 CURVE SMOOTH"
);
},
{
closed = 1;
nodes = (
"706 1254 LINE SMOOTH",
"843 1254 OFFCURVE",
"1009 1236 OFFCURVE",
"1009 1037 CURVE SMOOTH",
"1009 835 OFFCURVE",
"820 814 OFFCURVE",
"655 814 CURVE SMOOTH",
"439 814 LINE",
"439 1254 LINE"
);
}
);
width = 1408;
},
{
anchors = (
{
name = top;
position = "{706, 1438}";
}
);
layerId = "F10CBA7B-FAF3-4DDE-A14D-E99DB7E222CB";
name = Light;
paths = (
{
closed = 1;
nodes = (
"288 0 CURVE SMOOTH",
"332 0 OFFCURVE",
"377 27 OFFCURVE",
"377 84 CURVE SMOOTH",
"377 662 LINE",
"714 662 LINE SMOOTH",
"1016 662 OFFCURVE",
"988 574 OFFCURVE",
"1036 81 CURVE SMOOTH",
"1041 26 OFFCURVE",
"1085 0 OFFCURVE",
"1128 0 CURVE SMOOTH",
"1176 0 OFFCURVE",
"1218 30 OFFCURVE",
"1218 87 CURVE",
"1211 178 LINE SMOOTH",
"1197.77 334.127 OFFCURVE",
"1241.24 691.776 OFFCURVE",
"931 740 CURVE",
"931 744 LINE",
"1118 785 OFFCURVE",
"1223 899 OFFCURVE",
"1223 1056 CURVE SMOOTH",
"1223 1357 OFFCURVE",
"962 1426 OFFCURVE",
"717 1426 CURVE SMOOTH",
"289 1426 LINE SMOOTH",
"240 1426 OFFCURVE",
"200 1387 OFFCURVE",
"200 1340 CURVE SMOOTH",
"200 84 LINE SMOOTH",
"200 28 OFFCURVE",
"244 0 OFFCURVE"
);
},
{
closed = 1;
nodes = (
"377 801 LINE",
"377 1286 LINE",
"703 1286 LINE SMOOTH",
"846 1286 OFFCURVE",
"1038 1269 OFFCURVE",
"1038 1044 CURVE SMOOTH",
"1038 816 OFFCURVE",
"819 801 OFFCURVE",
"639 801 CURVE SMOOTH"
);
}
);
width = 1385;
},
{
anchors = (
{
name = top;
position = "{736, 1438}";
}
);
layerId = "FB5FCFFA-D9F2-48E1-8F42-8D172ED4E960";
name = Bold;
paths = (
{
closed = 1;
nodes = (
"335 0 CURVE SMOOTH",
"438 0 OFFCURVE",
"521 64 OFFCURVE",
"521 195 CURVE SMOOTH",
"521 598 LINE",
"724 598 LINE SMOOTH",
"921 598 OFFCURVE",
"943 486 OFFCURVE",
"970 254 CURVE SMOOTH",
"990 86 OFFCURVE",
"1030 0 OFFCURVE",
"1173 0 CURVE SMOOTH",
"1304 0 OFFCURVE",
"1334 78 OFFCURVE",
"1334 181 CURVE SMOOTH",
"1334 182 OFFCURVE",
"1334 183 OFFCURVE",
"1334 185 CURVE SMOOTH",
"1334 215 OFFCURVE",
"1332 247 OFFCURVE",
"1328 280 CURVE",
"1299 595 OFFCURVE",
"1275 712 OFFCURVE",
"1020 744 CURVE",
"1020 748 LINE",
"1257 788 OFFCURVE",
"1342 922 OFFCURVE",
"1342 1088 CURVE SMOOTH",
"1342 1391 OFFCURVE",
"1075 1453 OFFCURVE",
"779 1453 CURVE SMOOTH",
"378 1453 LINE SMOOTH",
"255 1453 OFFCURVE",
"150 1392 OFFCURVE",
"150 1269 CURVE SMOOTH",
"150 195 LINE SMOOTH",
"150 69 OFFCURVE",
"232 0 OFFCURVE"
);
},
{
closed = 1;
nodes = (
"515 830 LINE",
"515 1228 LINE",
"666 1228 LINE SMOOTH",
"825 1228 OFFCURVE",
"978 1224 OFFCURVE",
"978 1029 CURVE SMOOTH",
"978 853 OFFCURVE",
"819 830 OFFCURVE",
"675 830 CURVE SMOOTH"
);
}
);
width = 1459;
}
);
leftKerningGroup = H_Right;
rightKerningGroup = R_Left;
unicode = 0052;
userData = {
anchors = (
);
b = {
};
com.typemytype.robofont.layerData = {
};
components = (
);
contours = (
);
lib = {
};
name = R;
unicodes = (
);
width = 1408;
};
},
{
glyphname = S;
lastChange = "2013-12-11 00:39:42 -0800";
layers = (
{
anchors = (
{
name = bot;
position = "{655, 0}";
},
{
name = top;
position = "{666, 1438}";
}
);
layerId = "EBB1D39D-5A31-45B3-B44F-04CD128BFFB4";
name = Regular;
paths = (
{
closed = 1;
nodes = (
"361 1470 OFFCURVE",
"126 1319 OFFCURVE",
"126 1063 CURVE SMOOTH",
"126 861 OFFCURVE",
"248 755 OFFCURVE",
"447 684 CURVE SMOOTH",
"486 670 OFFCURVE",
"717 589 OFFCURVE",
"779 568 CURVE SMOOTH",
"884 532 OFFCURVE",
"957 475 OFFCURVE",
"957 364 CURVE SMOOTH",
"957 229 OFFCURVE",
"827 170 OFFCURVE",
"656 170 CURVE SMOOTH",
"485 170 OFFCURVE",
"339 230 OFFCURVE",
"253 286 CURVE SMOOTH",
"230 301 OFFCURVE",
"207 319 OFFCURVE",
"184 319 CURVE SMOOTH",
"144 319 OFFCURVE",
"97 260 OFFCURVE",
"97 212 CURVE SMOOTH",
"97 199 OFFCURVE",
"91 171 OFFCURVE",
"107 154 CURVE",
"191 47 OFFCURVE",
"405 -36 OFFCURVE",
"658 -36 CURVE SMOOTH",
"996 -36 OFFCURVE",
"1223 126 OFFCURVE",
"1223 393 CURVE SMOOTH",
"1223 624 OFFCURVE",
"1063 727 OFFCURVE",
"839 802 CURVE SMOOTH",
"820 808 OFFCURVE",
"575 887 OFFCURVE",
"507 913 CURVE SMOOTH",
"427 944 OFFCURVE",
"379 997 OFFCURVE",
"379 1081 CURVE SMOOTH",
"379 1214 OFFCURVE",
"544 1264 OFFCURVE",
"684 1264 CURVE SMOOTH",
"828 1264 OFFCURVE",
"945 1217 OFFCURVE",
"1018 1166 CURVE",
"1041 1146 OFFCURVE",
"1062 1136 OFFCURVE",
"1081 1136 CURVE SMOOTH",
"1148 1136 OFFCURVE",
"1180 1205 OFFCURVE",
"1180 1250 CURVE SMOOTH",
"1180 1273 OFFCURVE",
"1176 1296 OFFCURVE",
"1157 1313 CURVE SMOOTH",
"1033 1421 OFFCURVE",
"873 1470 OFFCURVE",
"669 1470 CURVE SMOOTH"
);
}
);
width = 1317;
},
{
anchors = (
{
name = bot;
position = "{637, 9}";
},
{
name = top;
position = "{646, 1438}";
}
);
layerId = "F10CBA7B-FAF3-4DDE-A14D-E99DB7E222CB";
name = Light;
paths = (
{
closed = 1;
nodes = (
"629 -22 CURVE SMOOTH",
"940 -22 OFFCURVE",
"1164 135 OFFCURVE",
"1164 366 CURVE SMOOTH",
"1164 607.048 OFFCURVE",
"992.557 693.711 OFFCURVE",
"787.526 762.27 CURVE SMOOTH",
"711.911 787.554 OFFCURVE",
"631.375 808.875 OFFCURVE",
"560.443 835.588 CURVE SMOOTH",
"429.262 884.99 OFFCURVE",
"328 950.705 OFFCURVE",
"328 1074 CURVE SMOOTH",
"328 1215 OFFCURVE",
"503 1289 OFFCURVE",
"656 1289 CURVE SMOOTH",
"806 1289 OFFCURVE",
"909 1231 OFFCURVE",
"995 1167 CURVE",
"1019 1143 OFFCURVE",
"1041 1131 OFFCURVE",
"1060 1131 CURVE SMOOTH",
"1109 1131 OFFCURVE",
"1128 1173 OFFCURVE",
"1128 1203 CURVE SMOOTH",
"1128 1220 OFFCURVE",
"1126 1235 OFFCURVE",
"1115 1247 CURVE SMOOTH",
"994 1376 OFFCURVE",
"839 1438 OFFCURVE",
"640 1438 CURVE SMOOTH",
"379 1438 OFFCURVE",
"145 1294 OFFCURVE",
"145 1064 CURVE SMOOTH",
"145 864.217 OFFCURVE",
"296.451 762.951 OFFCURVE",
"479.58 693.38 CURVE SMOOTH",
"548.365 667.248 OFFCURVE",
"622.264 646.199 OFFCURVE",
"691 623.558 CURVE SMOOTH",
"847.869 571.886 OFFCURVE",
"979 510.921 OFFCURVE",
"979 355 CURVE SMOOTH",
"979 216 OFFCURVE",
"836 124 OFFCURVE",
"647 124 CURVE SMOOTH",
"459 124 OFFCURVE",
"346 183 OFFCURVE",
"256 248 CURVE SMOOTH",
"232 265 OFFCURVE",
"207 287 OFFCURVE",
"183 287 CURVE SMOOTH",
"154 287 OFFCURVE",
"121 243 OFFCURVE",
"121 206 CURVE SMOOTH",
"121 191 OFFCURVE",
"125 177 OFFCURVE",
"136 166 CURVE SMOOTH",
"239 60 OFFCURVE",
"410 -22 OFFCURVE"
);
}
);
width = 1274;
},
{
anchors = (
{
name = bot;
position = "{695, 0}";
},
{
name = top;
position = "{696, 1438}";
}
);
layerId = "FB5FCFFA-D9F2-48E1-8F42-8D172ED4E960";
name = Bold;
paths = (
{
closed = 1;
nodes = (
"695 -35 CURVE SMOOTH",
"1063 -35 OFFCURVE",
"1293 139 OFFCURVE",
"1293 419 CURVE SMOOTH",
"1293 675 OFFCURVE",
"1107 772 OFFCURVE",
"824 856 CURVE SMOOTH",
"773.455 870.934 OFFCURVE",
"722.002 884.466 OFFCURVE",
"674.332 899.248 CURVE SMOOTH",
"556.014 935.939 OFFCURVE",
"461 980.335 OFFCURVE",
"461 1073 CURVE SMOOTH",
"461 1184 OFFCURVE",
"592 1227 OFFCURVE",
"720 1227 CURVE SMOOTH",
"856 1227 OFFCURVE",
"939 1201 OFFCURVE",
"1064 1137 CURVE SMOOTH",
"1081 1128 OFFCURVE",
"1099 1124 OFFCURVE",
"1119 1124 CURVE SMOOTH",
"1181 1124 OFFCURVE",
"1236 1171 OFFCURVE",
"1236 1238 CURVE SMOOTH",
"1236 1281.71 OFFCURVE",
"1214.75 1319.22 OFFCURVE",
"1179.76 1350.86 CURVE SMOOTH",
"1077.05 1443.72 OFFCURVE",
"855.919 1486 OFFCURVE",
"706 1486 CURVE SMOOTH",
"338 1486 OFFCURVE",
"109 1315 OFFCURVE",
"109 1048 CURVE SMOOTH",
"109 845 OFFCURVE",
"208 750 OFFCURVE",
"451 662 CURVE",
"451 662 OFFCURVE",
"783 552 OFFCURVE",
"783 552 CURVE SMOOTH",
"867 522 OFFCURVE",
"936 477 OFFCURVE",
"936 388 CURVE SMOOTH",
"936 272 OFFCURVE",
"821 224 OFFCURVE",
"685 224 CURVE SMOOTH",
"560 224 OFFCURVE",
"442 264 OFFCURVE",
"350 305 CURVE",
"294 326 OFFCURVE",
"253 362 OFFCURVE",
"205 362 CURVE SMOOTH",
"152 362 OFFCURVE",
"90 292 OFFCURVE",
"90 226 CURVE SMOOTH",
"90 179.264 OFFCURVE",
"118.99 137.106 OFFCURVE",
"167.182 100.977 CURVE SMOOTH",
"279.853 16.5108 OFFCURVE",
"497.483 -35 OFFCURVE"
);
}
);
width = 1371;
}
);
leftKerningGroup = S_Right;
rightKerningGroup = S_Left;
unicode = 0053;
userData = {
anchors = (
);
b = {
};
com.typemytype.robofont.layerData = {
};
components = (
);
contours = (
);
lib = {
};
name = S;
unicodes = (
);
width = 1317;
};
},
{
glyphname = T;
lastChange = "2013-12-11 00:38:55 -0800";
layers = (
{
anchors = (
{
name = bot;
position = "{599, 0}";
},
{
name = mid;
position = "{604, 699}";
},
{
name = top;
position = "{613, 1438}";
}
);
layerId = "EBB1D39D-5A31-45B3-B44F-04CD128BFFB4";
name = Regular;
paths = (
{
closed = 1;
nodes = (
"128 1438 LINE SMOOTH",
"60 1438 OFFCURVE",
"25 1387 OFFCURVE",
"25 1336 CURVE SMOOTH",
"25 1285 OFFCURVE",
"59 1236 OFFCURVE",
"128 1236 CURVE SMOOTH",
"467 1236 LINE",
"467 129 LINE SMOOTH",
"467 43 OFFCURVE",
"533 -1 OFFCURVE",
"600 -1 CURVE SMOOTH",
"667 -1 OFFCURVE",
"733 43 OFFCURVE",
"733 129 CURVE SMOOTH",
"733 1236 LINE",
"1072 1236 LINE SMOOTH",
"1140 1236 OFFCURVE",
"1174 1286 OFFCURVE",
"1174 1337 CURVE SMOOTH",
"1174 1387 OFFCURVE",
"1139 1438 OFFCURVE",
"1072 1438 CURVE SMOOTH"
);
}
);
width = 1199;
},
{
anchors = (
{
name = bot;
position = "{582, 9}";
},
{
name = mid;
position = "{588, 739}";
},
{
name = top;
position = "{596, 1438}";
}
);
layerId = "F10CBA7B-FAF3-4DDE-A14D-E99DB7E222CB";
name = Light;
paths = (
{
closed = 1;
nodes = (
"582 0 CURVE SMOOTH",
"626 0 OFFCURVE",
"671 29 OFFCURVE",
"671 85 CURVE SMOOTH",
"671 1280 LINE",
"1056 1280 LINE SMOOTH",
"1105 1280 OFFCURVE",
"1131 1317 OFFCURVE",
"1131 1353 CURVE SMOOTH",
"1131 1390 OFFCURVE",
"1107 1426 OFFCURVE",
"1056 1426 CURVE SMOOTH",
"101 1426 LINE SMOOTH",
"52 1426 OFFCURVE",
"27 1390 OFFCURVE",
"27 1353 CURVE SMOOTH",
"27 1317 OFFCURVE",
"52 1280 OFFCURVE",
"101 1280 CURVE SMOOTH",
"493 1280 LINE",
"493 85 LINE SMOOTH",
"493 29 OFFCURVE",
"537 0 OFFCURVE"
);
}
);
width = 1158;
},
{
anchors = (
{
name = bot;
position = "{616, 0}";
},
{
name = mid;
position = "{625, 739}";
}
);
layerId = "FB5FCFFA-D9F2-48E1-8F42-8D172ED4E960";
name = Bold;
paths = (
{
closed = 1;
nodes = (
"620 0 CURVE SMOOTH",
"723 0 OFFCURVE",
"806 86 OFFCURVE",
"806 195 CURVE SMOOTH",
"806 1188 LINE",
"1074 1188 LINE SMOOTH",
"1151 1188 OFFCURVE",
"1217 1248 OFFCURVE",
"1217 1320 CURVE SMOOTH",
"1217 1393 OFFCURVE",
"1151 1453 OFFCURVE",
"1074 1453 CURVE SMOOTH",
"161 1453 LINE SMOOTH",
"84 1453 OFFCURVE",
"18 1393 OFFCURVE",
"18 1320 CURVE SMOOTH",
"18 1248 OFFCURVE",
"84 1188 OFFCURVE",
"161 1188 CURVE SMOOTH",
"435 1188 LINE",
"435 195 LINE SMOOTH",
"435 86 OFFCURVE",
"517 0 OFFCURVE"
);
}
);
width = 1238;
}
);
leftKerningGroup = T_Right;
rightKerningGroup = T_Left;
unicode = 0054;
userData = {
anchors = (
);
b = {
};
com.typemytype.robofont.layerData = {
};
components = (
);
contours = (
);
lib = {
};
name = T;
unicodes = (
);
width = 1199;
};
},
{
glyphname = U;
lastChange = "2013-12-11 00:36:44 -0800";
layers = (
{
anchors = (
{
name = ogonek;
position = "{899, 9}";
},
{
name = top;
position = "{778, 1438}";
}
);
layerId = "EBB1D39D-5A31-45B3-B44F-04CD128BFFB4";
name = Regular;
paths = (
{
closed = 1;
nodes = (
"1146 1437 OFFCURVE",
"1080 1394 OFFCURVE",
"1080 1308 CURVE SMOOTH",
"1080 499 LINE SMOOTH",
"1080 273 OFFCURVE",
"918 171 OFFCURVE",
"756 171 CURVE SMOOTH",
"596 171 OFFCURVE",
"434 273 OFFCURVE",
"434 499 CURVE SMOOTH",
"434 1308 LINE SMOOTH",
"434 1394 OFFCURVE",
"368 1437 OFFCURVE",
"301 1437 CURVE SMOOTH",
"233 1437 OFFCURVE",
"168 1394 OFFCURVE",
"168 1308 CURVE SMOOTH",
"168 491 LINE SMOOTH",
"168 139 OFFCURVE",
"433 -31 OFFCURVE",
"756 -31 CURVE SMOOTH",
"1079 -31 OFFCURVE",
"1346 139 OFFCURVE",
"1346 491 CURVE SMOOTH",
"1346 1308 LINE SMOOTH",
"1346 1394 OFFCURVE",
"1281 1437 OFFCURVE",
"1214 1437 CURVE SMOOTH"
);
}
);
width = 1513;
},
{
anchors = (
{
name = ogonek;
position = "{858, 9}";
},
{
name = top;
position = "{756, 1438}";
}
);
layerId = "F10CBA7B-FAF3-4DDE-A14D-E99DB7E222CB";
name = Light;
paths = (
{
closed = 1;
nodes = (
"745 -22 CURVE SMOOTH",
"1033 -22 OFFCURVE",
"1302 145 OFFCURVE",
"1302 496 CURVE SMOOTH",
"1302 1341 LINE SMOOTH",
"1302 1398 OFFCURVE",
"1258 1426 OFFCURVE",
"1214 1426 CURVE SMOOTH",
"1168 1426 OFFCURVE",
"1124 1397 OFFCURVE",
"1124 1341 CURVE SMOOTH",
"1124 500 LINE SMOOTH",
"1124 242 OFFCURVE",
"934 124 OFFCURVE",
"745 124 CURVE SMOOTH",
"556 124 OFFCURVE",
"367 242 OFFCURVE",
"367 500 CURVE SMOOTH",
"367 1341 LINE SMOOTH",
"367 1398 OFFCURVE",
"323 1426 OFFCURVE",
"279 1426 CURVE SMOOTH",
"233 1426 OFFCURVE",
"189 1397 OFFCURVE",
"189 1341 CURVE SMOOTH",
"189 496 LINE SMOOTH",
"189 145 OFFCURVE",
"457 -22 OFFCURVE"
);
}
);
width = 1490;
},
{
anchors = (
{
name = ogonek;
position = "{948, 9}";
},
{
name = top;
position = "{776, 1438}";
}
);
layerId = "FB5FCFFA-D9F2-48E1-8F42-8D172ED4E960";
name = Bold;
paths = (
{
closed = 1;
nodes = (
"769 -35 CURVE SMOOTH",
"1134 -35 OFFCURVE",
"1396 141 OFFCURVE",
"1396 492 CURVE SMOOTH",
"1396 1258 LINE SMOOTH",
"1396 1367 OFFCURVE",
"1313 1453 OFFCURVE",
"1210 1453 CURVE SMOOTH",
"1107 1453 OFFCURVE",
"1025 1367 OFFCURVE",
"1025 1258 CURVE SMOOTH",
"1025 498 LINE SMOOTH",
"1025 306 OFFCURVE",
"895 224 OFFCURVE",
"769 224 CURVE SMOOTH",
"644 224 OFFCURVE",
"516 306 OFFCURVE",
"516 498 CURVE SMOOTH",
"515 1258 LINE SMOOTH",
"515 1367 OFFCURVE",
"432 1453 OFFCURVE",
"329 1453 CURVE SMOOTH",
"226 1453 OFFCURVE",
"144 1367 OFFCURVE",
"144 1258 CURVE SMOOTH",
"144 492 LINE SMOOTH",
"144 136 OFFCURVE",
"409 -35 OFFCURVE"
);
}
);
width = 1539;
}
);
leftKerningGroup = U_Right;
rightKerningGroup = U_Left;
unicode = 0055;
userData = {
anchors = (
);
b = {
};
com.typemytype.robofont.layerData = {
};
components = (
);
contours = (
);
lib = {
};
name = U;
unicodes = (
);
width = 1513;
};
},
{
glyphname = V;
lastChange = "2013-12-10 22:49:33 -0800";
layers = (
{
layerId = "EBB1D39D-5A31-45B3-B44F-04CD128BFFB4";
name = Regular;
paths = (
{
closed = 1;
nodes = (
"307 1424 OFFCURVE",
"256 1450 OFFCURVE",
"204 1450 CURVE SMOOTH",
"137 1450 OFFCURVE",
"70 1407 OFFCURVE",
"70 1336 CURVE SMOOTH",
"70 1331 OFFCURVE",
"70 1326 OFFCURVE",
"71 1320 CURVE",
"72 1312 OFFCURVE",
"74 1303 OFFCURVE",
"77 1294 CURVE SMOOTH",
"459 181 LINE SMOOTH",
"511 31 OFFCURVE",
"574 -12 OFFCURVE",
"683 -12 CURVE SMOOTH",
"795 -12 OFFCURVE",
"860 44 OFFCURVE",
"910 181 CURVE SMOOTH",
"1317 1291 LINE SMOOTH",
"1323 1306 OFFCURVE",
"1325 1321 OFFCURVE",
"1325 1334 CURVE SMOOTH",
"1325 1403 OFFCURVE",
"1260 1450 OFFCURVE",
"1194 1450 CURVE SMOOTH",
"1189 1450 OFFCURVE",
"1184 1450 OFFCURVE",
"1179 1449 CURVE",
"1133 1444 OFFCURVE",
"1090 1416 OFFCURVE",
"1069 1357 CURVE SMOOTH",
"691 264 LINE",
"687 264 LINE",
"327 1363 LINE SMOOTH"
);
}
);
width = 1365;
},
{
layerId = "F10CBA7B-FAF3-4DDE-A14D-E99DB7E222CB";
name = Light;
paths = (
{
closed = 1;
nodes = (
"644 0 CURVE SMOOTH",
"712 0 OFFCURVE",
"764 27 OFFCURVE",
"791 107 CURVE",
"1239 1324 LINE SMOOTH",
"1243 1335 OFFCURVE",
"1244 1342 OFFCURVE",
"1244 1351 CURVE SMOOTH",
"1244 1395 OFFCURVE",
"1204 1426 OFFCURVE",
"1161 1426 CURVE SMOOTH",
"1126 1426 OFFCURVE",
"1095 1405 OFFCURVE",
"1080 1366 CURVE",
"653 178 LINE",
"650 178 LINE",
"214 1370 LINE SMOOTH",
"201 1407 OFFCURVE",
"170 1427 OFFCURVE",
"135 1427 CURVE SMOOTH",
"90 1427 OFFCURVE",
"43 1392 OFFCURVE",
"43 1344 CURVE SMOOTH",
"43 1336 OFFCURVE",
"44 1326 OFFCURVE",
"48 1318 CURVE",
"501 107 LINE",
"530 24 OFFCURVE",
"581 0 OFFCURVE"
);
}
);
width = 1289;
},
{
layerId = "FB5FCFFA-D9F2-48E1-8F42-8D172ED4E960";
name = Bold;
paths = (
{
closed = 1;
nodes = (
"715 0 CURVE SMOOTH",
"936 0 OFFCURVE",
"970 137 OFFCURVE",
"1064 403 CURVE SMOOTH",
"1344 1196 LINE SMOOTH",
"1356 1230 OFFCURVE",
"1360 1262 OFFCURVE",
"1360 1292 CURVE SMOOTH",
"1360 1396 OFFCURVE",
"1290 1452 OFFCURVE",
"1213 1452 CURVE SMOOTH",
"1138 1452 OFFCURVE",
"1059 1400 OFFCURVE",
"1023 1289 CURVE SMOOTH",
"722 371 LINE",
"717 371 LINE",
"413 1286 LINE SMOOTH",
"374 1403 OFFCURVE",
"302 1452 OFFCURVE",
"229 1452 CURVE SMOOTH",
"145 1452 OFFCURVE",
"66 1385 OFFCURVE",
"66 1282 CURVE SMOOTH",
"66 1259 OFFCURVE",
"68 1236 OFFCURVE",
"78 1209 CURVE SMOOTH",
"374 380 LINE SMOOTH",
"474 100 OFFCURVE",
"513 0 OFFCURVE"
);
}
);
width = 1451;
}
);
leftKerningGroup = V_Right;
rightKerningGroup = V_Left;
unicode = 0056;
userData = {
anchors = (
);
b = {
};
com.typemytype.robofont.layerData = {
};
components = (
);
contours = (
);
lib = {
};
name = V;
unicodes = (
);
width = 1365;
};
},
{
glyphname = W;
lastChange = "2013-12-11 00:03:16 -0800";
layers = (
{
anchors = (
{
name = top;
position = "{1033, 1438}";
}
);
layerId = "EBB1D39D-5A31-45B3-B44F-04CD128BFFB4";
name = Regular;
paths = (
{
closed = 1;
nodes = (
"955 1439 OFFCURVE",
"892 1409 OFFCURVE",
"864 1315 CURVE SMOOTH",
"554 285 LINE",
"284 1349 LINE SMOOTH",
"266 1420 OFFCURVE",
"215 1451 OFFCURVE",
"163 1451 CURVE SMOOTH",
"98 1451 OFFCURVE",
"33 1403 OFFCURVE",
"33 1326 CURVE SMOOTH",
"33 1321 OFFCURVE",
"33 1316 OFFCURVE",
"34 1310 CURVE",
"34 1303 OFFCURVE",
"36 1295 OFFCURVE",
"38 1287 CURVE SMOOTH",
"342 145 LINE SMOOTH",
"369 42 OFFCURVE",
"452 0 OFFCURVE",
"534 0 CURVE SMOOTH",
"623 0 OFFCURVE",
"704 47 OFFCURVE",
"732 140 CURVE SMOOTH",
"1037 1138 LINE",
"1330 162 LINE SMOOTH",
"1366 43 OFFCURVE",
"1431 -4 OFFCURVE",
"1516 -4 CURVE SMOOTH",
"1601 -4 OFFCURVE",
"1686 28 OFFCURVE",
"1721 158 CURVE SMOOTH",
"2032 1295 LINE SMOOTH",
"2035 1306 OFFCURVE",
"2036 1316 OFFCURVE",
"2036 1326 CURVE SMOOTH",
"2036 1397 OFFCURVE",
"1971 1444 OFFCURVE",
"1907 1444 CURVE SMOOTH",
"1896 1444 LINE",
"1850 1439 OFFCURVE",
"1807 1410 OFFCURVE",
"1791 1347 CURVE SMOOTH",
"1523 283 LINE",
"1202 1315 LINE SMOOTH",
"1173 1409 OFFCURVE",
"1108 1439 OFFCURVE",
"1032 1439 CURVE SMOOTH"
);
}
);
width = 2070;
},
{
anchors = (
{
name = top;
position = "{1057, 1438}";
}
);
layerId = "F10CBA7B-FAF3-4DDE-A14D-E99DB7E222CB";
name = Light;
paths = (
{
closed = 1;
nodes = (
"1578 0 CURVE SMOOTH",
"1642 0 OFFCURVE",
"1700 37 OFFCURVE",
"1722 113 CURVE",
"2050 1327 LINE",
"2053 1335 OFFCURVE",
"2054 1343 OFFCURVE",
"2054 1350 CURVE SMOOTH",
"2054 1395 OFFCURVE",
"2010 1426 OFFCURVE",
"1967 1426 CURVE SMOOTH",
"1934 1426 OFFCURVE",
"1904 1409 OFFCURVE",
"1893 1366 CURVE SMOOTH",
"1584 154 LINE",
"1188 1322 LINE",
"1167 1391 OFFCURVE",
"1114 1426 OFFCURVE",
"1059 1426 CURVE SMOOTH",
"1004 1426 OFFCURVE",
"952 1391 OFFCURVE",
"933 1322 CURVE",
"552 153 LINE",
"240 1371 LINE",
"229 1410 OFFCURVE",
"202 1426 OFFCURVE",
"170 1426 CURVE SMOOTH",
"125 1426 OFFCURVE",
"72 1391 OFFCURVE",
"72 1341 CURVE SMOOTH",
"72 1333 OFFCURVE",
"73 1325 OFFCURVE",
"76 1318 CURVE",
"399 112 LINE SMOOTH",
"420 35 OFFCURVE",
"477 0 OFFCURVE",
"538 0 CURVE SMOOTH",
"603 0 OFFCURVE",
"670 40 OFFCURVE",
"691 112 CURVE",
"1057 1254 LINE",
"1432 113 LINE",
"1455 37 OFFCURVE",
"1515 0 OFFCURVE"
);
}
);
width = 2126;
},
{
anchors = (
{
name = top;
position = "{1105, 1438}";
}
);
layerId = "FB5FCFFA-D9F2-48E1-8F42-8D172ED4E960";
name = Bold;
paths = (
{
closed = 1;
nodes = (
"1593 -12 CURVE SMOOTH",
"1759 -12 OFFCURVE",
"1827 98 OFFCURVE",
"1868 270 CURVE SMOOTH",
"2097 1241 LINE SMOOTH",
"2122 1348 OFFCURVE",
"2086 1467 OFFCURVE",
"1960 1467 CURVE SMOOTH",
"1884 1467 OFFCURVE",
"1805 1413 OFFCURVE",
"1783 1304 CURVE SMOOTH",
"1588 357 LINE",
"1359 1176 LINE SMOOTH",
"1303 1377 OFFCURVE",
"1251 1452 OFFCURVE",
"1107 1452 CURVE SMOOTH",
"940 1452 OFFCURVE",
"883 1342 OFFCURVE",
"836 1176 CURVE SMOOTH",
"602 356 LINE",
"403 1292 LINE SMOOTH",
"374 1426 OFFCURVE",
"304 1466 OFFCURVE",
"235 1466 CURVE SMOOTH",
"111 1466 OFFCURVE",
"56 1346 OFFCURVE",
"81 1239 CURVE SMOOTH",
"313 235 LINE SMOOTH",
"354 56 OFFCURVE",
"432 -12 OFFCURVE",
"571 -12 CURVE SMOOTH",
"751 -12 OFFCURVE",
"808 79 OFFCURVE",
"861 257 CURVE SMOOTH",
"1096 1052 LINE",
"1301 295 LINE SMOOTH",
"1362 71 OFFCURVE",
"1428 -12 OFFCURVE"
);
}
);
width = 2179;
}
);
leftKerningGroup = W_Right;
rightKerningGroup = W_Left;
unicode = 0057;
userData = {
anchors = (
);
b = {
};
com.typemytype.robofont.layerData = {
};
components = (
);
contours = (
);
lib = {
};
name = W;
unicodes = (
);
width = 2070;
};
},
{
glyphname = X;
lastChange = "2013-12-10 22:43:09 -0800";
layers = (
{
background = {
paths = (
{
closed = 1;
nodes = (
"23 1373 OFFCURVE",
"113 1254 CURVE SMOOTH",
"1028 38 LINE SMOOTH",
"1122 -87 OFFCURVE",
"1338 42 OFFCURVE",
"1234 181 CURVE SMOOTH",
"324 1391 LINE SMOOTH",
"208 1546 OFFCURVE"
);
}
);
};
layerId = "EBB1D39D-5A31-45B3-B44F-04CD128BFFB4";
name = Regular;
paths = (
{
closed = 1;
nodes = (
"821.506 729.48 LINE",
"1251 1281 LINE SMOOTH",
"1343 1399 OFFCURVE",
"1176 1532 OFFCURVE",
"1062 1388 CURVE SMOOTH",
"684.711 911.374 LINE",
"324 1391 LINE SMOOTH",
"208 1546 OFFCURVE",
"23 1373 OFFCURVE",
"113 1254 CURVE SMOOTH",
"517.662 716.22 LINE",
"89 171 LINE SMOOTH",
"-16 37 OFFCURVE",
"177 -84 OFFCURVE",
"278 48 CURVE SMOOTH",
"652.662 536.81 LINE",
"1028 38 LINE SMOOTH",
"1122 -87 OFFCURVE",
"1338 42 OFFCURVE",
"1234 181 CURVE SMOOTH"
);
}
);
width = 1322;
},
{
background = {
paths = (
{
closed = 1;
nodes = (
"1033 40 LINE",
"1052 13 OFFCURVE",
"1076 0 OFFCURVE",
"1104 0 CURVE SMOOTH",
"1151 0 OFFCURVE",
"1200 40 OFFCURVE",
"1200 85 CURVE SMOOTH",
"1200 98 OFFCURVE",
"1195 113 OFFCURVE",
"1186 126 CURVE",
"272 1385 LINE",
"252 1414 OFFCURVE",
"225 1426 OFFCURVE",
"197 1426 CURVE SMOOTH",
"149 1426 OFFCURVE",
"100 1388 OFFCURVE",
"100 1343 CURVE SMOOTH",
"100 1328 OFFCURVE",
"105 1315 OFFCURVE",
"114 1303 CURVE"
);
}
);
};
layerId = "F10CBA7B-FAF3-4DDE-A14D-E99DB7E222CB";
name = Light;
paths = (
{
closed = 1;
nodes = (
"68 35 OFFCURVE",
"108 0 OFFCURVE",
"151 0 CURVE SMOOTH",
"176 0 OFFCURVE",
"201 12 OFFCURVE",
"222 41 CURVE SMOOTH",
"641 616 LINE",
"746 734 LINE",
"1175 1310 LINE SMOOTH",
"1186 1325 OFFCURVE",
"1190 1338 OFFCURVE",
"1190 1353 CURVE SMOOTH",
"1190 1393 OFFCURVE",
"1153 1426 OFFCURVE",
"1110 1426 CURVE SMOOTH",
"1083 1426 OFFCURVE",
"1058 1414 OFFCURVE",
"1037 1385 CURVE SMOOTH",
"648 844 LINE",
"542 732 LINE",
"84 121 LINE SMOOTH",
"73 106 OFFCURVE",
"68 91 OFFCURVE",
"68 76 CURVE SMOOTH"
);
},
{
closed = 1;
nodes = (
"1033 40 LINE",
"1052 13 OFFCURVE",
"1076 0 OFFCURVE",
"1104 0 CURVE SMOOTH",
"1151 0 OFFCURVE",
"1200 40 OFFCURVE",
"1200 85 CURVE SMOOTH",
"1200 98 OFFCURVE",
"1195 113 OFFCURVE",
"1186 126 CURVE",
"272 1385 LINE",
"252 1414 OFFCURVE",
"225 1426 OFFCURVE",
"197 1426 CURVE SMOOTH",
"149 1426 OFFCURVE",
"100 1388 OFFCURVE",
"100 1343 CURVE SMOOTH",
"100 1328 OFFCURVE",
"105 1315 OFFCURVE",
"114 1303 CURVE"
);
}
);
width = 1274;
},
{
background = {
paths = (
{
closed = 1;
nodes = (
"981 80 LINE",
"1028 9 OFFCURVE",
"1082 -18 OFFCURVE",
"1135 -18 CURVE SMOOTH",
"1222 -18 OFFCURVE",
"1299 62 OFFCURVE",
"1299 150 CURVE SMOOTH",
"1299 181 OFFCURVE",
"1290 214 OFFCURVE",
"1267 246 CURVE",
"421 1370 LINE",
"378 1434 OFFCURVE",
"324 1462 OFFCURVE",
"272 1462 CURVE SMOOTH",
"186 1462 OFFCURVE",
"108 1392 OFFCURVE",
"108 1299 CURVE SMOOTH",
"108 1263 OFFCURVE",
"120 1224 OFFCURVE",
"149 1185 CURVE"
);
}
);
};
layerId = "FB5FCFFA-D9F2-48E1-8F42-8D172ED4E960";
name = Bold;
paths = (
{
closed = 1;
nodes = (
"77 59 OFFCURVE",
"142 0 OFFCURVE",
"218 0 CURVE SMOOTH",
"270 0 OFFCURVE",
"323 29 OFFCURVE",
"369 89 CURVE SMOOTH",
"725 553 LINE",
"884 725 LINE",
"1262 1211 LINE SMOOTH",
"1286 1241 OFFCURVE",
"1296 1276 OFFCURVE",
"1297 1309 CURVE",
"1297 1386 OFFCURVE",
"1231 1452 OFFCURVE",
"1150 1452 CURVE SMOOTH",
"1097 1452 OFFCURVE",
"1038 1421 OFFCURVE",
"987 1350 CURVE SMOOTH",
"674 920 LINE",
"514 759 LINE",
"131 287 LINE SMOOTH",
"91 238 OFFCURVE",
"77 187 OFFCURVE",
"77 144 CURVE SMOOTH"
);
},
{
closed = 1;
nodes = (
"981 80 LINE",
"1028 9 OFFCURVE",
"1082 -18 OFFCURVE",
"1135 -18 CURVE SMOOTH",
"1222 -18 OFFCURVE",
"1299 62 OFFCURVE",
"1299 150 CURVE SMOOTH",
"1299 181 OFFCURVE",
"1290 214 OFFCURVE",
"1267 246 CURVE",
"421 1370 LINE",
"378 1434 OFFCURVE",
"324 1462 OFFCURVE",
"272 1462 CURVE SMOOTH",
"186 1462 OFFCURVE",
"108 1392 OFFCURVE",
"108 1299 CURVE SMOOTH",
"108 1263 OFFCURVE",
"120 1224 OFFCURVE",
"149 1185 CURVE"
);
}
);
width = 1374;
}
);
rightKerningGroup = X_Left;
unicode = 0058;
userData = {
anchors = (
);
b = {
};
com.typemytype.robofont.layerData = {
};
components = (
);
contours = (
);
lib = {
};
name = X;
unicodes = (
);
width = 1322;
};
},
{
glyphname = Y;
lastChange = "2013-12-11 00:03:02 -0800";
layers = (
{
anchors = (
{
name = top;
position = "{676, 1438}";
}
);
layerId = "EBB1D39D-5A31-45B3-B44F-04CD128BFFB4";
name = Regular;
paths = (
{
closed = 1;
nodes = (
"1088 1436 OFFCURVE",
"1048 1418 OFFCURVE",
"1027 1371 CURVE",
"681 795 LINE",
"677 795 LINE",
"330 1366 LINE",
"307 1415 OFFCURVE",
"264 1436 OFFCURVE",
"219 1436 CURVE SMOOTH",
"150 1436 OFFCURVE",
"79 1388 OFFCURVE",
"79 1323 CURVE",
"80 1307 OFFCURVE",
"82 1289 OFFCURVE",
"94 1271 CURVE SMOOTH",
"530 581 LINE",
"530 129 LINE SMOOTH",
"530 43 OFFCURVE",
"595 -1 OFFCURVE",
"662 -1 CURVE SMOOTH",
"730 -1 OFFCURVE",
"796 43 OFFCURVE",
"796 129 CURVE SMOOTH",
"796 586 LINE",
"1239 1288 LINE SMOOTH",
"1250 1305 OFFCURVE",
"1253 1323 OFFCURVE",
"1253 1338 CURVE SMOOTH",
"1253 1397 OFFCURVE",
"1192 1436 OFFCURVE",
"1131 1436 CURVE SMOOTH"
);
}
);
width = 1321;
},
{
anchors = (
{
name = top;
position = "{666, 1438}";
}
);
layerId = "F10CBA7B-FAF3-4DDE-A14D-E99DB7E222CB";
name = Light;
paths = (
{
closed = 1;
nodes = (
"640 0 CURVE SMOOTH",
"685 0 OFFCURVE",
"730 29 OFFCURVE",
"730 85 CURVE SMOOTH",
"730 607 LINE",
"1200 1320 LINE SMOOTH",
"1208 1333 OFFCURVE",
"1211 1346 OFFCURVE",
"1212 1358 CURVE",
"1212 1398 OFFCURVE",
"1171 1426 OFFCURVE",
"1130 1426 CURVE SMOOTH",
"1102 1426 OFFCURVE",
"1075 1414 OFFCURVE",
"1058 1383 CURVE",
"655 758 LINE",
"653 758 LINE",
"249 1382 LINE",
"232 1413 OFFCURVE",
"203 1426 OFFCURVE",
"174 1426 CURVE SMOOTH",
"126 1426 OFFCURVE",
"75 1389 OFFCURVE",
"75 1344 CURVE",
"76 1332 OFFCURVE",
"79 1319 OFFCURVE",
"87 1307 CURVE SMOOTH",
"551 602 LINE",
"551 85 LINE SMOOTH",
"551 29 OFFCURVE",
"595 0 OFFCURVE"
);
}
);
width = 1278;
},
{
anchors = (
{
name = top;
position = "{716, 1438}";
}
);
layerId = "FB5FCFFA-D9F2-48E1-8F42-8D172ED4E960";
name = Bold;
paths = (
{
closed = 1;
nodes = (
"695 0 CURVE SMOOTH",
"798 0 OFFCURVE",
"880 86 OFFCURVE",
"883 195 CURVE",
"883 562 LINE",
"1266 1199 LINE SMOOTH",
"1291 1240 OFFCURVE",
"1301 1278 OFFCURVE",
"1301 1313 CURVE SMOOTH",
"1301 1397 OFFCURVE",
"1238 1452 OFFCURVE",
"1162 1452 CURVE SMOOTH",
"1098 1452 OFFCURVE",
"1037 1415 OFFCURVE",
"989 1328 CURVE SMOOTH",
"718 840 LINE",
"714 840 LINE",
"448 1324 LINE",
"404 1416 OFFCURVE",
"335 1453 OFFCURVE",
"271 1453 CURVE SMOOTH",
"186 1453 OFFCURVE",
"108 1386 OFFCURVE",
"108 1287 CURVE SMOOTH",
"108 1249 OFFCURVE",
"118 1210 OFFCURVE",
"143 1169 CURVE SMOOTH",
"510 556 LINE",
"510 195 LINE SMOOTH",
"510 86 OFFCURVE",
"592 0 OFFCURVE"
);
}
);
width = 1391;
}
);
leftKerningGroup = Y_Right;
rightKerningGroup = Y_Left;
unicode = 0059;
userData = {
anchors = (
);
b = {
};
com.typemytype.robofont.layerData = {
};
components = (
);
contours = (
);
lib = {
};
name = Y;
unicodes = (
);
width = 1321;
};
},
{
glyphname = Z;
lastChange = "2013-12-11 00:03:23 -0800";
layers = (
{
anchors = (
{
name = top;
position = "{646, 1438}";
}
);
layerId = "EBB1D39D-5A31-45B3-B44F-04CD128BFFB4";
name = Regular;
paths = (
{
closed = 1;
nodes = (
"192 1438 LINE SMOOTH",
"125 1438 OFFCURVE",
"93 1389 OFFCURVE",
"93 1339 CURVE SMOOTH",
"93 1290 OFFCURVE",
"125 1240 OFFCURVE",
"192 1240 CURVE SMOOTH",
"824 1240 LINE",
"106 187 LINE SMOOTH",
"89 162 OFFCURVE",
"80 136 OFFCURVE",
"80 109 CURVE SMOOTH",
"80 52 OFFCURVE",
"120 0 OFFCURVE",
"208 0 CURVE SMOOTH",
"1045 0 LINE SMOOTH",
"1112 0 OFFCURVE",
"1144 50 OFFCURVE",
"1144 99 CURVE SMOOTH",
"1144 149 OFFCURVE",
"1112 198 OFFCURVE",
"1045 198 CURVE SMOOTH",
"401 198 LINE",
"1123 1252 LINE SMOOTH",
"1142 1279 OFFCURVE",
"1150 1305 OFFCURVE",
"1150 1332 CURVE SMOOTH",
"1150 1391 OFFCURVE",
"1106 1438 OFFCURVE",
"1035 1438 CURVE SMOOTH"
);
}
);
width = 1196;
},
{
anchors = (
{
name = top;
position = "{636, 1438}";
}
);
layerId = "F10CBA7B-FAF3-4DDE-A14D-E99DB7E222CB";
name = Light;
paths = (
{
closed = 1;
nodes = (
"208 0 CURVE SMOOTH",
"1029 0 LINE SMOOTH",
"1078 0 OFFCURVE",
"1103 36 OFFCURVE",
"1103 73 CURVE SMOOTH",
"1103 109 OFFCURVE",
"1078 145 OFFCURVE",
"1029 145 CURVE SMOOTH",
"299 145 LINE",
"1088 1273 LINE SMOOTH",
"1105 1297 OFFCURVE",
"1112 1322 OFFCURVE",
"1112 1343 CURVE SMOOTH",
"1112 1391 OFFCURVE",
"1077 1426 OFFCURVE",
"1021 1426 CURVE SMOOTH",
"181 1426 LINE SMOOTH",
"132 1426 OFFCURVE",
"108 1390 OFFCURVE",
"108 1354 CURVE SMOOTH",
"108 1317 OFFCURVE",
"133 1281 OFFCURVE",
"181 1281 CURVE SMOOTH",
"910 1281 LINE",
"120 153 LINE SMOOTH",
"107 134 OFFCURVE",
"100 113 OFFCURVE",
"100 90 CURVE SMOOTH",
"100 44 OFFCURVE",
"132 0 OFFCURVE"
);
}
);
width = 1165;
},
{
anchors = (
{
name = top;
position = "{646, 1438}";
}
);
layerId = "FB5FCFFA-D9F2-48E1-8F42-8D172ED4E960";
name = Bold;
paths = (
{
closed = 1;
nodes = (
"223 0 CURVE SMOOTH",
"1053 0 LINE SMOOTH",
"1125 0 OFFCURVE",
"1183 57 OFFCURVE",
"1183 129 CURVE SMOOTH",
"1183 201 OFFCURVE",
"1125 259 OFFCURVE",
"1053 259 CURVE SMOOTH",
"514 259 LINE",
"1119 1180 LINE SMOOTH",
"1150 1227 OFFCURVE",
"1181 1284 OFFCURVE",
"1181 1329 CURVE SMOOTH",
"1181 1421 OFFCURVE",
"1104 1453 OFFCURVE",
"1012 1453 CURVE SMOOTH",
"219 1453 LINE SMOOTH",
"147 1453 OFFCURVE",
"90 1395 OFFCURVE",
"90 1323 CURVE SMOOTH",
"90 1251 OFFCURVE",
"147 1194 OFFCURVE",
"219 1194 CURVE SMOOTH",
"739 1194 LINE",
"138 276 LINE",
"103 227 OFFCURVE",
"75 166 OFFCURVE",
"75 122 CURVE SMOOTH",
"75 54 OFFCURVE",
"126 0 OFFCURVE"
);
}
);
width = 1233;
}
);
unicode = 005A;
userData = {
anchors = (
);
b = {
};
com.typemytype.robofont.layerData = {
};
components = (
);
contours = (
);
lib = {
};
name = Z;
unicodes = (
);
width = 1222;
};
},
{
glyphname = bracketleft;
lastChange = "2013-12-10 18:24:04 -0800";
layers = (
{
layerId = "EBB1D39D-5A31-45B3-B44F-04CD128BFFB4";
name = Regular;
paths = (
{
closed = 1;
nodes = (
"283 1438 LINE SMOOTH",
"219 1438 OFFCURVE",
"171 1387 OFFCURVE",
"171 1327 CURVE SMOOTH",
"171 -111 LINE SMOOTH",
"171 -172 OFFCURVE",
"219 -221 OFFCURVE",
"283 -221 CURVE SMOOTH",
"507 -221 LINE",
"564 -218 OFFCURVE",
"592 -177 OFFCURVE",
"592 -134 CURVE SMOOTH",
"592 -91 OFFCURVE",
"563 -50 OFFCURVE",
"507 -50 CURVE SMOOTH",
"394 -50 LINE",
"394 1268 LINE",
"507 1268 LINE SMOOTH",
"563 1268 OFFCURVE",
"592 1311 OFFCURVE",
"592 1353 CURVE SMOOTH",
"592 1397 OFFCURVE",
"563 1438 OFFCURVE",
"507 1438 CURVE SMOOTH"
);
}
);
width = 694;
},
{
layerId = "F10CBA7B-FAF3-4DDE-A14D-E99DB7E222CB";
name = Light;
paths = (
{
closed = 1;
nodes = (
"255 -200 CURVE SMOOTH",
"438 -200 LINE SMOOTH",
"479 -200 OFFCURVE",
"501 -168 OFFCURVE",
"501 -137 CURVE SMOOTH",
"501 -106 OFFCURVE",
"481 -76 OFFCURVE",
"438 -76 CURVE SMOOTH",
"336 -76 LINE",
"336 1303 LINE",
"438 1303 LINE SMOOTH",
"479 1303 OFFCURVE",
"500 1334 OFFCURVE",
"500 1365 CURVE SMOOTH",
"500 1396 OFFCURVE",
"481 1426 OFFCURVE",
"438 1426 CURVE SMOOTH",
"255 1426 LINE SMOOTH",
"208 1426 OFFCURVE",
"173 1390 OFFCURVE",
"173 1346 CURVE SMOOTH",
"173 -120 LINE SMOOTH",
"173 -164 OFFCURVE",
"208 -200 OFFCURVE"
);
}
);
width = 611;
},
{
layerId = "FB5FCFFA-D9F2-48E1-8F42-8D172ED4E960";
name = Bold;
paths = (
{
closed = 1;
nodes = (
"337 -245 CURVE SMOOTH",
"563 -245 LINE",
"651 -242 OFFCURVE",
"696 -199 OFFCURVE",
"696 -131 CURVE SMOOTH",
"696 -59 OFFCURVE",
"646 -20 OFFCURVE",
"562 -20 CURVE SMOOTH",
"460 -20 LINE",
"460 1227 LINE",
"562 1227 LINE SMOOTH",
"646 1227 OFFCURVE",
"696 1267 OFFCURVE",
"696 1339 CURVE SMOOTH",
"696 1400 OFFCURVE",
"653 1451 OFFCURVE",
"585 1451 CURVE SMOOTH",
"337 1451 LINE SMOOTH",
"239 1451 OFFCURVE",
"169 1397 OFFCURVE",
"169 1305 CURVE SMOOTH",
"169 -53 LINE SMOOTH",
"169 -198 OFFCURVE",
"229 -245 OFFCURVE"
);
}
);
width = 789;
}
);
unicode = 005B;
},
{
glyphname = backslash;
lastChange = "2013-12-10 18:24:04 -0800";
layers = (
{
layerId = "EBB1D39D-5A31-45B3-B44F-04CD128BFFB4";
name = Regular;
paths = (
{
closed = 1;
nodes = (
"32 1502 OFFCURVE",
"-11 1473 OFFCURVE",
"-11 1423 CURVE SMOOTH",
"-11 1413 OFFCURVE",
"-9 1402 OFFCURVE",
"-5 1390 CURVE SMOOTH",
"471 -31 LINE SMOOTH",
"485 -72 OFFCURVE",
"517 -89 OFFCURVE",
"550 -89 CURVE SMOOTH",
"593 -89 OFFCURVE",
"636 -59 OFFCURVE",
"636 -10 CURVE SMOOTH",
"636 -1 OFFCURVE",
"634 9 OFFCURVE",
"631 21 CURVE",
"158 1443 LINE",
"143 1484 OFFCURVE",
"110 1502 OFFCURVE",
"75 1502 CURVE SMOOTH"
);
}
);
width = 626;
},
{
layerId = "F10CBA7B-FAF3-4DDE-A14D-E99DB7E222CB";
name = Light;
paths = (
{
closed = 1;
nodes = (
"539 -106 CURVE SMOOTH",
"574 -106 OFFCURVE",
"607 -82 OFFCURVE",
"607 -41 CURVE SMOOTH",
"607 -32 OFFCURVE",
"606 -23 OFFCURVE",
"603 -14 CURVE SMOOTH",
"120 1449 LINE SMOOTH",
"108 1484 OFFCURVE",
"79 1499 OFFCURVE",
"51 1499 CURVE SMOOTH",
"15 1499 OFFCURVE",
"-20 1475 OFFCURVE",
"-20 1434 CURVE SMOOTH",
"-20 1427 OFFCURVE",
"-18 1418 OFFCURVE",
"-15 1407 CURVE SMOOTH",
"472 -56 LINE SMOOTH",
"483 -91 OFFCURVE",
"510 -106 OFFCURVE"
);
}
);
width = 588;
},
{
layerId = "FB5FCFFA-D9F2-48E1-8F42-8D172ED4E960";
name = Bold;
paths = (
{
closed = 1;
nodes = (
"563 -70 CURVE SMOOTH",
"612 -70 OFFCURVE",
"668 -35 OFFCURVE",
"668 25 CURVE SMOOTH",
"668 44 OFFCURVE",
"661 67 OFFCURVE",
"653 90 CURVE SMOOTH",
"220 1379 LINE",
"196 1443 OFFCURVE",
"166 1504 OFFCURVE",
"104 1504 CURVE SMOOTH",
"48 1504 OFFCURVE",
"1 1473 OFFCURVE",
"1 1409 CURVE SMOOTH",
"1 1398 OFFCURVE",
"2 1385 OFFCURVE",
"7 1370 CURVE SMOOTH",
"451 54 LINE SMOOTH",
"473 -11 OFFCURVE",
"503 -70 OFFCURVE"
);
}
);
width = 669;
}
);
unicode = 005C;
},
{
glyphname = bracketright;
lastChange = "2013-12-10 18:24:04 -0800";
layers = (
{
layerId = "EBB1D39D-5A31-45B3-B44F-04CD128BFFB4";
name = Regular;
paths = (
{
closed = 1;
nodes = (
"186 1438 LINE SMOOTH",
"130 1438 OFFCURVE",
"101 1397 OFFCURVE",
"101 1353 CURVE SMOOTH",
"101 1311 OFFCURVE",
"130 1268 OFFCURVE",
"186 1268 CURVE SMOOTH",
"299 1268 LINE",
"299 -50 LINE",
"186 -50 LINE SMOOTH",
"130 -50 OFFCURVE",
"101 -91 OFFCURVE",
"101 -134 CURVE SMOOTH",
"101 -177 OFFCURVE",
"129 -218 OFFCURVE",
"186 -221 CURVE",
"410 -221 LINE SMOOTH",
"474 -221 OFFCURVE",
"522 -172 OFFCURVE",
"522 -111 CURVE SMOOTH",
"522 1327 LINE SMOOTH",
"522 1387 OFFCURVE",
"474 1438 OFFCURVE",
"410 1438 CURVE SMOOTH"
);
}
);
width = 694;
},
{
layerId = "F10CBA7B-FAF3-4DDE-A14D-E99DB7E222CB";
name = Light;
paths = (
{
closed = 1;
nodes = (
"171 -200 CURVE SMOOTH",
"355 -200 LINE SMOOTH",
"400 -200 OFFCURVE",
"437 -164 OFFCURVE",
"437 -120 CURVE SMOOTH",
"437 1346 LINE SMOOTH",
"437 1390 OFFCURVE",
"400 1426 OFFCURVE",
"355 1426 CURVE SMOOTH",
"171 1426 LINE SMOOTH",
"128 1426 OFFCURVE",
"109 1396 OFFCURVE",
"109 1365 CURVE SMOOTH",
"109 1334 OFFCURVE",
"130 1303 OFFCURVE",
"171 1303 CURVE SMOOTH",
"274 1303 LINE",
"274 -76 LINE",
"171 -76 LINE SMOOTH",
"130 -76 OFFCURVE",
"109 -106 OFFCURVE",
"109 -137 CURVE SMOOTH",
"109 -168 OFFCURVE",
"130 -200 OFFCURVE"
);
}
);
width = 611;
},
{
layerId = "FB5FCFFA-D9F2-48E1-8F42-8D172ED4E960";
name = Bold;
paths = (
{
closed = 1;
nodes = (
"203 -245 CURVE",
"451 -245 LINE SMOOTH",
"545 -245 OFFCURVE",
"619 -191 OFFCURVE",
"619 -100 CURVE SMOOTH",
"619 1258 LINE SMOOTH",
"619 1405 OFFCURVE",
"555 1451 OFFCURVE",
"451 1451 CURVE SMOOTH",
"225 1451 LINE SMOOTH",
"136 1451 OFFCURVE",
"92 1407 OFFCURVE",
"92 1339 CURVE SMOOTH",
"92 1266 OFFCURVE",
"141 1227 OFFCURVE",
"226 1227 CURVE SMOOTH",
"327 1227 LINE",
"327 -20 LINE",
"226 -20 LINE SMOOTH",
"135 -20 OFFCURVE",
"91 -63 OFFCURVE",
"91 -131 CURVE SMOOTH",
"91 -188 OFFCURVE",
"128 -238 OFFCURVE"
);
}
);
width = 789;
}
);
unicode = 005D;
},
{
glyphname = asciicircum;
lastChange = "2013-12-10 18:24:04 -0800";
layers = (
{
layerId = "EBB1D39D-5A31-45B3-B44F-04CD128BFFB4";
name = Regular;
paths = (
{
closed = 1;
nodes = (
"617 1421 OFFCURVE",
"577 1398 OFFCURVE",
"555 1355 CURVE SMOOTH",
"198 655 LINE SMOOTH",
"192 643 OFFCURVE",
"190 632 OFFCURVE",
"190 621 CURVE SMOOTH",
"190 577 OFFCURVE",
"231 545 OFFCURVE",
"272 545 CURVE SMOOTH",
"300 545 OFFCURVE",
"326 558 OFFCURVE",
"343 593 CURVE SMOOTH",
"656 1224 LINE",
"967 593 LINE",
"986 560 OFFCURVE",
"1013 547 OFFCURVE",
"1040 547 CURVE SMOOTH",
"1081 547 OFFCURVE",
"1121 578 OFFCURVE",
"1121 621 CURVE SMOOTH",
"1121 632 OFFCURVE",
"1119 643 OFFCURVE",
"1113 655 CURVE SMOOTH",
"758 1355 LINE SMOOTH",
"735 1399 OFFCURVE",
"696 1421 OFFCURVE",
"657 1421 CURVE SMOOTH"
);
}
);
width = 1315;
},
{
layerId = "F10CBA7B-FAF3-4DDE-A14D-E99DB7E222CB";
name = Light;
paths = (
{
closed = 1;
nodes = (
"257 492 CURVE SMOOTH",
"281 492 OFFCURVE",
"306 503 OFFCURVE",
"319 534 CURVE",
"668 1235 LINE",
"1015 534 LINE SMOOTH",
"1029 505 OFFCURVE",
"1052 492 OFFCURVE",
"1077 492 CURVE SMOOTH",
"1113 492 OFFCURVE",
"1148 520 OFFCURVE",
"1148 557 CURVE SMOOTH",
"1148 565 OFFCURVE",
"1146 574 OFFCURVE",
"1142 584 CURVE",
"753 1340 LINE SMOOTH",
"734 1376 OFFCURVE",
"703 1395 OFFCURVE",
"668 1395 CURVE SMOOTH",
"635 1395 OFFCURVE",
"603 1376 OFFCURVE",
"584 1340 CURVE SMOOTH",
"193 584 LINE",
"189 574 OFFCURVE",
"187 565 OFFCURVE",
"187 556 CURVE SMOOTH",
"187 517 OFFCURVE",
"222 492 OFFCURVE"
);
}
);
width = 1340;
},
{
layerId = "FB5FCFFA-D9F2-48E1-8F42-8D172ED4E960";
name = Bold;
paths = (
{
closed = 1;
nodes = (
"288 607 CURVE SMOOTH",
"335 607 OFFCURVE",
"365 647 OFFCURVE",
"392 702 CURVE SMOOTH",
"642 1211 LINE",
"892 702 LINE",
"921 651 OFFCURVE",
"950 610 OFFCURVE",
"997 610 CURVE SMOOTH",
"1048 610 OFFCURVE",
"1089 643 OFFCURVE",
"1089 695 CURVE SMOOTH",
"1089 717 OFFCURVE",
"1073 751 OFFCURVE",
"1060 778 CURVE SMOOTH",
"784 1331 LINE SMOOTH",
"746 1407 OFFCURVE",
"706 1451 OFFCURVE",
"643 1451 CURVE SMOOTH",
"571 1451 OFFCURVE",
"532 1394 OFFCURVE",
"501 1331 CURVE SMOOTH",
"225 778 LINE SMOOTH",
"211 751 OFFCURVE",
"195 718 OFFCURVE",
"195 697 CURVE SMOOTH",
"195 642 OFFCURVE",
"237 607 OFFCURVE"
);
}
);
width = 1287;
}
);
unicode = 005E;
},
{
glyphname = underscore;
lastChange = "2013-12-10 18:24:04 -0800";
layers = (
{
layerId = "EBB1D39D-5A31-45B3-B44F-04CD128BFFB4";
name = Regular;
paths = (
{
closed = 1;
nodes = (
"60 -127 LINE SMOOTH",
"20 -127 OFFCURVE",
"0 -159 OFFCURVE",
"0 -191 CURVE SMOOTH",
"0 -223 OFFCURVE",
"20 -255 OFFCURVE",
"60 -255 CURVE SMOOTH",
"961 -255 LINE SMOOTH",
"1002 -255 OFFCURVE",
"1023 -223 OFFCURVE",
"1023 -191 CURVE SMOOTH",
"1023 -159 OFFCURVE",
"1002 -127 OFFCURVE",
"961 -127 CURVE SMOOTH"
);
}
);
width = 1024;
},
{
layerId = "F10CBA7B-FAF3-4DDE-A14D-E99DB7E222CB";
name = Light;
paths = (
{
closed = 1;
nodes = (
"55 -254 CURVE SMOOTH",
"965 -254 LINE SMOOTH",
"1004 -254 OFFCURVE",
"1023 -224 OFFCURVE",
"1023 -195 CURVE SMOOTH",
"1023 -164 OFFCURVE",
"1004 -135 OFFCURVE",
"965 -135 CURVE SMOOTH",
"55 -135 LINE SMOOTH",
"18 -135 OFFCURVE",
"-1 -164 OFFCURVE",
"-1 -195 CURVE SMOOTH",
"-1 -224 OFFCURVE",
"18 -254 OFFCURVE"
);
}
);
width = 1024;
},
{
layerId = "FB5FCFFA-D9F2-48E1-8F42-8D172ED4E960";
name = Bold;
paths = (
{
closed = 1;
nodes = (
"66 -255 CURVE SMOOTH",
"928 -255 LINE SMOOTH",
"988 -255 OFFCURVE",
"1023 -236 OFFCURVE",
"1023 -187 CURVE SMOOTH",
"1023 -151 OFFCURVE",
"1000 -118 OFFCURVE",
"956 -118 CURVE SMOOTH",
"94 -118 LINE SMOOTH",
"30 -118 OFFCURVE",
"0 -138 OFFCURVE",
"0 -187 CURVE SMOOTH",
"0 -222 OFFCURVE",
"22 -255 OFFCURVE"
);
}
);
width = 1024;
}
);
unicode = 005F;
},
{
glyphname = grave;
lastChange = "2013-12-11 00:14:42 -0800";
layers = (
{
anchors = (
{
name = _top;
position = "{446, 1040}";
}
);
layerId = "EBB1D39D-5A31-45B3-B44F-04CD128BFFB4";
name = Regular;
paths = (
{
closed = 1;
nodes = (
"108 1548 OFFCURVE",
"50 1493 OFFCURVE",
"50 1440 CURVE SMOOTH",
"50 1420 OFFCURVE",
"58 1400 OFFCURVE",
"78 1384 CURVE SMOOTH",
"394 1129 LINE SMOOTH",
"410 1116 OFFCURVE",
"426 1109 OFFCURVE",
"441 1109 CURVE SMOOTH",
"472 1109 OFFCURVE",
"494 1134 OFFCURVE",
"494 1163 CURVE SMOOTH",
"494 1174 OFFCURVE",
"490 1186 OFFCURVE",
"483 1197 CURVE",
"231 1511 LINE",
"212 1538 OFFCURVE",
"188 1548 OFFCURVE",
"164 1548 CURVE SMOOTH"
);
}
);
width = 569;
},
{
anchors = (
{
name = _top;
position = "{446, 1040}";
}
);
layerId = "F10CBA7B-FAF3-4DDE-A14D-E99DB7E222CB";
name = Light;
paths = (
{
closed = 1;
nodes = (
"525 1163 CURVE SMOOTH",
"548 1163 OFFCURVE",
"562 1180 OFFCURVE",
"562 1201 CURVE SMOOTH",
"562 1212 OFFCURVE",
"559 1222 OFFCURVE",
"550 1233 CURVE SMOOTH",
"281 1534 LINE SMOOTH",
"264 1552 OFFCURVE",
"249 1559 OFFCURVE",
"230 1559 CURVE SMOOTH",
"185 1559 OFFCURVE",
"139 1513 OFFCURVE",
"139 1471 CURVE SMOOTH",
"139 1455 OFFCURVE",
"147 1439 OFFCURVE",
"162 1427 CURVE SMOOTH",
"484 1180 LINE SMOOTH",
"498 1169 OFFCURVE",
"512 1163 OFFCURVE"
);
}
);
width = 569;
},
{
anchors = (
{
name = _top;
position = "{446, 1040}";
}
);
layerId = "FB5FCFFA-D9F2-48E1-8F42-8D172ED4E960";
name = Bold;
paths = (
{
closed = 1;
nodes = (
"442 1118 CURVE SMOOTH",
"478 1118 OFFCURVE",
"507 1152 OFFCURVE",
"507 1189 CURVE SMOOTH",
"507 1205 OFFCURVE",
"495 1223 OFFCURVE",
"484 1240 CURVE SMOOTH",
"292 1520 LINE SMOOTH",
"259 1568 OFFCURVE",
"221 1601 OFFCURVE",
"178 1601 CURVE SMOOTH",
"111 1601 OFFCURVE",
"39 1541 OFFCURVE",
"39 1474 CURVE SMOOTH",
"39 1447 OFFCURVE",
"49 1424 OFFCURVE",
"73 1404 CURVE SMOOTH",
"367 1152 LINE",
"387 1132 OFFCURVE",
"421 1118 OFFCURVE"
);
}
);
width = 569;
}
);
unicode = 0060;
},
{
glyphname = a;
lastChange = "2013-12-11 00:26:50 -0800";
layers = (
{
anchors = (
{
name = ogonek;
position = "{827, 28}";
},
{
name = top;
position = "{589, 1001}";
}
);
layerId = "EBB1D39D-5A31-45B3-B44F-04CD128BFFB4";
name = Regular;
paths = (
{
closed = 1;
nodes = (
"731 453 LINE SMOOTH",
"731 278 OFFCURVE",
"613 137 OFFCURVE",
"474 135 CURVE SMOOTH",
"364 137 OFFCURVE",
"304 202 OFFCURVE",
"304 293 CURVE SMOOTH",
"304 463 OFFCURVE",
"488 478 OFFCURVE",
"702 478 CURVE SMOOTH",
"731 478 LINE"
);
},
{
closed = 1;
nodes = (
"370 1013 OFFCURVE",
"246 966 OFFCURVE",
"173 909 CURVE SMOOTH",
"158 897 OFFCURVE",
"152 881 OFFCURVE",
"152 867 CURVE SMOOTH",
"152 831 OFFCURVE",
"185 765 OFFCURVE",
"231 765 CURVE SMOOTH",
"241 765 OFFCURVE",
"257 767 OFFCURVE",
"267 771 CURVE",
"347 808 OFFCURVE",
"419 843 OFFCURVE",
"552 843 CURVE SMOOTH",
"669 843 OFFCURVE",
"732 801 OFFCURVE",
"732 666 CURVE SMOOTH",
"732 613 LINE",
"426 613 OFFCURVE",
"80 627 OFFCURVE",
"80 275 CURVE SMOOTH",
"80 107 OFFCURVE",
"234 -12 OFFCURVE",
"432 -12 CURVE SMOOTH",
"616 -12 OFFCURVE",
"698 95 OFFCURVE",
"738 178 CURVE",
"738 101 LINE SMOOTH",
"738 37 OFFCURVE",
"786 0 OFFCURVE",
"852 0 CURVE SMOOTH",
"906 0 OFFCURVE",
"964 35 OFFCURVE",
"967 103 CURVE",
"967 648 LINE SMOOTH",
"967 912 OFFCURVE",
"795 1013 OFFCURVE",
"562 1013 CURVE SMOOTH"
);
}
);
width = 1101;
},
{
anchors = (
{
name = ogonek;
position = "{817, 9}";
},
{
name = top;
position = "{508, 991}";
}
);
layerId = "F10CBA7B-FAF3-4DDE-A14D-E99DB7E222CB";
name = Light;
paths = (
{
closed = 1;
nodes = (
"423 -20 CURVE SMOOTH",
"583 -20 OFFCURVE",
"682 42 OFFCURVE",
"740 176 CURVE",
"740 68 LINE SMOOTH",
"740 21 OFFCURVE",
"781 0 OFFCURVE",
"818 0 CURVE SMOOTH",
"857 0 OFFCURVE",
"900 24 OFFCURVE",
"900 71 CURVE SMOOTH",
"900 673 LINE SMOOTH",
"900 912 OFFCURVE",
"747 1013 OFFCURVE",
"516 1013 CURVE SMOOTH",
"359 1013 OFFCURVE",
"230 971 OFFCURVE",
"143 904 CURVE SMOOTH",
"130 894 OFFCURVE",
"128 883 OFFCURVE",
"128 868 CURVE SMOOTH",
"128 837 OFFCURVE",
"154 801 OFFCURVE",
"187 801 CURVE SMOOTH",
"199 801 OFFCURVE",
"211 804 OFFCURVE",
"222 811 CURVE SMOOTH",
"301 858 OFFCURVE",
"376 891 OFFCURVE",
"512 891 CURVE SMOOTH",
"648 891 OFFCURVE",
"740 841 OFFCURVE",
"740 688 CURVE SMOOTH",
"740 594 LINE",
"276 594 OFFCURVE",
"70 532 OFFCURVE",
"70 276 CURVE SMOOTH",
"70 86 OFFCURVE",
"219 -20 OFFCURVE"
);
},
{
closed = 1;
nodes = (
"447 90 CURVE",
"327 90 OFFCURVE",
"228 147 OFFCURVE",
"228 280 CURVE SMOOTH",
"228 485 OFFCURVE",
"462 494 OFFCURVE",
"738 494 CURVE",
"738 443 LINE",
"738 229 OFFCURVE",
"591 90 OFFCURVE"
);
}
);
width = 1043;
},
{
anchors = (
{
name = ogonek;
position = "{867, 31}";
},
{
name = top;
position = "{579, 1001}";
}
);
layerId = "FB5FCFFA-D9F2-48E1-8F42-8D172ED4E960";
name = Bold;
paths = (
{
closed = 1;
nodes = (
"378 -12 CURVE SMOOTH",
"517 -12 OFFCURVE",
"654 28 OFFCURVE",
"723 175 CURVE",
"723 157 LINE",
"723 48 OFFCURVE",
"774.339 0 OFFCURVE",
"863 0 CURVE SMOOTH",
"986 0 OFFCURVE",
"1005 96 OFFCURVE",
"1005 200 CURVE SMOOTH",
"1005 600 LINE SMOOTH",
"1005 916 OFFCURVE",
"824 1023 OFFCURVE",
"569 1023 CURVE SMOOTH",
"435.562 1023 OFFCURVE",
"293 1000 OFFCURVE",
"203 956 CURVE SMOOTH",
"154 932 OFFCURVE",
"139 893 OFFCURVE",
"139 852 CURVE SMOOTH",
"139 801 OFFCURVE",
"181 758 OFFCURVE",
"225 758 CURVE SMOOTH",
"237 758 OFFCURVE",
"251 760 OFFCURVE",
"266 764 CURVE SMOOTH",
"341 783 OFFCURVE",
"429 812 OFFCURVE",
"548 812 CURVE SMOOTH",
"648 812 OFFCURVE",
"712 770 OFFCURVE",
"712 658 CURVE SMOOTH",
"712 615 LINE",
"252 615 OFFCURVE",
"52 532 OFFCURVE",
"52 274 CURVE SMOOTH",
"52 102 OFFCURVE",
"190 -12 OFFCURVE"
);
},
{
closed = 1;
nodes = (
"481 165 CURVE SMOOTH",
"386 165 OFFCURVE",
"332 211 OFFCURVE",
"332 296 CURVE SMOOTH",
"332 481 OFFCURVE",
"558 474 OFFCURVE",
"711 474 CURVE",
"711 461 LINE SMOOTH",
"711 305 OFFCURVE",
"583 165 OFFCURVE"
);
}
);
width = 1123;
}
);
leftKerningGroup = a_Right;
unicode = 0061;
userData = {
anchors = (
);
b = {
};
com.typemytype.robofont.layerData = {
};
components = (
);
contours = (
);
lib = {
};
name = a;
unicodes = (
);
width = 1101;
};
},
{
glyphname = b;
lastChange = "2013-12-11 00:06:45 -0800";
layers = (
{
layerId = "EBB1D39D-5A31-45B3-B44F-04CD128BFFB4";
name = Regular;
paths = (
{
closed = 1;
nodes = (
"185 1437 OFFCURVE",
"127 1400 OFFCURVE",
"127 1327 CURVE SMOOTH",
"127 112 LINE SMOOTH",
"127 37 OFFCURVE",
"183 0 OFFCURVE",
"240 0 CURVE SMOOTH",
"295 0 OFFCURVE",
"348 34 OFFCURVE",
"356 101 CURVE",
"356 149 LINE",
"428 44 OFFCURVE",
"538 -12 OFFCURVE",
"703 -12 CURVE SMOOTH",
"985 -12 OFFCURVE",
"1124 259 OFFCURVE",
"1124 506 CURVE SMOOTH",
"1124 772 OFFCURVE",
"985 1013 OFFCURVE",
"707 1013 CURVE SMOOTH",
"564 1013 OFFCURVE",
"445 974 OFFCURVE",
"361 855 CURVE",
"361 1327 LINE SMOOTH",
"361 1401 OFFCURVE",
"303 1437 OFFCURVE",
"244 1437 CURVE SMOOTH"
);
},
{
closed = 1;
nodes = (
"838 857 OFFCURVE",
"890 663 OFFCURVE",
"890 503 CURVE SMOOTH",
"890 309 OFFCURVE",
"804 143 OFFCURVE",
"628 143 CURVE SMOOTH",
"433 143 OFFCURVE",
"361 293 OFFCURVE",
"361 514 CURVE SMOOTH",
"361 712 OFFCURVE",
"450 857 OFFCURVE",
"640 857 CURVE SMOOTH"
);
}
);
width = 1203;
},
{
anchors = (
{
name = top;
position = "{652, 1001}";
}
);
layerId = "F10CBA7B-FAF3-4DDE-A14D-E99DB7E222CB";
name = Light;
paths = (
{
closed = 1;
nodes = (
"643 -22 CURVE SMOOTH",
"934 -22 OFFCURVE",
"1071 243 OFFCURVE",
"1071 500 CURVE SMOOTH",
"1071 768 OFFCURVE",
"944 1013 OFFCURVE",
"651 1013 CURVE SMOOTH",
"507 1013 OFFCURVE",
"367 949 OFFCURVE",
"298 815 CURVE",
"298 1352 LINE SMOOTH",
"298 1401 OFFCURVE",
"259 1425 OFFCURVE",
"219 1425 CURVE SMOOTH",
"179 1425 OFFCURVE",
"138 1400 OFFCURVE",
"138 1352 CURVE SMOOTH",
"138 75 LINE SMOOTH",
"138 24 OFFCURVE",
"175 0 OFFCURVE",
"214 0 CURVE SMOOTH",
"251 0 OFFCURVE",
"289 24 OFFCURVE",
"292 71 CURVE",
"292 188 LINE",
"360 48 OFFCURVE",
"494 -22 OFFCURVE"
);
},
{
closed = 1;
nodes = (
"610 90 CURVE SMOOTH",
"374 90 OFFCURVE",
"298 288 OFFCURVE",
"298 514 CURVE SMOOTH",
"298 713 OFFCURVE",
"387 903 OFFCURVE",
"614 903 CURVE SMOOTH",
"834 903 OFFCURVE",
"911 697 OFFCURVE",
"911 508 CURVE SMOOTH",
"911 314 OFFCURVE",
"833 90 OFFCURVE"
);
}
);
width = 1157;
},
{
layerId = "FB5FCFFA-D9F2-48E1-8F42-8D172ED4E960";
name = Bold;
paths = (
{
closed = 1;
nodes = (
"789 -12 CURVE SMOOTH",
"1034 -8 OFFCURVE",
"1185 238 OFFCURVE",
"1185 512 CURVE SMOOTH",
"1185 824 OFFCURVE",
"1012 1023 OFFCURVE",
"784 1023 CURVE SMOOTH",
"628 1023 OFFCURVE",
"497 969 OFFCURVE",
"433 830 CURVE",
"433 1254 LINE SMOOTH",
"433 1381 OFFCURVE",
"386 1451 OFFCURVE",
"267 1451 CURVE SMOOTH",
"155 1451 OFFCURVE",
"114 1381 OFFCURVE",
"114 1254 CURVE SMOOTH",
"114 197 LINE SMOOTH",
"114 70 OFFCURVE",
"155 0 OFFCURVE",
"267 0 CURVE SMOOTH",
"375.428 0 OFFCURVE",
"433 48 OFFCURVE",
"433 165 CURVE SMOOTH",
"433 183 LINE",
"500 31 OFFCURVE",
"620 -15 OFFCURVE"
);
},
{
closed = 1;
nodes = (
"658 180 CURVE SMOOTH",
"483 180 OFFCURVE",
"434 298 OFFCURVE",
"434 514 CURVE",
"433 698 OFFCURVE",
"483 829 OFFCURVE",
"651 829 CURVE SMOOTH",
"816 829 OFFCURVE",
"860 671 OFFCURVE",
"860 511 CURVE SMOOTH",
"860 343 OFFCURVE",
"819 180 OFFCURVE"
);
}
);
width = 1255;
}
);
rightKerningGroup = o_Left;
unicode = 0062;
userData = {
anchors = (
);
b = {
};
com.typemytype.robofont.layerData = {
};
components = (
);
contours = (
);
lib = {
};
name = b;
unicodes = (
);
width = 1203;
};
},
{
glyphname = c;
lastChange = "2013-12-11 00:11:42 -0800";
layers = (
{
layerId = "EBB1D39D-5A31-45B3-B44F-04CD128BFFB4";
name = Regular;
paths = (
{
closed = 1;
nodes = (
"276 1013 OFFCURVE",
"82 777 OFFCURVE",
"82 501 CURVE SMOOTH",
"82 222 OFFCURVE",
"274 -12 OFFCURVE",
"578 -12 CURVE SMOOTH",
"741 -12 OFFCURVE",
"838 36 OFFCURVE",
"885 77 CURVE SMOOTH",
"972 153 OFFCURVE",
"888 291 OFFCURVE",
"800 228 CURVE SMOOTH",
"758 198 OFFCURVE",
"688 169 OFFCURVE",
"597 171 CURVE SMOOTH",
"412 176 OFFCURVE",
"316 334 OFFCURVE",
"316 503 CURVE SMOOTH",
"316 688 OFFCURVE",
"419 833 OFFCURVE",
"609 833 CURVE SMOOTH",
"672 833 OFFCURVE",
"728 813 OFFCURVE",
"778 787 CURVE SMOOTH",
"871 739 OFFCURVE",
"954 874 OFFCURVE",
"855 939 CURVE SMOOTH",
"807 970 OFFCURVE",
"713 1013 OFFCURVE",
"576 1013 CURVE SMOOTH"
);
}
);
width = 992;
},
{
anchors = (
{
name = bot;
position = "{537, 9}";
},
{
name = top;
position = "{562, 1001}";
}
);
layerId = "F10CBA7B-FAF3-4DDE-A14D-E99DB7E222CB";
name = Light;
paths = (
{
closed = 1;
nodes = (
"571 -22 CURVE SMOOTH",
"707 -25 OFFCURVE",
"795 16 OFFCURVE",
"857 65 CURVE SMOOTH",
"932 125 OFFCURVE",
"860 210 OFFCURVE",
"801 170 CURVE SMOOTH",
"731 122 OFFCURVE",
"663 100 OFFCURVE",
"576 102 CURVE SMOOTH",
"339 107 OFFCURVE",
"259 303 OFFCURVE",
"259 491 CURVE SMOOTH",
"259 735 OFFCURVE",
"384 888 OFFCURVE",
"577 888 CURVE SMOOTH",
"648 888 OFFCURVE",
"720 874 OFFCURVE",
"783 830 CURVE SMOOTH",
"846 786 OFFCURVE",
"916 865 OFFCURVE",
"846 925 CURVE SMOOTH",
"791 974 OFFCURVE",
"678 1013 OFFCURVE",
"563 1013 CURVE SMOOTH",
"262 1013 OFFCURVE",
"90 775 OFFCURVE",
"90 496 CURVE SMOOTH",
"90 214 OFFCURVE",
"260 -15 OFFCURVE"
);
}
);
width = 971;
},
{
layerId = "FB5FCFFA-D9F2-48E1-8F42-8D172ED4E960";
name = Bold;
paths = (
{
closed = 1;
nodes = (
"595 -12 CURVE SMOOTH",
"726 -12 OFFCURVE",
"832 11 OFFCURVE",
"902 55 CURVE SMOOTH",
"1023 132 OFFCURVE",
"952 318 OFFCURVE",
"822 266 CURVE SMOOTH",
"763 243 OFFCURVE",
"701.587 228 OFFCURVE",
"643 228 CURVE SMOOTH",
"475 228 OFFCURVE",
"396 360 OFFCURVE",
"396 509 CURVE SMOOTH",
"396 695 OFFCURVE",
"506 782 OFFCURVE",
"642 788 CURVE SMOOTH",
"712 791 OFFCURVE",
"782 768 OFFCURVE",
"821 751 CURVE SMOOTH",
"950 695 OFFCURVE",
"1025 870 OFFCURVE",
"911 949 CURVE SMOOTH",
"845 995 OFFCURVE",
"707.488 1025 OFFCURVE",
"606 1025 CURVE SMOOTH",
"303 1025 OFFCURVE",
"72 808 OFFCURVE",
"72 507 CURVE SMOOTH",
"72 160 OFFCURVE",
"330 -12 OFFCURVE"
);
}
);
width = 1031;
}
);
leftKerningGroup = o_Right;
unicode = 0063;
userData = {
anchors = (
);
b = {
};
com.typemytype.robofont.layerData = {
};
components = (
);
contours = (
);
lib = {
};
name = c;
unicodes = (
);
width = 992;
};
},
